%TF.GenerationSoftware,KiCad,Pcbnew,(6.0.7)*%
%TF.CreationDate,2022-10-24T19:11:12-05:00*%
%TF.ProjectId,cut down control board,63757420-646f-4776-9e20-636f6e74726f,1*%
%TF.SameCoordinates,Original*%
%TF.FileFunction,Soldermask,Top*%
%TF.FilePolarity,Negative*%
%FSLAX46Y46*%
G04 Gerber Fmt 4.6, Leading zero omitted, Abs format (unit mm)*
G04 Created by KiCad (PCBNEW (6.0.7)) date 2022-10-24 19:11:12*
%MOMM*%
%LPD*%
G01*
G04 APERTURE LIST*
G04 Aperture macros list*
%AMRoundRect*
0 Rectangle with rounded corners*
0 $1 Rounding radius*
0 $2 $3 $4 $5 $6 $7 $8 $9 X,Y pos of 4 corners*
0 Add a 4 corners polygon primitive as box body*
4,1,4,$2,$3,$4,$5,$6,$7,$8,$9,$2,$3,0*
0 Add four circle primitives for the rounded corners*
1,1,$1+$1,$2,$3*
1,1,$1+$1,$4,$5*
1,1,$1+$1,$6,$7*
1,1,$1+$1,$8,$9*
0 Add four rect primitives between the rounded corners*
20,1,$1+$1,$2,$3,$4,$5,0*
20,1,$1+$1,$4,$5,$6,$7,0*
20,1,$1+$1,$6,$7,$8,$9,0*
20,1,$1+$1,$8,$9,$2,$3,0*%
%AMFreePoly0*
4,1,22,0.550000,-0.750000,0.000000,-0.750000,0.000000,-0.745033,-0.079941,-0.743568,-0.215256,-0.701293,-0.333266,-0.622738,-0.424486,-0.514219,-0.481581,-0.384460,-0.499164,-0.250000,-0.500000,-0.250000,-0.500000,0.250000,-0.499164,0.250000,-0.499963,0.256109,-0.478152,0.396186,-0.417904,0.524511,-0.324060,0.630769,-0.204165,0.706417,-0.067858,0.745374,0.000000,0.744959,0.000000,0.750000,
0.550000,0.750000,0.550000,-0.750000,0.550000,-0.750000,$1*%
%AMFreePoly1*
4,1,20,0.000000,0.744959,0.073905,0.744508,0.209726,0.703889,0.328688,0.626782,0.421226,0.519385,0.479903,0.390333,0.500000,0.250000,0.500000,-0.250000,0.499851,-0.262216,0.476331,-0.402017,0.414519,-0.529596,0.319384,-0.634700,0.198574,-0.708877,0.061801,-0.746166,0.000000,-0.745033,0.000000,-0.750000,-0.550000,-0.750000,-0.550000,0.750000,0.000000,0.750000,0.000000,0.744959,
0.000000,0.744959,$1*%
G04 Aperture macros list end*
%ADD10C,1.400000*%
%ADD11O,1.400000X1.400000*%
%ADD12C,2.640000*%
%ADD13R,2.000000X2.000000*%
%ADD14C,2.000000*%
%ADD15R,1.700000X1.700000*%
%ADD16O,1.700000X1.700000*%
%ADD17C,4.300000*%
%ADD18RoundRect,0.250000X-0.750000X0.600000X-0.750000X-0.600000X0.750000X-0.600000X0.750000X0.600000X0*%
%ADD19O,2.000000X1.700000*%
%ADD20O,3.500000X3.500000*%
%ADD21R,1.905000X2.000000*%
%ADD22O,1.905000X2.000000*%
%ADD23R,1.800000X1.800000*%
%ADD24C,1.800000*%
%ADD25RoundRect,0.200000X0.450000X-0.200000X0.450000X0.200000X-0.450000X0.200000X-0.450000X-0.200000X0*%
%ADD26O,1.300000X0.800000*%
%ADD27C,1.500000*%
%ADD28C,1.600000*%
%ADD29O,1.600000X1.600000*%
%ADD30FreePoly0,90.000000*%
%ADD31R,1.500000X1.000000*%
%ADD32FreePoly1,90.000000*%
%ADD33RoundRect,0.250000X0.750000X-0.600000X0.750000X0.600000X-0.750000X0.600000X-0.750000X-0.600000X0*%
%ADD34RoundRect,0.250000X-0.600000X-0.750000X0.600000X-0.750000X0.600000X0.750000X-0.600000X0.750000X0*%
%ADD35O,1.700000X2.000000*%
%ADD36RoundRect,0.125000X0.475000X0.125000X-0.475000X0.125000X-0.475000X-0.125000X0.475000X-0.125000X0*%
%ADD37R,1.600000X1.600000*%
%ADD38RoundRect,0.150000X0.625000X-0.150000X0.625000X0.150000X-0.625000X0.150000X-0.625000X-0.150000X0*%
%ADD39RoundRect,0.250000X0.650000X-0.350000X0.650000X0.350000X-0.650000X0.350000X-0.650000X-0.350000X0*%
%ADD40R,1.050000X1.500000*%
%ADD41O,1.050000X1.500000*%
G04 APERTURE END LIST*
D10*
%TO.C,R3*%
X157480000Y-100330000D03*
D11*
X157480000Y-107950000D03*
%TD*%
D12*
%TO.C,BT2*%
X205420321Y-81646135D03*
D13*
X197320321Y-81646135D03*
D14*
X197320321Y-119446135D03*
%TD*%
D10*
%TO.C,R8*%
X100906536Y-86428331D03*
D11*
X100906536Y-78808331D03*
%TD*%
D15*
%TO.C,J12*%
X105732786Y-90634882D03*
D16*
X105732786Y-93174882D03*
X103192786Y-90634882D03*
X103192786Y-93174882D03*
X100652786Y-90634882D03*
X100652786Y-93174882D03*
%TD*%
D17*
%TO.C,*%
X151836792Y-126266123D03*
%TD*%
D18*
%TO.C,J13*%
X164351910Y-115817579D03*
D19*
X164351910Y-118317579D03*
%TD*%
D20*
%TO.C,Q1*%
X149296792Y-81424236D03*
D21*
X146756792Y-98084236D03*
D22*
X149296792Y-98084236D03*
X151836792Y-98084236D03*
%TD*%
D17*
%TO.C,*%
X80716792Y-72277578D03*
%TD*%
D23*
%TO.C,D2*%
X110002106Y-113600256D03*
D24*
X107462106Y-113600256D03*
%TD*%
D25*
%TO.C,J10*%
X79918775Y-90925291D03*
D26*
X79918775Y-89675291D03*
X79918775Y-88425291D03*
X79918775Y-87175291D03*
X79918775Y-85925291D03*
X79918775Y-84675291D03*
X79918775Y-83425291D03*
X79918775Y-82175291D03*
X79918775Y-80925291D03*
X79918775Y-79675291D03*
%TD*%
D17*
%TO.C,*%
X80716792Y-126266123D03*
%TD*%
D27*
%TO.C,Y1*%
X81096511Y-103442179D03*
X81096511Y-98562179D03*
%TD*%
D10*
%TO.C,R2*%
X144160064Y-102640581D03*
D11*
X144160064Y-110260581D03*
%TD*%
D10*
%TO.C,R4*%
X119222067Y-98255138D03*
D11*
X111602067Y-98255138D03*
%TD*%
D17*
%TO.C,*%
X151836792Y-72277578D03*
%TD*%
D20*
%TO.C,U6*%
X136269860Y-81424236D03*
D21*
X133729860Y-98084236D03*
D22*
X136269860Y-98084236D03*
X138809860Y-98084236D03*
%TD*%
D20*
%TO.C,Q2*%
X162293733Y-81424236D03*
D21*
X159753733Y-98084236D03*
D22*
X162293733Y-98084236D03*
X164833733Y-98084236D03*
%TD*%
D28*
%TO.C,C11*%
X121393898Y-85359449D03*
D29*
X121393898Y-77859449D03*
%TD*%
D10*
%TO.C,R7*%
X104583740Y-106007343D03*
D11*
X104583740Y-113627343D03*
%TD*%
D12*
%TO.C,BT1*%
X169645321Y-119449214D03*
D13*
X177745321Y-119449214D03*
D14*
X177745321Y-81649214D03*
%TD*%
D28*
%TO.C,C8*%
X127057289Y-116106123D03*
D29*
X127057289Y-108606123D03*
%TD*%
D15*
%TO.C,J5*%
X84939322Y-91419507D03*
D16*
X84939322Y-88879507D03*
X84939322Y-86339507D03*
X84939322Y-83799507D03*
X84939322Y-81259507D03*
X84939322Y-78719507D03*
%TD*%
D30*
%TO.C,J11*%
X120095534Y-107130843D03*
D31*
X120095534Y-105830843D03*
D32*
X120095534Y-104530843D03*
%TD*%
D28*
%TO.C,C4*%
X100643868Y-104171999D03*
D29*
X100643868Y-96671999D03*
%TD*%
D33*
%TO.C,J2*%
X149599954Y-107139221D03*
D19*
X149599954Y-104639221D03*
%TD*%
D10*
%TO.C,R1*%
X96929929Y-79207440D03*
D11*
X89309929Y-79207440D03*
%TD*%
D28*
%TO.C,C7*%
X127051201Y-105713583D03*
D29*
X127051201Y-98213583D03*
%TD*%
D15*
%TO.C,J3*%
X113199183Y-106878859D03*
D16*
X115739183Y-106878859D03*
X113199183Y-109418859D03*
X115739183Y-109418859D03*
X113199183Y-111958859D03*
X115739183Y-111958859D03*
%TD*%
D17*
%TO.C,*%
X222956792Y-126266123D03*
%TD*%
D34*
%TO.C,J14*%
X91894742Y-122862781D03*
D35*
X94394742Y-122862781D03*
%TD*%
D10*
%TO.C,R5*%
X111588612Y-95345355D03*
D11*
X119208612Y-95345355D03*
%TD*%
D17*
%TO.C,*%
X222956792Y-72277578D03*
%TD*%
D36*
%TO.C,U2*%
X109828286Y-87000901D03*
X109828286Y-85750901D03*
X109828286Y-84500901D03*
X109828286Y-83250901D03*
X107528286Y-83250901D03*
X107528286Y-84500901D03*
X107528286Y-85750901D03*
X107528286Y-87000901D03*
%TD*%
D23*
%TO.C,D1*%
X105702793Y-98331455D03*
D24*
X108242793Y-98331455D03*
%TD*%
D37*
%TO.C,U1*%
X89265786Y-83885901D03*
D29*
X89265786Y-86425901D03*
X89265786Y-88965901D03*
X89265786Y-91505901D03*
X89265786Y-94045901D03*
X89265786Y-96585901D03*
X89265786Y-99125901D03*
X89265786Y-101665901D03*
X89265786Y-104205901D03*
X89265786Y-106745901D03*
X89265786Y-109285901D03*
X89265786Y-111825901D03*
X89265786Y-114365901D03*
X89265786Y-116905901D03*
X96885786Y-116905901D03*
X96885786Y-114365901D03*
X96885786Y-111825901D03*
X96885786Y-109285901D03*
X96885786Y-106745901D03*
X96885786Y-104205901D03*
X96885786Y-101665901D03*
X96885786Y-99125901D03*
X96885786Y-96585901D03*
X96885786Y-94045901D03*
X96885786Y-91505901D03*
X96885786Y-88965901D03*
X96885786Y-86425901D03*
X96885786Y-83885901D03*
%TD*%
D37*
%TO.C,C12*%
X125899567Y-81745985D03*
D28*
X127899567Y-81745985D03*
%TD*%
D10*
%TO.C,R9*%
X104754698Y-85292712D03*
D11*
X104754698Y-77672712D03*
%TD*%
D28*
%TO.C,C10*%
X114669528Y-85393583D03*
D29*
X114669528Y-77893583D03*
%TD*%
D33*
%TO.C,J1*%
X163301910Y-107261022D03*
D19*
X163301910Y-104761022D03*
%TD*%
D28*
%TO.C,C6*%
X145688228Y-115245921D03*
D29*
X138188228Y-115245921D03*
%TD*%
D15*
%TO.C,J7*%
X113568711Y-118091831D03*
D16*
X111028711Y-118091831D03*
X108488711Y-118091831D03*
X105948711Y-118091831D03*
X103408711Y-118091831D03*
X100868711Y-118091831D03*
%TD*%
D15*
%TO.C,J6*%
X85723634Y-118361868D03*
D16*
X85723634Y-115821868D03*
X85723634Y-113281868D03*
X85723634Y-110741868D03*
%TD*%
D38*
%TO.C,J9*%
X80864400Y-117029891D03*
X80864400Y-116029891D03*
X80864400Y-115029891D03*
X80864400Y-114029891D03*
X80864400Y-113029891D03*
X80864400Y-112029891D03*
D39*
X78339400Y-110729891D03*
X78339400Y-118329891D03*
%TD*%
D28*
%TO.C,C5*%
X114213445Y-89528504D03*
D29*
X121713445Y-89528504D03*
%TD*%
D33*
%TO.C,SW1*%
X135088573Y-107098140D03*
D19*
X135088573Y-104598140D03*
%TD*%
D10*
%TO.C,R6*%
X108667914Y-109423317D03*
D11*
X108667914Y-101803317D03*
%TD*%
D28*
%TO.C,C9*%
X127078479Y-87859444D03*
D29*
X127078479Y-95359444D03*
%TD*%
D12*
%TO.C,BT3*%
X208607754Y-119449214D03*
D13*
X216707754Y-119449214D03*
D14*
X216707754Y-81649214D03*
%TD*%
D28*
%TO.C,C2*%
X85727964Y-102210807D03*
X85727964Y-107210807D03*
%TD*%
D40*
%TO.C,U5*%
X132173484Y-115228470D03*
D41*
X133443484Y-115228470D03*
X134713484Y-115228470D03*
%TD*%
D28*
%TO.C,C1*%
X85716431Y-99738479D03*
X85716431Y-94738479D03*
%TD*%
M02*
