%TF.GenerationSoftware,KiCad,Pcbnew,(6.0.7)*%
%TF.CreationDate,2022-10-24T19:11:12-05:00*%
%TF.ProjectId,cut down control board,63757420-646f-4776-9e20-636f6e74726f,1*%
%TF.SameCoordinates,Original*%
%TF.FileFunction,Copper,L1,Top*%
%TF.FilePolarity,Positive*%
%FSLAX46Y46*%
G04 Gerber Fmt 4.6, Leading zero omitted, Abs format (unit mm)*
G04 Created by KiCad (PCBNEW (6.0.7)) date 2022-10-24 19:11:12*
%MOMM*%
%LPD*%
G01*
G04 APERTURE LIST*
G04 Aperture macros list*
%AMRoundRect*
0 Rectangle with rounded corners*
0 $1 Rounding radius*
0 $2 $3 $4 $5 $6 $7 $8 $9 X,Y pos of 4 corners*
0 Add a 4 corners polygon primitive as box body*
4,1,4,$2,$3,$4,$5,$6,$7,$8,$9,$2,$3,0*
0 Add four circle primitives for the rounded corners*
1,1,$1+$1,$2,$3*
1,1,$1+$1,$4,$5*
1,1,$1+$1,$6,$7*
1,1,$1+$1,$8,$9*
0 Add four rect primitives between the rounded corners*
20,1,$1+$1,$2,$3,$4,$5,0*
20,1,$1+$1,$4,$5,$6,$7,0*
20,1,$1+$1,$6,$7,$8,$9,0*
20,1,$1+$1,$8,$9,$2,$3,0*%
%AMFreePoly0*
4,1,22,0.550000,-0.750000,0.000000,-0.750000,0.000000,-0.745033,-0.079941,-0.743568,-0.215256,-0.701293,-0.333266,-0.622738,-0.424486,-0.514219,-0.481581,-0.384460,-0.499164,-0.250000,-0.500000,-0.250000,-0.500000,0.250000,-0.499164,0.250000,-0.499963,0.256109,-0.478152,0.396186,-0.417904,0.524511,-0.324060,0.630769,-0.204165,0.706417,-0.067858,0.745374,0.000000,0.744959,0.000000,0.750000,
0.550000,0.750000,0.550000,-0.750000,0.550000,-0.750000,$1*%
%AMFreePoly1*
4,1,20,0.000000,0.744959,0.073905,0.744508,0.209726,0.703889,0.328688,0.626782,0.421226,0.519385,0.479903,0.390333,0.500000,0.250000,0.500000,-0.250000,0.499851,-0.262216,0.476331,-0.402017,0.414519,-0.529596,0.319384,-0.634700,0.198574,-0.708877,0.061801,-0.746166,0.000000,-0.745033,0.000000,-0.750000,-0.550000,-0.750000,-0.550000,0.750000,0.000000,0.750000,0.000000,0.744959,
0.000000,0.744959,$1*%
G04 Aperture macros list end*
%TA.AperFunction,ComponentPad*%
%ADD10C,1.400000*%
%TD*%
%TA.AperFunction,ComponentPad*%
%ADD11O,1.400000X1.400000*%
%TD*%
%TA.AperFunction,ComponentPad*%
%ADD12R,2.000000X2.000000*%
%TD*%
%TA.AperFunction,ComponentPad*%
%ADD13C,2.000000*%
%TD*%
%TA.AperFunction,ComponentPad*%
%ADD14R,1.700000X1.700000*%
%TD*%
%TA.AperFunction,ComponentPad*%
%ADD15O,1.700000X1.700000*%
%TD*%
%TA.AperFunction,ComponentPad*%
%ADD16RoundRect,0.250000X-0.750000X0.600000X-0.750000X-0.600000X0.750000X-0.600000X0.750000X0.600000X0*%
%TD*%
%TA.AperFunction,ComponentPad*%
%ADD17O,2.000000X1.700000*%
%TD*%
%TA.AperFunction,ComponentPad*%
%ADD18R,1.905000X2.000000*%
%TD*%
%TA.AperFunction,ComponentPad*%
%ADD19O,1.905000X2.000000*%
%TD*%
%TA.AperFunction,ComponentPad*%
%ADD20R,1.800000X1.800000*%
%TD*%
%TA.AperFunction,ComponentPad*%
%ADD21C,1.800000*%
%TD*%
%TA.AperFunction,ComponentPad*%
%ADD22RoundRect,0.200000X0.450000X-0.200000X0.450000X0.200000X-0.450000X0.200000X-0.450000X-0.200000X0*%
%TD*%
%TA.AperFunction,ComponentPad*%
%ADD23O,1.300000X0.800000*%
%TD*%
%TA.AperFunction,ComponentPad*%
%ADD24C,1.500000*%
%TD*%
%TA.AperFunction,ComponentPad*%
%ADD25C,1.600000*%
%TD*%
%TA.AperFunction,ComponentPad*%
%ADD26O,1.600000X1.600000*%
%TD*%
%TA.AperFunction,SMDPad,CuDef*%
%ADD27FreePoly0,90.000000*%
%TD*%
%TA.AperFunction,SMDPad,CuDef*%
%ADD28R,1.500000X1.000000*%
%TD*%
%TA.AperFunction,SMDPad,CuDef*%
%ADD29FreePoly1,90.000000*%
%TD*%
%TA.AperFunction,ComponentPad*%
%ADD30RoundRect,0.250000X0.750000X-0.600000X0.750000X0.600000X-0.750000X0.600000X-0.750000X-0.600000X0*%
%TD*%
%TA.AperFunction,ComponentPad*%
%ADD31RoundRect,0.250000X-0.600000X-0.750000X0.600000X-0.750000X0.600000X0.750000X-0.600000X0.750000X0*%
%TD*%
%TA.AperFunction,ComponentPad*%
%ADD32O,1.700000X2.000000*%
%TD*%
%TA.AperFunction,SMDPad,CuDef*%
%ADD33RoundRect,0.125000X0.475000X0.125000X-0.475000X0.125000X-0.475000X-0.125000X0.475000X-0.125000X0*%
%TD*%
%TA.AperFunction,ComponentPad*%
%ADD34R,1.600000X1.600000*%
%TD*%
%TA.AperFunction,SMDPad,CuDef*%
%ADD35RoundRect,0.150000X0.625000X-0.150000X0.625000X0.150000X-0.625000X0.150000X-0.625000X-0.150000X0*%
%TD*%
%TA.AperFunction,SMDPad,CuDef*%
%ADD36RoundRect,0.250000X0.650000X-0.350000X0.650000X0.350000X-0.650000X0.350000X-0.650000X-0.350000X0*%
%TD*%
%TA.AperFunction,ComponentPad*%
%ADD37R,1.050000X1.500000*%
%TD*%
%TA.AperFunction,ComponentPad*%
%ADD38O,1.050000X1.500000*%
%TD*%
%TA.AperFunction,ViaPad*%
%ADD39C,0.800000*%
%TD*%
%TA.AperFunction,Conductor*%
%ADD40C,1.000000*%
%TD*%
%TA.AperFunction,Conductor*%
%ADD41C,0.250000*%
%TD*%
%TA.AperFunction,Conductor*%
%ADD42C,6.000000*%
%TD*%
%TA.AperFunction,Conductor*%
%ADD43C,2.000000*%
%TD*%
G04 APERTURE END LIST*
%TO.C,J11*%
G36*
X120395534Y-106730843D02*
G01*
X119795534Y-106730843D01*
X119795534Y-106230843D01*
X120395534Y-106230843D01*
X120395534Y-106730843D01*
G37*
%TD*%
D10*
%TO.P,R3,1*%
%TO.N,/CUTTER*%
X157480000Y-100330000D03*
D11*
%TO.P,R3,2*%
%TO.N,GND*%
X157480000Y-107950000D03*
%TD*%
D12*
%TO.P,BT2,1,+*%
%TO.N,Net-(BT1-Pad2)*%
X197320321Y-81646135D03*
D13*
%TO.P,BT2,2,-*%
%TO.N,Net-(BT2-Pad2)*%
X197320321Y-119446135D03*
%TD*%
D10*
%TO.P,R8,1*%
%TO.N,/SDA*%
X100906536Y-86428331D03*
D11*
%TO.P,R8,2*%
%TO.N,+3.3V*%
X100906536Y-78808331D03*
%TD*%
D14*
%TO.P,J12,1,Pin_1*%
%TO.N,/A0*%
X105732786Y-90634882D03*
D15*
%TO.P,J12,2,Pin_2*%
%TO.N,GND*%
X105732786Y-93174882D03*
%TO.P,J12,3,Pin_3*%
%TO.N,/A1*%
X103192786Y-90634882D03*
%TO.P,J12,4,Pin_4*%
%TO.N,GND*%
X103192786Y-93174882D03*
%TO.P,J12,5,Pin_5*%
%TO.N,/A2*%
X100652786Y-90634882D03*
%TO.P,J12,6,Pin_6*%
%TO.N,GND*%
X100652786Y-93174882D03*
%TD*%
D16*
%TO.P,J13,1,Pin_1*%
%TO.N,VDD*%
X164351910Y-115817579D03*
D17*
%TO.P,J13,2,Pin_2*%
%TO.N,GND*%
X164351910Y-118317579D03*
%TD*%
D18*
%TO.P,Q1,1,G*%
%TO.N,/LETDOWN_MOTOR*%
X146756792Y-98084236D03*
D19*
%TO.P,Q1,2,D*%
%TO.N,Net-(J2-Pad2)*%
X149296792Y-98084236D03*
%TO.P,Q1,3,S*%
%TO.N,GND*%
X151836792Y-98084236D03*
%TD*%
D20*
%TO.P,D2,1,K*%
%TO.N,GND*%
X110002106Y-113600256D03*
D21*
%TO.P,D2,2,A*%
%TO.N,Net-(D2-Pad2)*%
X107462106Y-113600256D03*
%TD*%
D22*
%TO.P,J10,1,Pin_1*%
%TO.N,GND*%
X79918775Y-90925291D03*
D23*
%TO.P,J10,2,Pin_2*%
%TO.N,/Li_Ion*%
X79918775Y-89675291D03*
%TO.P,J10,3,Pin_3*%
%TO.N,+5V*%
X79918775Y-88425291D03*
%TO.P,J10,4,Pin_4*%
%TO.N,/SLEEP*%
X79918775Y-87175291D03*
%TO.P,J10,5,Pin_5*%
%TO.N,/TX_SAT*%
X79918775Y-85925291D03*
%TO.P,J10,6,Pin_6*%
%TO.N,/RING*%
X79918775Y-84675291D03*
%TO.P,J10,7,Pin_7*%
%TO.N,/NetAv*%
X79918775Y-83425291D03*
%TO.P,J10,8,Pin_8*%
%TO.N,/RTS*%
X79918775Y-82175291D03*
%TO.P,J10,9,Pin_9*%
%TO.N,/CTS*%
X79918775Y-80925291D03*
%TO.P,J10,10,Pin_10*%
%TO.N,/RX_SAT*%
X79918775Y-79675291D03*
%TD*%
D24*
%TO.P,Y1,1,1*%
%TO.N,Net-(C2-Pad1)*%
X81096511Y-103442179D03*
%TO.P,Y1,2,2*%
%TO.N,Net-(C1-Pad1)*%
X81096511Y-98562179D03*
%TD*%
D10*
%TO.P,R2,1*%
%TO.N,/LETDOWN_MOTOR*%
X144160064Y-102640581D03*
D11*
%TO.P,R2,2*%
%TO.N,GND*%
X144160064Y-110260581D03*
%TD*%
D10*
%TO.P,R4,1*%
%TO.N,+9V*%
X119222067Y-98255138D03*
D11*
%TO.P,R4,2*%
%TO.N,/BATT_SENSE*%
X111602067Y-98255138D03*
%TD*%
D18*
%TO.P,U6,1,IN*%
%TO.N,+9V*%
X133729860Y-98084236D03*
D19*
%TO.P,U6,2,GND*%
%TO.N,GND*%
X136269860Y-98084236D03*
%TO.P,U6,3,OUT*%
%TO.N,+5V*%
X138809860Y-98084236D03*
%TD*%
D18*
%TO.P,Q2,1,G*%
%TO.N,/CUTTER*%
X159753733Y-98084236D03*
D19*
%TO.P,Q2,2,D*%
%TO.N,Net-(J1-Pad2)*%
X162293733Y-98084236D03*
%TO.P,Q2,3,S*%
%TO.N,GND*%
X164833733Y-98084236D03*
%TD*%
D25*
%TO.P,C11,1*%
%TO.N,+3.3V*%
X121393898Y-85359449D03*
D26*
%TO.P,C11,2*%
%TO.N,GND*%
X121393898Y-77859449D03*
%TD*%
D10*
%TO.P,R7,1*%
%TO.N,/MISO*%
X104583740Y-106007343D03*
D11*
%TO.P,R7,2*%
%TO.N,Net-(D2-Pad2)*%
X104583740Y-113627343D03*
%TD*%
D12*
%TO.P,BT1,1,+*%
%TO.N,VDD*%
X177745321Y-119449214D03*
D13*
%TO.P,BT1,2,-*%
%TO.N,Net-(BT1-Pad2)*%
X177745321Y-81649214D03*
%TD*%
D25*
%TO.P,C8,1*%
%TO.N,GND*%
X127057289Y-116106123D03*
D26*
%TO.P,C8,2*%
%TO.N,+3.3V*%
X127057289Y-108606123D03*
%TD*%
D14*
%TO.P,J5,1,Pin_1*%
%TO.N,GND*%
X84939322Y-91419507D03*
D15*
%TO.P,J5,2,Pin_2*%
%TO.N,/SLEEP*%
X84939322Y-88879507D03*
%TO.P,J5,3,Pin_3*%
%TO.N,+5V*%
X84939322Y-86339507D03*
%TO.P,J5,4,Pin_4*%
%TO.N,/TX_SAT*%
X84939322Y-83799507D03*
%TO.P,J5,5,Pin_5*%
%TO.N,/RX_SAT*%
X84939322Y-81259507D03*
%TO.P,J5,6,Pin_6*%
%TO.N,/RING*%
X84939322Y-78719507D03*
%TD*%
D27*
%TO.P,J11,1,A*%
%TO.N,+3.3V*%
X120095534Y-107130843D03*
D28*
%TO.P,J11,2,C*%
%TO.N,/+VGPS*%
X120095534Y-105830843D03*
D29*
%TO.P,J11,3,B*%
%TO.N,+5V*%
X120095534Y-104530843D03*
%TD*%
D25*
%TO.P,C4,1*%
%TO.N,+3.3V*%
X100643868Y-104171999D03*
D26*
%TO.P,C4,2*%
%TO.N,GND*%
X100643868Y-96671999D03*
%TD*%
D30*
%TO.P,J2,1,Pin_1*%
%TO.N,VDD*%
X149599954Y-107139221D03*
D17*
%TO.P,J2,2,Pin_2*%
%TO.N,Net-(J2-Pad2)*%
X149599954Y-104639221D03*
%TD*%
D10*
%TO.P,R1,1*%
%TO.N,+3.3V*%
X96929929Y-79207440D03*
D11*
%TO.P,R1,2*%
%TO.N,/RESET*%
X89309929Y-79207440D03*
%TD*%
D25*
%TO.P,C7,1*%
%TO.N,GND*%
X127051201Y-105713583D03*
D26*
%TO.P,C7,2*%
%TO.N,+9V*%
X127051201Y-98213583D03*
%TD*%
D14*
%TO.P,J3,1,MISO*%
%TO.N,/MISO*%
X113199183Y-106878859D03*
D15*
%TO.P,J3,2,VCC*%
%TO.N,+3.3V*%
X115739183Y-106878859D03*
%TO.P,J3,3,SCK*%
%TO.N,/SCK*%
X113199183Y-109418859D03*
%TO.P,J3,4,MOSI*%
%TO.N,/MOSI*%
X115739183Y-109418859D03*
%TO.P,J3,5,~{RST}*%
%TO.N,/RESET*%
X113199183Y-111958859D03*
%TO.P,J3,6,GND*%
%TO.N,GND*%
X115739183Y-111958859D03*
%TD*%
D31*
%TO.P,J14,1,Pin_1*%
%TO.N,Net-(J14-Pad1)*%
X91894742Y-122862781D03*
D32*
%TO.P,J14,2,Pin_2*%
%TO.N,GND*%
X94394742Y-122862781D03*
%TD*%
D10*
%TO.P,R5,1*%
%TO.N,/BATT_SENSE*%
X111588612Y-95345355D03*
D11*
%TO.P,R5,2*%
%TO.N,GND*%
X119208612Y-95345355D03*
%TD*%
D33*
%TO.P,U2,1,VDD*%
%TO.N,+3.3V*%
X109828286Y-87000901D03*
%TO.P,U2,2,CAP*%
%TO.N,Net-(C5-Pad1)*%
X109828286Y-85750901D03*
%TO.P,U2,3,GND*%
%TO.N,GND*%
X109828286Y-84500901D03*
%TO.P,U2,4,VDDIO*%
%TO.N,+3.3V*%
X109828286Y-83250901D03*
%TO.P,U2,5,INT2*%
%TO.N,unconnected-(U2-Pad5)*%
X107528286Y-83250901D03*
%TO.P,U2,6,INT1*%
%TO.N,unconnected-(U2-Pad6)*%
X107528286Y-84500901D03*
%TO.P,U2,7,SDL*%
%TO.N,/SDA*%
X107528286Y-85750901D03*
%TO.P,U2,8,SCL*%
%TO.N,/SCL*%
X107528286Y-87000901D03*
%TD*%
D20*
%TO.P,D1,1,K*%
%TO.N,GND*%
X105702793Y-98331455D03*
D21*
%TO.P,D1,2,A*%
%TO.N,Net-(D1-Pad2)*%
X108242793Y-98331455D03*
%TD*%
D34*
%TO.P,U1,1,~{RESET}/PC6*%
%TO.N,/RESET*%
X89265786Y-83885901D03*
D26*
%TO.P,U1,2,PD0*%
%TO.N,/RX_SAT*%
X89265786Y-86425901D03*
%TO.P,U1,3,PD1*%
%TO.N,/TX_SAT*%
X89265786Y-88965901D03*
%TO.P,U1,4,PD2*%
%TO.N,/RING*%
X89265786Y-91505901D03*
%TO.P,U1,5,PD3*%
%TO.N,/SLEEP*%
X89265786Y-94045901D03*
%TO.P,U1,6,PD4*%
%TO.N,/CUTTER*%
X89265786Y-96585901D03*
%TO.P,U1,7,VCC*%
%TO.N,+3.3V*%
X89265786Y-99125901D03*
%TO.P,U1,8,GND*%
%TO.N,GND*%
X89265786Y-101665901D03*
%TO.P,U1,9,XTAL1/PB6*%
%TO.N,Net-(C1-Pad1)*%
X89265786Y-104205901D03*
%TO.P,U1,10,XTAL2/PB7*%
%TO.N,Net-(C2-Pad1)*%
X89265786Y-106745901D03*
%TO.P,U1,11,PD5*%
%TO.N,/LETDOWN_MOTOR*%
X89265786Y-109285901D03*
%TO.P,U1,12,PD6*%
%TO.N,/RX_GPS*%
X89265786Y-111825901D03*
%TO.P,U1,13,PD7*%
%TO.N,/TX_GPS*%
X89265786Y-114365901D03*
%TO.P,U1,14,PB0*%
%TO.N,Net-(J14-Pad1)*%
X89265786Y-116905901D03*
%TO.P,U1,15,PB1*%
%TO.N,/TX_DBG*%
X96885786Y-116905901D03*
%TO.P,U1,16,PB2*%
%TO.N,/RX_DBG*%
X96885786Y-114365901D03*
%TO.P,U1,17,PB3*%
%TO.N,/MOSI*%
X96885786Y-111825901D03*
%TO.P,U1,18,PB4*%
%TO.N,/MISO*%
X96885786Y-109285901D03*
%TO.P,U1,19,PB5*%
%TO.N,/SCK*%
X96885786Y-106745901D03*
%TO.P,U1,20,AVCC*%
%TO.N,+3.3V*%
X96885786Y-104205901D03*
%TO.P,U1,21,AREF*%
X96885786Y-101665901D03*
%TO.P,U1,22,GND*%
%TO.N,GND*%
X96885786Y-99125901D03*
%TO.P,U1,23,PC0*%
%TO.N,/A0*%
X96885786Y-96585901D03*
%TO.P,U1,24,PC1*%
%TO.N,/A1*%
X96885786Y-94045901D03*
%TO.P,U1,25,PC2*%
%TO.N,/A2*%
X96885786Y-91505901D03*
%TO.P,U1,26,PC3*%
%TO.N,/BATT_SENSE*%
X96885786Y-88965901D03*
%TO.P,U1,27,PC4*%
%TO.N,/SDA*%
X96885786Y-86425901D03*
%TO.P,U1,28,PC5*%
%TO.N,/SCL*%
X96885786Y-83885901D03*
%TD*%
D34*
%TO.P,C12,1*%
%TO.N,+3.3V*%
X125899567Y-81745985D03*
D25*
%TO.P,C12,2*%
%TO.N,GND*%
X127899567Y-81745985D03*
%TD*%
D10*
%TO.P,R9,1*%
%TO.N,/SCL*%
X104754698Y-85292712D03*
D11*
%TO.P,R9,2*%
%TO.N,+3.3V*%
X104754698Y-77672712D03*
%TD*%
D25*
%TO.P,C10,1*%
%TO.N,+3.3V*%
X114669528Y-85393583D03*
D26*
%TO.P,C10,2*%
%TO.N,GND*%
X114669528Y-77893583D03*
%TD*%
D30*
%TO.P,J1,1,Pin_1*%
%TO.N,VDD*%
X163301910Y-107261022D03*
D17*
%TO.P,J1,2,Pin_2*%
%TO.N,Net-(J1-Pad2)*%
X163301910Y-104761022D03*
%TD*%
D25*
%TO.P,C6,1*%
%TO.N,GND*%
X145688228Y-115245921D03*
D26*
%TO.P,C6,2*%
%TO.N,+9V*%
X138188228Y-115245921D03*
%TD*%
D14*
%TO.P,J7,1,Pin_1*%
%TO.N,GND*%
X113568711Y-118091831D03*
D15*
%TO.P,J7,2,Pin_2*%
%TO.N,unconnected-(J7-Pad2)*%
X111028711Y-118091831D03*
%TO.P,J7,3,Pin_3*%
%TO.N,unconnected-(J7-Pad3)*%
X108488711Y-118091831D03*
%TO.P,J7,4,Pin_4*%
%TO.N,/RX_DBG*%
X105948711Y-118091831D03*
%TO.P,J7,5,Pin_5*%
%TO.N,/TX_DBG*%
X103408711Y-118091831D03*
%TO.P,J7,6,Pin_6*%
%TO.N,unconnected-(J7-Pad6)*%
X100868711Y-118091831D03*
%TD*%
D14*
%TO.P,J6,1,Pin_1*%
%TO.N,/+VGPS*%
X85723634Y-118361868D03*
D15*
%TO.P,J6,2,Pin_2*%
%TO.N,/TX_GPS*%
X85723634Y-115821868D03*
%TO.P,J6,3,Pin_3*%
%TO.N,/RX_GPS*%
X85723634Y-113281868D03*
%TO.P,J6,4,Pin_4*%
%TO.N,GND*%
X85723634Y-110741868D03*
%TD*%
D35*
%TO.P,J9,1,Pin_1*%
%TO.N,GND*%
X80864400Y-117029891D03*
%TO.P,J9,2,Pin_2*%
%TO.N,/+VGPS*%
X80864400Y-116029891D03*
%TO.P,J9,3,Pin_3*%
%TO.N,/TX_GPS*%
X80864400Y-115029891D03*
%TO.P,J9,4,Pin_4*%
%TO.N,/RX_GPS*%
X80864400Y-114029891D03*
%TO.P,J9,5,Pin_5*%
%TO.N,GND*%
X80864400Y-113029891D03*
%TO.P,J9,6,Pin_6*%
%TO.N,/1PPS*%
X80864400Y-112029891D03*
D36*
%TO.P,J9,MP*%
%TO.N,N/C*%
X78339400Y-110729891D03*
X78339400Y-118329891D03*
%TD*%
D25*
%TO.P,C5,1*%
%TO.N,Net-(C5-Pad1)*%
X114213445Y-89528504D03*
D26*
%TO.P,C5,2*%
%TO.N,GND*%
X121713445Y-89528504D03*
%TD*%
D30*
%TO.P,SW1,1,A*%
%TO.N,VDD*%
X135088573Y-107098140D03*
D17*
%TO.P,SW1,2,B*%
%TO.N,+9V*%
X135088573Y-104598140D03*
%TD*%
D10*
%TO.P,R6,1*%
%TO.N,/SCK*%
X108667914Y-109423317D03*
D11*
%TO.P,R6,2*%
%TO.N,Net-(D1-Pad2)*%
X108667914Y-101803317D03*
%TD*%
D25*
%TO.P,C9,1*%
%TO.N,GND*%
X127078479Y-87859444D03*
D26*
%TO.P,C9,2*%
%TO.N,+5V*%
X127078479Y-95359444D03*
%TD*%
D12*
%TO.P,BT3,1,+*%
%TO.N,Net-(BT2-Pad2)*%
X216707754Y-119449214D03*
D13*
%TO.P,BT3,2,-*%
%TO.N,GND*%
X216707754Y-81649214D03*
%TD*%
D25*
%TO.P,C2,1*%
%TO.N,Net-(C2-Pad1)*%
X85727964Y-102210807D03*
%TO.P,C2,2*%
%TO.N,GND*%
X85727964Y-107210807D03*
%TD*%
D37*
%TO.P,U5,1,VO*%
%TO.N,+3.3V*%
X132173484Y-115228470D03*
D38*
%TO.P,U5,2,GND*%
%TO.N,GND*%
X133443484Y-115228470D03*
%TO.P,U5,3,VI*%
%TO.N,+9V*%
X134713484Y-115228470D03*
%TD*%
D25*
%TO.P,C1,1*%
%TO.N,Net-(C1-Pad1)*%
X85716431Y-99738479D03*
%TO.P,C1,2*%
%TO.N,GND*%
X85716431Y-94738479D03*
%TD*%
D39*
%TO.N,/RESET*%
X93086191Y-88418770D03*
%TD*%
D40*
%TO.N,+9V*%
X132800167Y-106383533D02*
X132800167Y-109325374D01*
X133729860Y-101019667D02*
X133729860Y-98242457D01*
D41*
X127051201Y-98213583D02*
X133700986Y-98213583D01*
X138170777Y-115228470D02*
X138188228Y-115245921D01*
D40*
X135088573Y-104598140D02*
X135088573Y-102378494D01*
X132800167Y-109325374D02*
X134713484Y-111238691D01*
D41*
X134713484Y-115228470D02*
X138170777Y-115228470D01*
D40*
X134585560Y-104598140D02*
X132800167Y-106383533D01*
X134713484Y-111238691D02*
X134713484Y-115228470D01*
X133729803Y-101019724D02*
X133729860Y-101019667D01*
X135088573Y-104598140D02*
X134585560Y-104598140D01*
X135088573Y-102378494D02*
X133729803Y-101019724D01*
D42*
%TO.N,Net-(BT1-Pad2)*%
X197286649Y-81679807D02*
X177775914Y-81679807D01*
X197320321Y-81646135D02*
X197286649Y-81679807D01*
X177775914Y-81679807D02*
X177745321Y-81649214D01*
%TO.N,Net-(BT2-Pad2)*%
X211334478Y-114072817D02*
X216707754Y-119446093D01*
X202759396Y-114072817D02*
X211334478Y-114072817D01*
X197386078Y-119446135D02*
X202759396Y-114072817D01*
X197320321Y-119446135D02*
X197386078Y-119446135D01*
D41*
%TO.N,GND*%
X82061151Y-113029891D02*
X80864400Y-113029891D01*
X79943481Y-117029891D02*
X80864400Y-117029891D01*
X79830440Y-113029891D02*
X79662977Y-113197354D01*
X120267922Y-88082981D02*
X121713445Y-89528504D01*
X79662977Y-116749387D02*
X79943481Y-117029891D01*
X113866038Y-88082981D02*
X120267922Y-88082981D01*
X110460463Y-85133078D02*
X110916135Y-85133078D01*
X105702793Y-93204875D02*
X105732786Y-93174882D01*
X79662977Y-113197354D02*
X79662977Y-116749387D01*
X105702793Y-98331455D02*
X105702793Y-93204875D01*
X80864400Y-113029891D02*
X79830440Y-113029891D01*
X110916135Y-85133078D02*
X113866038Y-88082981D01*
X85723634Y-110741868D02*
X84349174Y-110741868D01*
X84349174Y-110741868D02*
X82061151Y-113029891D01*
X109828286Y-84500901D02*
X110460463Y-85133078D01*
%TO.N,/RESET*%
X89309929Y-79207440D02*
X89309929Y-83841758D01*
X95228219Y-113096910D02*
X102755783Y-113096910D01*
X93086191Y-110954882D02*
X95228219Y-113096910D01*
X89309929Y-83841758D02*
X89265786Y-83885901D01*
X103576792Y-112275901D02*
X108339750Y-112275901D01*
X108656792Y-111958859D02*
X113199183Y-111958859D01*
X108339750Y-112275901D02*
X108656792Y-111958859D01*
X102755783Y-113096910D02*
X103576792Y-112275901D01*
X93086191Y-88418770D02*
X93086191Y-110954882D01*
%TO.N,/RX_SAT*%
X79868500Y-79653506D02*
X79887893Y-79672899D01*
X83352714Y-79672899D02*
X84939322Y-81259507D01*
X87414026Y-83754141D02*
X87414026Y-84574141D01*
X87414026Y-84574141D02*
X89265786Y-86425901D01*
X84939322Y-81259507D02*
X84939322Y-81279437D01*
X79887893Y-79672899D02*
X83352714Y-79672899D01*
X84939322Y-81279437D02*
X87414026Y-83754141D01*
%TO.N,/TX_SAT*%
X82815930Y-85922899D02*
X84939322Y-83799507D01*
X87379892Y-87080007D02*
X87379892Y-86240077D01*
X79887893Y-85922899D02*
X82815930Y-85922899D01*
X89265786Y-88965901D02*
X87379892Y-87080007D01*
X87379892Y-86240077D02*
X84939322Y-83799507D01*
X79868500Y-85903506D02*
X79887893Y-85922899D01*
%TO.N,/RING*%
X78671791Y-83581122D02*
X79744175Y-84653506D01*
X84939322Y-78719507D02*
X79410037Y-78719507D01*
X91158734Y-79032705D02*
X91158734Y-89612953D01*
X84939322Y-78719507D02*
X87282069Y-78719507D01*
X78671791Y-79457753D02*
X78671791Y-83581122D01*
X91158734Y-89612953D02*
X89265786Y-91505901D01*
X90007501Y-77881472D02*
X91158734Y-79032705D01*
X79744175Y-84653506D02*
X79868500Y-84653506D01*
X79410037Y-78719507D02*
X78671791Y-79457753D01*
X88120104Y-77881472D02*
X90007501Y-77881472D01*
X87282069Y-78719507D02*
X88120104Y-77881472D01*
%TO.N,/CUTTER*%
X157607618Y-100220808D02*
X159744190Y-98084236D01*
X159744190Y-98084236D02*
X159753733Y-98084236D01*
%TO.N,/LETDOWN_MOTOR*%
X144160064Y-102640581D02*
X144160064Y-100841312D01*
X144160064Y-100841312D02*
X146756792Y-98244584D01*
%TO.N,+3.3V*%
X96929929Y-79207440D02*
X98583899Y-79207440D01*
X129096792Y-108606123D02*
X132173484Y-111682815D01*
X108903286Y-86075901D02*
X108903286Y-84175901D01*
X113032323Y-104171999D02*
X115739183Y-106878859D01*
X98997421Y-78793918D02*
X99011834Y-78808331D01*
X127057289Y-108606123D02*
X129096792Y-108606123D01*
X108903286Y-84175901D02*
X109828286Y-83250901D01*
X109828286Y-83250901D02*
X111970968Y-85393583D01*
X120095534Y-107130843D02*
X121570814Y-108606123D01*
X132173484Y-111682815D02*
X132173484Y-115228470D01*
X109828286Y-87000901D02*
X109828286Y-88651967D01*
X101918520Y-78808331D02*
X103054139Y-77672712D01*
X125007362Y-81745985D02*
X121393898Y-85359449D01*
X104754698Y-77672712D02*
X109828286Y-82746300D01*
X100609966Y-104205901D02*
X100643868Y-104171999D01*
X125899567Y-81745985D02*
X125007362Y-81745985D01*
X109828286Y-87000901D02*
X108903286Y-86075901D01*
X96885786Y-101665901D02*
X96885786Y-104205901D01*
X121359764Y-85393583D02*
X121393898Y-85359449D01*
X103054139Y-77672712D02*
X104754698Y-77672712D01*
X100643868Y-104171999D02*
X113032323Y-104171999D01*
X109828286Y-82746300D02*
X109828286Y-83250901D01*
X98583899Y-79207440D02*
X98997421Y-78793918D01*
X114669528Y-85393583D02*
X121359764Y-85393583D01*
X121570814Y-108606123D02*
X127057289Y-108606123D01*
X99011834Y-78808331D02*
X100906536Y-78808331D01*
X96885786Y-104205901D02*
X100609966Y-104205901D01*
X111970968Y-85393583D02*
X114669528Y-85393583D01*
X115687982Y-106827658D02*
X115739183Y-106878859D01*
X115687982Y-94511663D02*
X115687982Y-106827658D01*
X109828286Y-88651967D02*
X115687982Y-94511663D01*
X100906536Y-78808331D02*
X101918520Y-78808331D01*
%TO.N,Net-(C1-Pad1)*%
X85716431Y-99738479D02*
X87700968Y-101723016D01*
X87700968Y-101723016D02*
X87700968Y-102641083D01*
X87700968Y-102641083D02*
X89265786Y-104205901D01*
X80513002Y-98579663D02*
X84557615Y-98579663D01*
X84557615Y-98579663D02*
X85716431Y-99738479D01*
%TO.N,/RX_DBG*%
X96885786Y-114365901D02*
X102222781Y-114365901D01*
X102222781Y-114365901D02*
X105948711Y-118091831D01*
%TO.N,/TX_DBG*%
X102222781Y-116905901D02*
X103408711Y-118091831D01*
X96885786Y-116905901D02*
X102222781Y-116905901D01*
%TO.N,/TX_GPS*%
X87809819Y-115821868D02*
X89265786Y-114365901D01*
X83453236Y-115821868D02*
X82661259Y-115029891D01*
X85723634Y-115821868D02*
X87809819Y-115821868D01*
X85723634Y-115821868D02*
X83453236Y-115821868D01*
X82661259Y-115029891D02*
X80864400Y-115029891D01*
%TO.N,/RX_GPS*%
X85723634Y-113281868D02*
X83541047Y-113281868D01*
X85723634Y-113281868D02*
X87809819Y-113281868D01*
X87809819Y-113281868D02*
X89265786Y-111825901D01*
X82793024Y-114029891D02*
X80864400Y-114029891D01*
X83541047Y-113281868D02*
X82793024Y-114029891D01*
%TO.N,/MOSI*%
X108989778Y-110693137D02*
X114464905Y-110693137D01*
X114464905Y-110693137D02*
X115739183Y-109418859D01*
X107857014Y-111825901D02*
X108989778Y-110693137D01*
X96885786Y-111825901D02*
X107857014Y-111825901D01*
%TO.N,/MISO*%
X105487229Y-106878859D02*
X113199183Y-106878859D01*
X101292190Y-109285901D02*
X104593231Y-105984861D01*
X104593231Y-105984861D02*
X105487229Y-106878859D01*
X96885786Y-109285901D02*
X101292190Y-109285901D01*
%TO.N,/SCK*%
X107390330Y-110700901D02*
X108667914Y-109423317D01*
X113194725Y-109423317D02*
X113199183Y-109418859D01*
X95529818Y-110060036D02*
X96170683Y-110700901D01*
X108667914Y-109423317D02*
X113194725Y-109423317D01*
X95529818Y-108101869D02*
X95529818Y-110060036D01*
X96170683Y-110700901D02*
X107390330Y-110700901D01*
X96885786Y-106745901D02*
X95529818Y-108101869D01*
%TO.N,/BATT_SENSE*%
X111588612Y-98241683D02*
X111602067Y-98255138D01*
X106916570Y-88965901D02*
X111588612Y-93637943D01*
X96885786Y-88965901D02*
X106916570Y-88965901D01*
X111588612Y-95345355D02*
X111588612Y-98241683D01*
X111588612Y-93637943D02*
X111588612Y-95345355D01*
%TO.N,/SDA*%
X106906142Y-85745461D02*
X107522846Y-85745461D01*
X101511103Y-86425901D02*
X101513533Y-86428331D01*
X96885786Y-86425901D02*
X101511103Y-86425901D01*
X101513533Y-86428331D02*
X106223272Y-86428331D01*
X106223272Y-86428331D02*
X106906142Y-85745461D01*
X107522846Y-85745461D02*
X107528286Y-85750901D01*
%TO.N,/SCL*%
X96885786Y-83885901D02*
X103347887Y-83885901D01*
X108453286Y-86075901D02*
X107528286Y-87000901D01*
X108453286Y-84189505D02*
X108453286Y-86075901D01*
X104754698Y-85292712D02*
X106121509Y-83925901D01*
X103347887Y-83885901D02*
X104754698Y-85292712D01*
X106121509Y-83925901D02*
X108189682Y-83925901D01*
X108189682Y-83925901D02*
X108453286Y-84189505D01*
%TO.N,Net-(D1-Pad2)*%
X108242793Y-98331455D02*
X108242793Y-99753200D01*
X108667914Y-101803317D02*
X108667914Y-100178321D01*
X108667914Y-100178321D02*
X108242793Y-99753200D01*
%TO.N,Net-(D2-Pad2)*%
X107227819Y-113627343D02*
X107239294Y-113638818D01*
X104615713Y-113627343D02*
X107227819Y-113627343D01*
D43*
%TO.N,Net-(J2-Pad2)*%
X149599954Y-101095072D02*
X149296792Y-100791910D01*
X149599954Y-104639221D02*
X149599954Y-101095072D01*
X149296792Y-100791910D02*
X149296792Y-98244584D01*
%TO.N,Net-(J1-Pad2)*%
X163301910Y-102370639D02*
X162293733Y-101362462D01*
X162293733Y-101362462D02*
X162293733Y-98084236D01*
X163301910Y-104761022D02*
X163301910Y-102370639D01*
D41*
%TO.N,/SLEEP*%
X87414026Y-92194141D02*
X89265786Y-94045901D01*
X87414026Y-91354211D02*
X87414026Y-92194141D01*
X79868500Y-87153506D02*
X83213321Y-87153506D01*
X84939322Y-88879507D02*
X87414026Y-91354211D01*
X83213321Y-87153506D02*
X84939322Y-88879507D01*
%TO.N,+5V*%
X120095534Y-102342389D02*
X127078479Y-95359444D01*
D40*
X136170113Y-95359444D02*
X138809860Y-97999191D01*
X127078479Y-95359444D02*
X136170113Y-95359444D01*
D41*
X120095534Y-104530843D02*
X120095534Y-102342389D01*
%TO.N,Net-(C5-Pad1)*%
X110435842Y-85750901D02*
X114213445Y-89528504D01*
X109828286Y-85750901D02*
X110435842Y-85750901D01*
%TO.N,/+VGPS*%
X85723634Y-118361868D02*
X84623634Y-118361868D01*
X82291657Y-116029891D02*
X80864400Y-116029891D01*
X118176782Y-106827658D02*
X119173597Y-105830843D01*
X118176782Y-116735009D02*
X118176782Y-106827658D01*
X114618326Y-120293465D02*
X118176782Y-116735009D01*
X85723634Y-118572965D02*
X87444134Y-120293465D01*
X119173597Y-105830843D02*
X120095534Y-105830843D01*
X85723634Y-118361868D02*
X85723634Y-118572965D01*
X84623634Y-118361868D02*
X82291657Y-116029891D01*
X87444134Y-120293465D02*
X114618326Y-120293465D01*
%TO.N,Net-(C2-Pad1)*%
X87617264Y-105097379D02*
X89265786Y-106745901D01*
X87617264Y-104100107D02*
X87617264Y-105097379D01*
X80513002Y-103459663D02*
X84479108Y-103459663D01*
X85727964Y-102210807D02*
X87617264Y-104100107D01*
X84479108Y-103459663D02*
X85727964Y-102210807D01*
%TO.N,VDD*%
X163301910Y-114767579D02*
X164351910Y-115817579D01*
D43*
X149599954Y-107139221D02*
X150319221Y-107139221D01*
X153751259Y-110571259D02*
X158997579Y-115817579D01*
D41*
X149917000Y-107258056D02*
X149972418Y-107202638D01*
D43*
X158997579Y-115817579D02*
X164351910Y-115817579D01*
D42*
X163301910Y-109000000D02*
X163301910Y-114000000D01*
D41*
X149889366Y-107285690D02*
X149972418Y-107202638D01*
D42*
X164351910Y-114000000D02*
X174113686Y-114000000D01*
D43*
X163301910Y-107261022D02*
X163301910Y-107421910D01*
X135088573Y-107098140D02*
X149558873Y-107098140D01*
X150319221Y-107139221D02*
X153751259Y-110571259D01*
X149558873Y-107098140D02*
X149599954Y-107139221D01*
D42*
X174113686Y-114000000D02*
X177745321Y-119449214D01*
D41*
%TO.N,/A0*%
X104028624Y-94526775D02*
X104485516Y-94069883D01*
X96885786Y-96573774D02*
X98932785Y-94526775D01*
X98932785Y-94526775D02*
X104028624Y-94526775D01*
X96885786Y-96585901D02*
X96885786Y-96573774D01*
X104485516Y-91882152D02*
X105732786Y-90634882D01*
X104485516Y-94069883D02*
X104485516Y-91882152D01*
%TO.N,/A1*%
X96885786Y-94045901D02*
X98931805Y-91999882D01*
X101827786Y-91999882D02*
X103192786Y-90634882D01*
X98931805Y-91999882D02*
X101827786Y-91999882D01*
%TO.N,/A2*%
X97757440Y-90634247D02*
X98193747Y-90634247D01*
X98194382Y-90634882D02*
X100652786Y-90634882D01*
X98193747Y-90634247D02*
X98194382Y-90634882D01*
X96885786Y-91505901D02*
X97757440Y-90634247D01*
%TD*%
M02*
