M48
; DRILL file {KiCad (6.0.7)} date Mon Oct 24 19:11:26 2022
; FORMAT={-:-/ absolute / inch / decimal}
; #@! TF.CreationDate,2022-10-24T19:11:26-05:00
; #@! TF.GenerationSoftware,Kicad,Pcbnew,(6.0.7)
; #@! TF.FileFunction,Plated,1,2,PTH
FMAT,2
INCH
; #@! TA.AperFunction,Plated,PTH,ViaDrill
T1C0.0157
; #@! TA.AperFunction,Plated,PTH,ComponentDrill
T2C0.0197
; #@! TA.AperFunction,Plated,PTH,ComponentDrill
T3C0.0276
; #@! TA.AperFunction,Plated,PTH,ComponentDrill
T4C0.0295
; #@! TA.AperFunction,Plated,PTH,ComponentDrill
T5C0.0315
; #@! TA.AperFunction,Plated,PTH,ComponentDrill
T6C0.0354
; #@! TA.AperFunction,Plated,PTH,ComponentDrill
T7C0.0394
; #@! TA.AperFunction,Plated,PTH,ComponentDrill
T8C0.0402
; #@! TA.AperFunction,Plated,PTH,ComponentDrill
T9C0.0433
%
G90
G05
T1
X3.6648Y-3.4811
T2
X3.1464Y-3.1368
X3.1464Y-3.186
X3.1464Y-3.2352
X3.1464Y-3.2845
X3.1464Y-3.3337
X3.1464Y-3.3829
X3.1464Y-3.4321
X3.1464Y-3.4813
X3.1464Y-3.5305
X3.1464Y-3.5797
T3
X3.5161Y-3.1184
X3.8161Y-3.1184
X3.9727Y-3.1027
X3.9727Y-3.4027
X4.1175Y-4.1735
X4.1175Y-4.4735
X4.1242Y-3.058
X4.1242Y-3.358
X4.2783Y-4.008
X4.2783Y-4.308
X4.3933Y-3.7538
X4.3938Y-3.8683
X4.6933Y-3.7538
X4.6938Y-3.8683
X5.6756Y-4.041
X5.6756Y-4.341
X6.2Y-3.95
X6.2Y-4.25
T4
X5.2037Y-4.5366
X5.2537Y-4.5366
X5.3037Y-4.5366
T5
X3.1928Y-3.8804
X3.1928Y-4.0725
X3.3747Y-3.7299
X3.3747Y-3.9267
X3.3751Y-4.024
X3.3751Y-4.2209
X3.5144Y-3.3026
X3.5144Y-3.4026
X3.5144Y-3.5026
X3.5144Y-3.6026
X3.5144Y-3.7026
X3.5144Y-3.8026
X3.5144Y-3.9026
X3.5144Y-4.0026
X3.5144Y-4.1026
X3.5144Y-4.2026
X3.5144Y-4.3026
X3.5144Y-4.4026
X3.5144Y-4.5026
X3.5144Y-4.6026
X3.8144Y-3.3026
X3.8144Y-3.4026
X3.8144Y-3.5026
X3.8144Y-3.6026
X3.8144Y-3.7026
X3.8144Y-3.8026
X3.8144Y-3.9026
X3.8144Y-4.0026
X3.8144Y-4.1026
X3.8144Y-4.2026
X3.8144Y-4.3026
X3.8144Y-4.4026
X3.8144Y-4.5026
X3.8144Y-4.6026
X3.9624Y-3.806
X3.9624Y-4.1013
X4.4966Y-3.5247
X4.5145Y-3.0667
X4.5145Y-3.362
X4.7793Y-3.0653
X4.7793Y-3.3606
X4.7919Y-3.5247
X4.9567Y-3.2183
X5.002Y-3.8667
X5.002Y-4.162
X5.0023Y-4.2758
X5.0023Y-4.5711
X5.0031Y-3.459
X5.0031Y-3.7543
X5.0354Y-3.2183
X5.4405Y-4.5372
X5.7358Y-4.5372
T6
X4.1615Y-3.8713
X4.2308Y-4.4725
X4.2615Y-3.8713
X4.3308Y-4.4725
T7
X3.3441Y-3.0992
X3.3441Y-3.1992
X3.3441Y-3.2992
X3.3441Y-3.3992
X3.3441Y-3.4992
X3.3441Y-3.5992
X3.3749Y-4.3599
X3.3749Y-4.4599
X3.3749Y-4.5599
X3.3749Y-4.6599
X3.6179Y-4.8371
X3.7163Y-4.8371
X3.9627Y-3.5683
X3.9627Y-3.6683
X3.9712Y-4.6493
X4.0627Y-3.5683
X4.0627Y-3.6683
X4.0712Y-4.6493
X4.1627Y-3.5683
X4.1627Y-3.6683
X4.1712Y-4.6493
X4.2712Y-4.6493
X4.3712Y-4.6493
X4.4567Y-4.2078
X4.4567Y-4.3078
X4.4567Y-4.4078
X4.4712Y-4.6493
X4.5567Y-4.2078
X4.5567Y-4.3078
X4.5567Y-4.4078
X5.3184Y-4.118
X5.3184Y-4.2165
X5.8898Y-4.1197
X5.8898Y-4.2181
X6.4292Y-4.1244
X6.4292Y-4.2229
X6.4705Y-4.5597
X6.4705Y-4.6582
T8
X6.9978Y-3.2145
X6.9978Y-4.7027
X7.7685Y-3.2144
X7.7685Y-4.7026
X8.5318Y-3.2145
X8.5318Y-4.7027
T9
X5.265Y-3.8616
X5.365Y-3.8616
X5.465Y-3.8616
X5.7778Y-3.8616
X5.8778Y-3.8616
X5.9778Y-3.8616
X6.2895Y-3.8616
X6.3895Y-3.8616
X6.4895Y-3.8616
T0
M30
