%TF.GenerationSoftware,KiCad,Pcbnew,(6.0.7)*%
%TF.CreationDate,2022-10-24T19:11:27-05:00*%
%TF.ProjectId,cut down control board,63757420-646f-4776-9e20-636f6e74726f,1*%
%TF.SameCoordinates,Original*%
%TF.FileFunction,Drillmap*%
%TF.FilePolarity,Positive*%
%FSLAX45Y45*%
G04 Gerber Fmt 4.5, Leading zero omitted, Abs format (unit mm)*
G04 Created by KiCad (PCBNEW (6.0.7)) date 2022-10-24 19:11:27*
%MOMM*%
%LPD*%
G01*
G04 APERTURE LIST*
%ADD10C,0.100000*%
%ADD11C,0.200000*%
%ADD12C,0.264000*%
%ADD13C,0.350000*%
%ADD14C,0.430000*%
G04 APERTURE END LIST*
D10*
X7558119Y-6779038D02*
X22800403Y-6779038D01*
X22800403Y-6779038D02*
X22800403Y-13144880D01*
X22800403Y-13144880D02*
X7558119Y-13144880D01*
X7558119Y-13144880D02*
X7558119Y-6779038D01*
D11*
D12*
X16832532Y-11812921D02*
X17096532Y-12076921D01*
X17096532Y-11812921D02*
X16832532Y-12076921D01*
X20410032Y-8032613D02*
X20674032Y-8296613D01*
X20674032Y-8032613D02*
X20410032Y-8296613D01*
X20728775Y-11812921D02*
X20992775Y-12076921D01*
X20992775Y-11812921D02*
X20728775Y-12076921D01*
D13*
X13801986Y-8142424D02*
G75*
G03*
X13801986Y-8142424I-175000J0D01*
G01*
X15104679Y-8142424D02*
G75*
G03*
X15104679Y-8142424I-175000J0D01*
G01*
X16404373Y-8142424D02*
G75*
G03*
X16404373Y-8142424I-175000J0D01*
G01*
D14*
X8071679Y-7012758D02*
X8071679Y-7442758D01*
X7856679Y-7227758D02*
X8286679Y-7227758D01*
X8071679Y-12411612D02*
X8071679Y-12841612D01*
X7856679Y-12626612D02*
X8286679Y-12626612D01*
X15183679Y-7012758D02*
X15183679Y-7442758D01*
X14968679Y-7227758D02*
X15398679Y-7227758D01*
X15183679Y-12411612D02*
X15183679Y-12841612D01*
X14968679Y-12626612D02*
X15398679Y-12626612D01*
X22295679Y-7012758D02*
X22295679Y-7442758D01*
X22080679Y-7227758D02*
X22510679Y-7227758D01*
X22295679Y-12411612D02*
X22295679Y-12841612D01*
X22080679Y-12626612D02*
X22510679Y-12626612D01*
D11*
X7810738Y-13460356D02*
X7810738Y-13260356D01*
X7858357Y-13260356D01*
X7886928Y-13269880D01*
X7905976Y-13288928D01*
X7915500Y-13307975D01*
X7925024Y-13346070D01*
X7925024Y-13374642D01*
X7915500Y-13412737D01*
X7905976Y-13431785D01*
X7886928Y-13450832D01*
X7858357Y-13460356D01*
X7810738Y-13460356D01*
X8010738Y-13460356D02*
X8010738Y-13327023D01*
X8010738Y-13365118D02*
X8020262Y-13346070D01*
X8029785Y-13336547D01*
X8048833Y-13327023D01*
X8067881Y-13327023D01*
X8134547Y-13460356D02*
X8134547Y-13327023D01*
X8134547Y-13260356D02*
X8125024Y-13269880D01*
X8134547Y-13279404D01*
X8144071Y-13269880D01*
X8134547Y-13260356D01*
X8134547Y-13279404D01*
X8258357Y-13460356D02*
X8239309Y-13450832D01*
X8229785Y-13431785D01*
X8229785Y-13260356D01*
X8363119Y-13460356D02*
X8344071Y-13450832D01*
X8334547Y-13431785D01*
X8334547Y-13260356D01*
X8591690Y-13460356D02*
X8591690Y-13260356D01*
X8658357Y-13403213D01*
X8725024Y-13260356D01*
X8725024Y-13460356D01*
X8905976Y-13460356D02*
X8905976Y-13355594D01*
X8896452Y-13336547D01*
X8877405Y-13327023D01*
X8839309Y-13327023D01*
X8820262Y-13336547D01*
X8905976Y-13450832D02*
X8886928Y-13460356D01*
X8839309Y-13460356D01*
X8820262Y-13450832D01*
X8810738Y-13431785D01*
X8810738Y-13412737D01*
X8820262Y-13393690D01*
X8839309Y-13384166D01*
X8886928Y-13384166D01*
X8905976Y-13374642D01*
X9001214Y-13327023D02*
X9001214Y-13527023D01*
X9001214Y-13336547D02*
X9020262Y-13327023D01*
X9058357Y-13327023D01*
X9077405Y-13336547D01*
X9086928Y-13346070D01*
X9096452Y-13365118D01*
X9096452Y-13422261D01*
X9086928Y-13441309D01*
X9077405Y-13450832D01*
X9058357Y-13460356D01*
X9020262Y-13460356D01*
X9001214Y-13450832D01*
X9182167Y-13441309D02*
X9191690Y-13450832D01*
X9182167Y-13460356D01*
X9172643Y-13450832D01*
X9182167Y-13441309D01*
X9182167Y-13460356D01*
X9182167Y-13336547D02*
X9191690Y-13346070D01*
X9182167Y-13355594D01*
X9172643Y-13346070D01*
X9182167Y-13336547D01*
X9182167Y-13355594D01*
X7353119Y-13689880D02*
X7553119Y-13889880D01*
X7553119Y-13689880D02*
X7353119Y-13889880D01*
X7801214Y-13699404D02*
X7810738Y-13689880D01*
X7829785Y-13680356D01*
X7877405Y-13680356D01*
X7896452Y-13689880D01*
X7905976Y-13699404D01*
X7915500Y-13718451D01*
X7915500Y-13737499D01*
X7905976Y-13766070D01*
X7791690Y-13880356D01*
X7915500Y-13880356D01*
X8001214Y-13861309D02*
X8010738Y-13870832D01*
X8001214Y-13880356D01*
X7991690Y-13870832D01*
X8001214Y-13861309D01*
X8001214Y-13880356D01*
X8182166Y-13680356D02*
X8144071Y-13680356D01*
X8125024Y-13689880D01*
X8115500Y-13699404D01*
X8096452Y-13727975D01*
X8086928Y-13766070D01*
X8086928Y-13842261D01*
X8096452Y-13861309D01*
X8105976Y-13870832D01*
X8125024Y-13880356D01*
X8163119Y-13880356D01*
X8182166Y-13870832D01*
X8191690Y-13861309D01*
X8201214Y-13842261D01*
X8201214Y-13794642D01*
X8191690Y-13775594D01*
X8182166Y-13766070D01*
X8163119Y-13756547D01*
X8125024Y-13756547D01*
X8105976Y-13766070D01*
X8096452Y-13775594D01*
X8086928Y-13794642D01*
X8372643Y-13747023D02*
X8372643Y-13880356D01*
X8325024Y-13670832D02*
X8277405Y-13813690D01*
X8401214Y-13813690D01*
X8515500Y-13680356D02*
X8534547Y-13680356D01*
X8553595Y-13689880D01*
X8563119Y-13699404D01*
X8572643Y-13718451D01*
X8582167Y-13756547D01*
X8582167Y-13804166D01*
X8572643Y-13842261D01*
X8563119Y-13861309D01*
X8553595Y-13870832D01*
X8534547Y-13880356D01*
X8515500Y-13880356D01*
X8496452Y-13870832D01*
X8486928Y-13861309D01*
X8477405Y-13842261D01*
X8467881Y-13804166D01*
X8467881Y-13756547D01*
X8477405Y-13718451D01*
X8486928Y-13699404D01*
X8496452Y-13689880D01*
X8515500Y-13680356D01*
X8667881Y-13880356D02*
X8667881Y-13747023D01*
X8667881Y-13766070D02*
X8677405Y-13756547D01*
X8696452Y-13747023D01*
X8725024Y-13747023D01*
X8744071Y-13756547D01*
X8753595Y-13775594D01*
X8753595Y-13880356D01*
X8753595Y-13775594D02*
X8763119Y-13756547D01*
X8782167Y-13747023D01*
X8810738Y-13747023D01*
X8829786Y-13756547D01*
X8839309Y-13775594D01*
X8839309Y-13880356D01*
X8934547Y-13880356D02*
X8934547Y-13747023D01*
X8934547Y-13766070D02*
X8944071Y-13756547D01*
X8963119Y-13747023D01*
X8991690Y-13747023D01*
X9010738Y-13756547D01*
X9020262Y-13775594D01*
X9020262Y-13880356D01*
X9020262Y-13775594D02*
X9029786Y-13756547D01*
X9048833Y-13747023D01*
X9077405Y-13747023D01*
X9096452Y-13756547D01*
X9105976Y-13775594D01*
X9105976Y-13880356D01*
X9496452Y-13670832D02*
X9325024Y-13927975D01*
X9753595Y-13680356D02*
X9772643Y-13680356D01*
X9791690Y-13689880D01*
X9801214Y-13699404D01*
X9810738Y-13718451D01*
X9820262Y-13756547D01*
X9820262Y-13804166D01*
X9810738Y-13842261D01*
X9801214Y-13861309D01*
X9791690Y-13870832D01*
X9772643Y-13880356D01*
X9753595Y-13880356D01*
X9734547Y-13870832D01*
X9725024Y-13861309D01*
X9715500Y-13842261D01*
X9705976Y-13804166D01*
X9705976Y-13756547D01*
X9715500Y-13718451D01*
X9725024Y-13699404D01*
X9734547Y-13689880D01*
X9753595Y-13680356D01*
X9905976Y-13861309D02*
X9915500Y-13870832D01*
X9905976Y-13880356D01*
X9896452Y-13870832D01*
X9905976Y-13861309D01*
X9905976Y-13880356D01*
X10105976Y-13880356D02*
X9991690Y-13880356D01*
X10048833Y-13880356D02*
X10048833Y-13680356D01*
X10029786Y-13708928D01*
X10010738Y-13727975D01*
X9991690Y-13737499D01*
X10229786Y-13680356D02*
X10248833Y-13680356D01*
X10267881Y-13689880D01*
X10277405Y-13699404D01*
X10286928Y-13718451D01*
X10296452Y-13756547D01*
X10296452Y-13804166D01*
X10286928Y-13842261D01*
X10277405Y-13861309D01*
X10267881Y-13870832D01*
X10248833Y-13880356D01*
X10229786Y-13880356D01*
X10210738Y-13870832D01*
X10201214Y-13861309D01*
X10191690Y-13842261D01*
X10182167Y-13804166D01*
X10182167Y-13756547D01*
X10191690Y-13718451D01*
X10201214Y-13699404D01*
X10210738Y-13689880D01*
X10229786Y-13680356D01*
X10363119Y-13680356D02*
X10486928Y-13680356D01*
X10420262Y-13756547D01*
X10448833Y-13756547D01*
X10467881Y-13766070D01*
X10477405Y-13775594D01*
X10486928Y-13794642D01*
X10486928Y-13842261D01*
X10477405Y-13861309D01*
X10467881Y-13870832D01*
X10448833Y-13880356D01*
X10391690Y-13880356D01*
X10372643Y-13870832D01*
X10363119Y-13861309D01*
X10582167Y-13880356D02*
X10620262Y-13880356D01*
X10639309Y-13870832D01*
X10648833Y-13861309D01*
X10667881Y-13832737D01*
X10677405Y-13794642D01*
X10677405Y-13718451D01*
X10667881Y-13699404D01*
X10658357Y-13689880D01*
X10639309Y-13680356D01*
X10601214Y-13680356D01*
X10582167Y-13689880D01*
X10572643Y-13699404D01*
X10563119Y-13718451D01*
X10563119Y-13766070D01*
X10572643Y-13785118D01*
X10582167Y-13794642D01*
X10601214Y-13804166D01*
X10639309Y-13804166D01*
X10658357Y-13794642D01*
X10667881Y-13785118D01*
X10677405Y-13766070D01*
X10753595Y-13680356D02*
X10753595Y-13718451D01*
X10829786Y-13680356D02*
X10829786Y-13718451D01*
X11125024Y-13956547D02*
X11115500Y-13947023D01*
X11096452Y-13918451D01*
X11086928Y-13899404D01*
X11077405Y-13870832D01*
X11067881Y-13823213D01*
X11067881Y-13785118D01*
X11077405Y-13737499D01*
X11086928Y-13708928D01*
X11096452Y-13689880D01*
X11115500Y-13661309D01*
X11125024Y-13651785D01*
X11182167Y-13680356D02*
X11305976Y-13680356D01*
X11239309Y-13756547D01*
X11267881Y-13756547D01*
X11286928Y-13766070D01*
X11296452Y-13775594D01*
X11305976Y-13794642D01*
X11305976Y-13842261D01*
X11296452Y-13861309D01*
X11286928Y-13870832D01*
X11267881Y-13880356D01*
X11210738Y-13880356D01*
X11191690Y-13870832D01*
X11182167Y-13861309D01*
X11544071Y-13880356D02*
X11544071Y-13680356D01*
X11629785Y-13880356D02*
X11629785Y-13775594D01*
X11620262Y-13756547D01*
X11601214Y-13747023D01*
X11572643Y-13747023D01*
X11553595Y-13756547D01*
X11544071Y-13766070D01*
X11753595Y-13880356D02*
X11734547Y-13870832D01*
X11725024Y-13861309D01*
X11715500Y-13842261D01*
X11715500Y-13785118D01*
X11725024Y-13766070D01*
X11734547Y-13756547D01*
X11753595Y-13747023D01*
X11782166Y-13747023D01*
X11801214Y-13756547D01*
X11810738Y-13766070D01*
X11820262Y-13785118D01*
X11820262Y-13842261D01*
X11810738Y-13861309D01*
X11801214Y-13870832D01*
X11782166Y-13880356D01*
X11753595Y-13880356D01*
X11934547Y-13880356D02*
X11915500Y-13870832D01*
X11905976Y-13851785D01*
X11905976Y-13680356D01*
X12086928Y-13870832D02*
X12067881Y-13880356D01*
X12029785Y-13880356D01*
X12010738Y-13870832D01*
X12001214Y-13851785D01*
X12001214Y-13775594D01*
X12010738Y-13756547D01*
X12029785Y-13747023D01*
X12067881Y-13747023D01*
X12086928Y-13756547D01*
X12096452Y-13775594D01*
X12096452Y-13794642D01*
X12001214Y-13813690D01*
X12172643Y-13870832D02*
X12191690Y-13880356D01*
X12229785Y-13880356D01*
X12248833Y-13870832D01*
X12258357Y-13851785D01*
X12258357Y-13842261D01*
X12248833Y-13823213D01*
X12229785Y-13813690D01*
X12201214Y-13813690D01*
X12182166Y-13804166D01*
X12172643Y-13785118D01*
X12172643Y-13775594D01*
X12182166Y-13756547D01*
X12201214Y-13747023D01*
X12229785Y-13747023D01*
X12248833Y-13756547D01*
X12325024Y-13956547D02*
X12334547Y-13947023D01*
X12353595Y-13918451D01*
X12363119Y-13899404D01*
X12372643Y-13870832D01*
X12382166Y-13823213D01*
X12382166Y-13785118D01*
X12372643Y-13737499D01*
X12363119Y-13708928D01*
X12353595Y-13689880D01*
X12334547Y-13661309D01*
X12325024Y-13651785D01*
X12686928Y-13956547D02*
X12677405Y-13947023D01*
X12658357Y-13918451D01*
X12648833Y-13899404D01*
X12639309Y-13870832D01*
X12629785Y-13823213D01*
X12629785Y-13785118D01*
X12639309Y-13737499D01*
X12648833Y-13708928D01*
X12658357Y-13689880D01*
X12677405Y-13661309D01*
X12686928Y-13651785D01*
X12763119Y-13747023D02*
X12763119Y-13880356D01*
X12763119Y-13766070D02*
X12772643Y-13756547D01*
X12791690Y-13747023D01*
X12820262Y-13747023D01*
X12839309Y-13756547D01*
X12848833Y-13775594D01*
X12848833Y-13880356D01*
X12972643Y-13880356D02*
X12953595Y-13870832D01*
X12944071Y-13861309D01*
X12934547Y-13842261D01*
X12934547Y-13785118D01*
X12944071Y-13766070D01*
X12953595Y-13756547D01*
X12972643Y-13747023D01*
X13001214Y-13747023D01*
X13020262Y-13756547D01*
X13029785Y-13766070D01*
X13039309Y-13785118D01*
X13039309Y-13842261D01*
X13029785Y-13861309D01*
X13020262Y-13870832D01*
X13001214Y-13880356D01*
X12972643Y-13880356D01*
X13096452Y-13747023D02*
X13172643Y-13747023D01*
X13125024Y-13680356D02*
X13125024Y-13851785D01*
X13134547Y-13870832D01*
X13153595Y-13880356D01*
X13172643Y-13880356D01*
X13391690Y-13747023D02*
X13391690Y-13947023D01*
X13391690Y-13756547D02*
X13410738Y-13747023D01*
X13448833Y-13747023D01*
X13467881Y-13756547D01*
X13477405Y-13766070D01*
X13486928Y-13785118D01*
X13486928Y-13842261D01*
X13477405Y-13861309D01*
X13467881Y-13870832D01*
X13448833Y-13880356D01*
X13410738Y-13880356D01*
X13391690Y-13870832D01*
X13601214Y-13880356D02*
X13582166Y-13870832D01*
X13572643Y-13851785D01*
X13572643Y-13680356D01*
X13763119Y-13880356D02*
X13763119Y-13775594D01*
X13753595Y-13756547D01*
X13734547Y-13747023D01*
X13696452Y-13747023D01*
X13677405Y-13756547D01*
X13763119Y-13870832D02*
X13744071Y-13880356D01*
X13696452Y-13880356D01*
X13677405Y-13870832D01*
X13667881Y-13851785D01*
X13667881Y-13832737D01*
X13677405Y-13813690D01*
X13696452Y-13804166D01*
X13744071Y-13804166D01*
X13763119Y-13794642D01*
X13829785Y-13747023D02*
X13905976Y-13747023D01*
X13858357Y-13680356D02*
X13858357Y-13851785D01*
X13867881Y-13870832D01*
X13886928Y-13880356D01*
X13905976Y-13880356D01*
X14048833Y-13870832D02*
X14029785Y-13880356D01*
X13991690Y-13880356D01*
X13972643Y-13870832D01*
X13963119Y-13851785D01*
X13963119Y-13775594D01*
X13972643Y-13756547D01*
X13991690Y-13747023D01*
X14029785Y-13747023D01*
X14048833Y-13756547D01*
X14058357Y-13775594D01*
X14058357Y-13794642D01*
X13963119Y-13813690D01*
X14229785Y-13880356D02*
X14229785Y-13680356D01*
X14229785Y-13870832D02*
X14210738Y-13880356D01*
X14172643Y-13880356D01*
X14153595Y-13870832D01*
X14144071Y-13861309D01*
X14134547Y-13842261D01*
X14134547Y-13785118D01*
X14144071Y-13766070D01*
X14153595Y-13756547D01*
X14172643Y-13747023D01*
X14210738Y-13747023D01*
X14229785Y-13756547D01*
X14305976Y-13956547D02*
X14315500Y-13947023D01*
X14334547Y-13918451D01*
X14344071Y-13899404D01*
X14353595Y-13870832D01*
X14363119Y-13823213D01*
X14363119Y-13785118D01*
X14353595Y-13737499D01*
X14344071Y-13708928D01*
X14334547Y-13689880D01*
X14315500Y-13661309D01*
X14305976Y-13651785D01*
X7553119Y-14109880D02*
G75*
G03*
X7553119Y-14109880I-100000J0D01*
G01*
X7791690Y-14000356D02*
X7915500Y-14000356D01*
X7848833Y-14076547D01*
X7877405Y-14076547D01*
X7896452Y-14086070D01*
X7905976Y-14095594D01*
X7915500Y-14114642D01*
X7915500Y-14162261D01*
X7905976Y-14181309D01*
X7896452Y-14190832D01*
X7877405Y-14200356D01*
X7820262Y-14200356D01*
X7801214Y-14190832D01*
X7791690Y-14181309D01*
X8001214Y-14181309D02*
X8010738Y-14190832D01*
X8001214Y-14200356D01*
X7991690Y-14190832D01*
X8001214Y-14181309D01*
X8001214Y-14200356D01*
X8191690Y-14000356D02*
X8096452Y-14000356D01*
X8086928Y-14095594D01*
X8096452Y-14086070D01*
X8115500Y-14076547D01*
X8163119Y-14076547D01*
X8182166Y-14086070D01*
X8191690Y-14095594D01*
X8201214Y-14114642D01*
X8201214Y-14162261D01*
X8191690Y-14181309D01*
X8182166Y-14190832D01*
X8163119Y-14200356D01*
X8115500Y-14200356D01*
X8096452Y-14190832D01*
X8086928Y-14181309D01*
X8325024Y-14000356D02*
X8344071Y-14000356D01*
X8363119Y-14009880D01*
X8372643Y-14019404D01*
X8382166Y-14038451D01*
X8391690Y-14076547D01*
X8391690Y-14124166D01*
X8382166Y-14162261D01*
X8372643Y-14181309D01*
X8363119Y-14190832D01*
X8344071Y-14200356D01*
X8325024Y-14200356D01*
X8305976Y-14190832D01*
X8296452Y-14181309D01*
X8286928Y-14162261D01*
X8277405Y-14124166D01*
X8277405Y-14076547D01*
X8286928Y-14038451D01*
X8296452Y-14019404D01*
X8305976Y-14009880D01*
X8325024Y-14000356D01*
X8515500Y-14000356D02*
X8534547Y-14000356D01*
X8553595Y-14009880D01*
X8563119Y-14019404D01*
X8572643Y-14038451D01*
X8582167Y-14076547D01*
X8582167Y-14124166D01*
X8572643Y-14162261D01*
X8563119Y-14181309D01*
X8553595Y-14190832D01*
X8534547Y-14200356D01*
X8515500Y-14200356D01*
X8496452Y-14190832D01*
X8486928Y-14181309D01*
X8477405Y-14162261D01*
X8467881Y-14124166D01*
X8467881Y-14076547D01*
X8477405Y-14038451D01*
X8486928Y-14019404D01*
X8496452Y-14009880D01*
X8515500Y-14000356D01*
X8667881Y-14200356D02*
X8667881Y-14067023D01*
X8667881Y-14086070D02*
X8677405Y-14076547D01*
X8696452Y-14067023D01*
X8725024Y-14067023D01*
X8744071Y-14076547D01*
X8753595Y-14095594D01*
X8753595Y-14200356D01*
X8753595Y-14095594D02*
X8763119Y-14076547D01*
X8782167Y-14067023D01*
X8810738Y-14067023D01*
X8829786Y-14076547D01*
X8839309Y-14095594D01*
X8839309Y-14200356D01*
X8934547Y-14200356D02*
X8934547Y-14067023D01*
X8934547Y-14086070D02*
X8944071Y-14076547D01*
X8963119Y-14067023D01*
X8991690Y-14067023D01*
X9010738Y-14076547D01*
X9020262Y-14095594D01*
X9020262Y-14200356D01*
X9020262Y-14095594D02*
X9029786Y-14076547D01*
X9048833Y-14067023D01*
X9077405Y-14067023D01*
X9096452Y-14076547D01*
X9105976Y-14095594D01*
X9105976Y-14200356D01*
X9496452Y-13990832D02*
X9325024Y-14247975D01*
X9753595Y-14000356D02*
X9772643Y-14000356D01*
X9791690Y-14009880D01*
X9801214Y-14019404D01*
X9810738Y-14038451D01*
X9820262Y-14076547D01*
X9820262Y-14124166D01*
X9810738Y-14162261D01*
X9801214Y-14181309D01*
X9791690Y-14190832D01*
X9772643Y-14200356D01*
X9753595Y-14200356D01*
X9734547Y-14190832D01*
X9725024Y-14181309D01*
X9715500Y-14162261D01*
X9705976Y-14124166D01*
X9705976Y-14076547D01*
X9715500Y-14038451D01*
X9725024Y-14019404D01*
X9734547Y-14009880D01*
X9753595Y-14000356D01*
X9905976Y-14181309D02*
X9915500Y-14190832D01*
X9905976Y-14200356D01*
X9896452Y-14190832D01*
X9905976Y-14181309D01*
X9905976Y-14200356D01*
X10105976Y-14200356D02*
X9991690Y-14200356D01*
X10048833Y-14200356D02*
X10048833Y-14000356D01*
X10029786Y-14028928D01*
X10010738Y-14047975D01*
X9991690Y-14057499D01*
X10172643Y-14000356D02*
X10296452Y-14000356D01*
X10229786Y-14076547D01*
X10258357Y-14076547D01*
X10277405Y-14086070D01*
X10286928Y-14095594D01*
X10296452Y-14114642D01*
X10296452Y-14162261D01*
X10286928Y-14181309D01*
X10277405Y-14190832D01*
X10258357Y-14200356D01*
X10201214Y-14200356D01*
X10182167Y-14190832D01*
X10172643Y-14181309D01*
X10363119Y-14000356D02*
X10496452Y-14000356D01*
X10410738Y-14200356D01*
X10601214Y-14086070D02*
X10582167Y-14076547D01*
X10572643Y-14067023D01*
X10563119Y-14047975D01*
X10563119Y-14038451D01*
X10572643Y-14019404D01*
X10582167Y-14009880D01*
X10601214Y-14000356D01*
X10639309Y-14000356D01*
X10658357Y-14009880D01*
X10667881Y-14019404D01*
X10677405Y-14038451D01*
X10677405Y-14047975D01*
X10667881Y-14067023D01*
X10658357Y-14076547D01*
X10639309Y-14086070D01*
X10601214Y-14086070D01*
X10582167Y-14095594D01*
X10572643Y-14105118D01*
X10563119Y-14124166D01*
X10563119Y-14162261D01*
X10572643Y-14181309D01*
X10582167Y-14190832D01*
X10601214Y-14200356D01*
X10639309Y-14200356D01*
X10658357Y-14190832D01*
X10667881Y-14181309D01*
X10677405Y-14162261D01*
X10677405Y-14124166D01*
X10667881Y-14105118D01*
X10658357Y-14095594D01*
X10639309Y-14086070D01*
X10753595Y-14000356D02*
X10753595Y-14038451D01*
X10829786Y-14000356D02*
X10829786Y-14038451D01*
X11125024Y-14276547D02*
X11115500Y-14267023D01*
X11096452Y-14238451D01*
X11086928Y-14219404D01*
X11077405Y-14190832D01*
X11067881Y-14143213D01*
X11067881Y-14105118D01*
X11077405Y-14057499D01*
X11086928Y-14028928D01*
X11096452Y-14009880D01*
X11115500Y-13981309D01*
X11125024Y-13971785D01*
X11182167Y-14000356D02*
X11305976Y-14000356D01*
X11239309Y-14076547D01*
X11267881Y-14076547D01*
X11286928Y-14086070D01*
X11296452Y-14095594D01*
X11305976Y-14114642D01*
X11305976Y-14162261D01*
X11296452Y-14181309D01*
X11286928Y-14190832D01*
X11267881Y-14200356D01*
X11210738Y-14200356D01*
X11191690Y-14190832D01*
X11182167Y-14181309D01*
X11544071Y-14200356D02*
X11544071Y-14000356D01*
X11629785Y-14200356D02*
X11629785Y-14095594D01*
X11620262Y-14076547D01*
X11601214Y-14067023D01*
X11572643Y-14067023D01*
X11553595Y-14076547D01*
X11544071Y-14086070D01*
X11753595Y-14200356D02*
X11734547Y-14190832D01*
X11725024Y-14181309D01*
X11715500Y-14162261D01*
X11715500Y-14105118D01*
X11725024Y-14086070D01*
X11734547Y-14076547D01*
X11753595Y-14067023D01*
X11782166Y-14067023D01*
X11801214Y-14076547D01*
X11810738Y-14086070D01*
X11820262Y-14105118D01*
X11820262Y-14162261D01*
X11810738Y-14181309D01*
X11801214Y-14190832D01*
X11782166Y-14200356D01*
X11753595Y-14200356D01*
X11934547Y-14200356D02*
X11915500Y-14190832D01*
X11905976Y-14171785D01*
X11905976Y-14000356D01*
X12086928Y-14190832D02*
X12067881Y-14200356D01*
X12029785Y-14200356D01*
X12010738Y-14190832D01*
X12001214Y-14171785D01*
X12001214Y-14095594D01*
X12010738Y-14076547D01*
X12029785Y-14067023D01*
X12067881Y-14067023D01*
X12086928Y-14076547D01*
X12096452Y-14095594D01*
X12096452Y-14114642D01*
X12001214Y-14133690D01*
X12172643Y-14190832D02*
X12191690Y-14200356D01*
X12229785Y-14200356D01*
X12248833Y-14190832D01*
X12258357Y-14171785D01*
X12258357Y-14162261D01*
X12248833Y-14143213D01*
X12229785Y-14133690D01*
X12201214Y-14133690D01*
X12182166Y-14124166D01*
X12172643Y-14105118D01*
X12172643Y-14095594D01*
X12182166Y-14076547D01*
X12201214Y-14067023D01*
X12229785Y-14067023D01*
X12248833Y-14076547D01*
X12325024Y-14276547D02*
X12334547Y-14267023D01*
X12353595Y-14238451D01*
X12363119Y-14219404D01*
X12372643Y-14190832D01*
X12382166Y-14143213D01*
X12382166Y-14105118D01*
X12372643Y-14057499D01*
X12363119Y-14028928D01*
X12353595Y-14009880D01*
X12334547Y-13981309D01*
X12325024Y-13971785D01*
X12686928Y-14276547D02*
X12677405Y-14267023D01*
X12658357Y-14238451D01*
X12648833Y-14219404D01*
X12639309Y-14190832D01*
X12629785Y-14143213D01*
X12629785Y-14105118D01*
X12639309Y-14057499D01*
X12648833Y-14028928D01*
X12658357Y-14009880D01*
X12677405Y-13981309D01*
X12686928Y-13971785D01*
X12763119Y-14067023D02*
X12763119Y-14200356D01*
X12763119Y-14086070D02*
X12772643Y-14076547D01*
X12791690Y-14067023D01*
X12820262Y-14067023D01*
X12839309Y-14076547D01*
X12848833Y-14095594D01*
X12848833Y-14200356D01*
X12972643Y-14200356D02*
X12953595Y-14190832D01*
X12944071Y-14181309D01*
X12934547Y-14162261D01*
X12934547Y-14105118D01*
X12944071Y-14086070D01*
X12953595Y-14076547D01*
X12972643Y-14067023D01*
X13001214Y-14067023D01*
X13020262Y-14076547D01*
X13029785Y-14086070D01*
X13039309Y-14105118D01*
X13039309Y-14162261D01*
X13029785Y-14181309D01*
X13020262Y-14190832D01*
X13001214Y-14200356D01*
X12972643Y-14200356D01*
X13096452Y-14067023D02*
X13172643Y-14067023D01*
X13125024Y-14000356D02*
X13125024Y-14171785D01*
X13134547Y-14190832D01*
X13153595Y-14200356D01*
X13172643Y-14200356D01*
X13391690Y-14067023D02*
X13391690Y-14267023D01*
X13391690Y-14076547D02*
X13410738Y-14067023D01*
X13448833Y-14067023D01*
X13467881Y-14076547D01*
X13477405Y-14086070D01*
X13486928Y-14105118D01*
X13486928Y-14162261D01*
X13477405Y-14181309D01*
X13467881Y-14190832D01*
X13448833Y-14200356D01*
X13410738Y-14200356D01*
X13391690Y-14190832D01*
X13601214Y-14200356D02*
X13582166Y-14190832D01*
X13572643Y-14171785D01*
X13572643Y-14000356D01*
X13763119Y-14200356D02*
X13763119Y-14095594D01*
X13753595Y-14076547D01*
X13734547Y-14067023D01*
X13696452Y-14067023D01*
X13677405Y-14076547D01*
X13763119Y-14190832D02*
X13744071Y-14200356D01*
X13696452Y-14200356D01*
X13677405Y-14190832D01*
X13667881Y-14171785D01*
X13667881Y-14152737D01*
X13677405Y-14133690D01*
X13696452Y-14124166D01*
X13744071Y-14124166D01*
X13763119Y-14114642D01*
X13829785Y-14067023D02*
X13905976Y-14067023D01*
X13858357Y-14000356D02*
X13858357Y-14171785D01*
X13867881Y-14190832D01*
X13886928Y-14200356D01*
X13905976Y-14200356D01*
X14048833Y-14190832D02*
X14029785Y-14200356D01*
X13991690Y-14200356D01*
X13972643Y-14190832D01*
X13963119Y-14171785D01*
X13963119Y-14095594D01*
X13972643Y-14076547D01*
X13991690Y-14067023D01*
X14029785Y-14067023D01*
X14048833Y-14076547D01*
X14058357Y-14095594D01*
X14058357Y-14114642D01*
X13963119Y-14133690D01*
X14229785Y-14200356D02*
X14229785Y-14000356D01*
X14229785Y-14190832D02*
X14210738Y-14200356D01*
X14172643Y-14200356D01*
X14153595Y-14190832D01*
X14144071Y-14181309D01*
X14134547Y-14162261D01*
X14134547Y-14105118D01*
X14144071Y-14086070D01*
X14153595Y-14076547D01*
X14172643Y-14067023D01*
X14210738Y-14067023D01*
X14229785Y-14076547D01*
X14305976Y-14276547D02*
X14315500Y-14267023D01*
X14334547Y-14238451D01*
X14344071Y-14219404D01*
X14353595Y-14190832D01*
X14363119Y-14143213D01*
X14363119Y-14105118D01*
X14353595Y-14057499D01*
X14344071Y-14028928D01*
X14334547Y-14009880D01*
X14315500Y-13981309D01*
X14305976Y-13971785D01*
X7453119Y-14329880D02*
X7453119Y-14529880D01*
X7353119Y-14429880D02*
X7553119Y-14429880D01*
X7896452Y-14387023D02*
X7896452Y-14520356D01*
X7848833Y-14310832D02*
X7801214Y-14453690D01*
X7925024Y-14453690D01*
X8001214Y-14501309D02*
X8010738Y-14510832D01*
X8001214Y-14520356D01*
X7991690Y-14510832D01*
X8001214Y-14501309D01*
X8001214Y-14520356D01*
X8077405Y-14320356D02*
X8201214Y-14320356D01*
X8134547Y-14396547D01*
X8163119Y-14396547D01*
X8182166Y-14406070D01*
X8191690Y-14415594D01*
X8201214Y-14434642D01*
X8201214Y-14482261D01*
X8191690Y-14501309D01*
X8182166Y-14510832D01*
X8163119Y-14520356D01*
X8105976Y-14520356D01*
X8086928Y-14510832D01*
X8077405Y-14501309D01*
X8325024Y-14320356D02*
X8344071Y-14320356D01*
X8363119Y-14329880D01*
X8372643Y-14339404D01*
X8382166Y-14358451D01*
X8391690Y-14396547D01*
X8391690Y-14444166D01*
X8382166Y-14482261D01*
X8372643Y-14501309D01*
X8363119Y-14510832D01*
X8344071Y-14520356D01*
X8325024Y-14520356D01*
X8305976Y-14510832D01*
X8296452Y-14501309D01*
X8286928Y-14482261D01*
X8277405Y-14444166D01*
X8277405Y-14396547D01*
X8286928Y-14358451D01*
X8296452Y-14339404D01*
X8305976Y-14329880D01*
X8325024Y-14320356D01*
X8515500Y-14320356D02*
X8534547Y-14320356D01*
X8553595Y-14329880D01*
X8563119Y-14339404D01*
X8572643Y-14358451D01*
X8582167Y-14396547D01*
X8582167Y-14444166D01*
X8572643Y-14482261D01*
X8563119Y-14501309D01*
X8553595Y-14510832D01*
X8534547Y-14520356D01*
X8515500Y-14520356D01*
X8496452Y-14510832D01*
X8486928Y-14501309D01*
X8477405Y-14482261D01*
X8467881Y-14444166D01*
X8467881Y-14396547D01*
X8477405Y-14358451D01*
X8486928Y-14339404D01*
X8496452Y-14329880D01*
X8515500Y-14320356D01*
X8667881Y-14520356D02*
X8667881Y-14387023D01*
X8667881Y-14406070D02*
X8677405Y-14396547D01*
X8696452Y-14387023D01*
X8725024Y-14387023D01*
X8744071Y-14396547D01*
X8753595Y-14415594D01*
X8753595Y-14520356D01*
X8753595Y-14415594D02*
X8763119Y-14396547D01*
X8782167Y-14387023D01*
X8810738Y-14387023D01*
X8829786Y-14396547D01*
X8839309Y-14415594D01*
X8839309Y-14520356D01*
X8934547Y-14520356D02*
X8934547Y-14387023D01*
X8934547Y-14406070D02*
X8944071Y-14396547D01*
X8963119Y-14387023D01*
X8991690Y-14387023D01*
X9010738Y-14396547D01*
X9020262Y-14415594D01*
X9020262Y-14520356D01*
X9020262Y-14415594D02*
X9029786Y-14396547D01*
X9048833Y-14387023D01*
X9077405Y-14387023D01*
X9096452Y-14396547D01*
X9105976Y-14415594D01*
X9105976Y-14520356D01*
X9496452Y-14310832D02*
X9325024Y-14567975D01*
X9753595Y-14320356D02*
X9772643Y-14320356D01*
X9791690Y-14329880D01*
X9801214Y-14339404D01*
X9810738Y-14358451D01*
X9820262Y-14396547D01*
X9820262Y-14444166D01*
X9810738Y-14482261D01*
X9801214Y-14501309D01*
X9791690Y-14510832D01*
X9772643Y-14520356D01*
X9753595Y-14520356D01*
X9734547Y-14510832D01*
X9725024Y-14501309D01*
X9715500Y-14482261D01*
X9705976Y-14444166D01*
X9705976Y-14396547D01*
X9715500Y-14358451D01*
X9725024Y-14339404D01*
X9734547Y-14329880D01*
X9753595Y-14320356D01*
X9905976Y-14501309D02*
X9915500Y-14510832D01*
X9905976Y-14520356D01*
X9896452Y-14510832D01*
X9905976Y-14501309D01*
X9905976Y-14520356D01*
X10105976Y-14520356D02*
X9991690Y-14520356D01*
X10048833Y-14520356D02*
X10048833Y-14320356D01*
X10029786Y-14348928D01*
X10010738Y-14367975D01*
X9991690Y-14377499D01*
X10277405Y-14320356D02*
X10239309Y-14320356D01*
X10220262Y-14329880D01*
X10210738Y-14339404D01*
X10191690Y-14367975D01*
X10182167Y-14406070D01*
X10182167Y-14482261D01*
X10191690Y-14501309D01*
X10201214Y-14510832D01*
X10220262Y-14520356D01*
X10258357Y-14520356D01*
X10277405Y-14510832D01*
X10286928Y-14501309D01*
X10296452Y-14482261D01*
X10296452Y-14434642D01*
X10286928Y-14415594D01*
X10277405Y-14406070D01*
X10258357Y-14396547D01*
X10220262Y-14396547D01*
X10201214Y-14406070D01*
X10191690Y-14415594D01*
X10182167Y-14434642D01*
X10391690Y-14520356D02*
X10429786Y-14520356D01*
X10448833Y-14510832D01*
X10458357Y-14501309D01*
X10477405Y-14472737D01*
X10486928Y-14434642D01*
X10486928Y-14358451D01*
X10477405Y-14339404D01*
X10467881Y-14329880D01*
X10448833Y-14320356D01*
X10410738Y-14320356D01*
X10391690Y-14329880D01*
X10382167Y-14339404D01*
X10372643Y-14358451D01*
X10372643Y-14406070D01*
X10382167Y-14425118D01*
X10391690Y-14434642D01*
X10410738Y-14444166D01*
X10448833Y-14444166D01*
X10467881Y-14434642D01*
X10477405Y-14425118D01*
X10486928Y-14406070D01*
X10553595Y-14320356D02*
X10677405Y-14320356D01*
X10610738Y-14396547D01*
X10639309Y-14396547D01*
X10658357Y-14406070D01*
X10667881Y-14415594D01*
X10677405Y-14434642D01*
X10677405Y-14482261D01*
X10667881Y-14501309D01*
X10658357Y-14510832D01*
X10639309Y-14520356D01*
X10582167Y-14520356D01*
X10563119Y-14510832D01*
X10553595Y-14501309D01*
X10753595Y-14320356D02*
X10753595Y-14358451D01*
X10829786Y-14320356D02*
X10829786Y-14358451D01*
X11125024Y-14596547D02*
X11115500Y-14587023D01*
X11096452Y-14558451D01*
X11086928Y-14539404D01*
X11077405Y-14510832D01*
X11067881Y-14463213D01*
X11067881Y-14425118D01*
X11077405Y-14377499D01*
X11086928Y-14348928D01*
X11096452Y-14329880D01*
X11115500Y-14301309D01*
X11125024Y-14291785D01*
X11286928Y-14320356D02*
X11248833Y-14320356D01*
X11229785Y-14329880D01*
X11220262Y-14339404D01*
X11201214Y-14367975D01*
X11191690Y-14406070D01*
X11191690Y-14482261D01*
X11201214Y-14501309D01*
X11210738Y-14510832D01*
X11229785Y-14520356D01*
X11267881Y-14520356D01*
X11286928Y-14510832D01*
X11296452Y-14501309D01*
X11305976Y-14482261D01*
X11305976Y-14434642D01*
X11296452Y-14415594D01*
X11286928Y-14406070D01*
X11267881Y-14396547D01*
X11229785Y-14396547D01*
X11210738Y-14406070D01*
X11201214Y-14415594D01*
X11191690Y-14434642D01*
X11544071Y-14520356D02*
X11544071Y-14320356D01*
X11629785Y-14520356D02*
X11629785Y-14415594D01*
X11620262Y-14396547D01*
X11601214Y-14387023D01*
X11572643Y-14387023D01*
X11553595Y-14396547D01*
X11544071Y-14406070D01*
X11753595Y-14520356D02*
X11734547Y-14510832D01*
X11725024Y-14501309D01*
X11715500Y-14482261D01*
X11715500Y-14425118D01*
X11725024Y-14406070D01*
X11734547Y-14396547D01*
X11753595Y-14387023D01*
X11782166Y-14387023D01*
X11801214Y-14396547D01*
X11810738Y-14406070D01*
X11820262Y-14425118D01*
X11820262Y-14482261D01*
X11810738Y-14501309D01*
X11801214Y-14510832D01*
X11782166Y-14520356D01*
X11753595Y-14520356D01*
X11934547Y-14520356D02*
X11915500Y-14510832D01*
X11905976Y-14491785D01*
X11905976Y-14320356D01*
X12086928Y-14510832D02*
X12067881Y-14520356D01*
X12029785Y-14520356D01*
X12010738Y-14510832D01*
X12001214Y-14491785D01*
X12001214Y-14415594D01*
X12010738Y-14396547D01*
X12029785Y-14387023D01*
X12067881Y-14387023D01*
X12086928Y-14396547D01*
X12096452Y-14415594D01*
X12096452Y-14434642D01*
X12001214Y-14453690D01*
X12172643Y-14510832D02*
X12191690Y-14520356D01*
X12229785Y-14520356D01*
X12248833Y-14510832D01*
X12258357Y-14491785D01*
X12258357Y-14482261D01*
X12248833Y-14463213D01*
X12229785Y-14453690D01*
X12201214Y-14453690D01*
X12182166Y-14444166D01*
X12172643Y-14425118D01*
X12172643Y-14415594D01*
X12182166Y-14396547D01*
X12201214Y-14387023D01*
X12229785Y-14387023D01*
X12248833Y-14396547D01*
X12325024Y-14596547D02*
X12334547Y-14587023D01*
X12353595Y-14558451D01*
X12363119Y-14539404D01*
X12372643Y-14510832D01*
X12382166Y-14463213D01*
X12382166Y-14425118D01*
X12372643Y-14377499D01*
X12363119Y-14348928D01*
X12353595Y-14329880D01*
X12334547Y-14301309D01*
X12325024Y-14291785D01*
X12686928Y-14596547D02*
X12677405Y-14587023D01*
X12658357Y-14558451D01*
X12648833Y-14539404D01*
X12639309Y-14510832D01*
X12629785Y-14463213D01*
X12629785Y-14425118D01*
X12639309Y-14377499D01*
X12648833Y-14348928D01*
X12658357Y-14329880D01*
X12677405Y-14301309D01*
X12686928Y-14291785D01*
X12763119Y-14387023D02*
X12763119Y-14520356D01*
X12763119Y-14406070D02*
X12772643Y-14396547D01*
X12791690Y-14387023D01*
X12820262Y-14387023D01*
X12839309Y-14396547D01*
X12848833Y-14415594D01*
X12848833Y-14520356D01*
X12972643Y-14520356D02*
X12953595Y-14510832D01*
X12944071Y-14501309D01*
X12934547Y-14482261D01*
X12934547Y-14425118D01*
X12944071Y-14406070D01*
X12953595Y-14396547D01*
X12972643Y-14387023D01*
X13001214Y-14387023D01*
X13020262Y-14396547D01*
X13029785Y-14406070D01*
X13039309Y-14425118D01*
X13039309Y-14482261D01*
X13029785Y-14501309D01*
X13020262Y-14510832D01*
X13001214Y-14520356D01*
X12972643Y-14520356D01*
X13096452Y-14387023D02*
X13172643Y-14387023D01*
X13125024Y-14320356D02*
X13125024Y-14491785D01*
X13134547Y-14510832D01*
X13153595Y-14520356D01*
X13172643Y-14520356D01*
X13391690Y-14387023D02*
X13391690Y-14587023D01*
X13391690Y-14396547D02*
X13410738Y-14387023D01*
X13448833Y-14387023D01*
X13467881Y-14396547D01*
X13477405Y-14406070D01*
X13486928Y-14425118D01*
X13486928Y-14482261D01*
X13477405Y-14501309D01*
X13467881Y-14510832D01*
X13448833Y-14520356D01*
X13410738Y-14520356D01*
X13391690Y-14510832D01*
X13601214Y-14520356D02*
X13582166Y-14510832D01*
X13572643Y-14491785D01*
X13572643Y-14320356D01*
X13763119Y-14520356D02*
X13763119Y-14415594D01*
X13753595Y-14396547D01*
X13734547Y-14387023D01*
X13696452Y-14387023D01*
X13677405Y-14396547D01*
X13763119Y-14510832D02*
X13744071Y-14520356D01*
X13696452Y-14520356D01*
X13677405Y-14510832D01*
X13667881Y-14491785D01*
X13667881Y-14472737D01*
X13677405Y-14453690D01*
X13696452Y-14444166D01*
X13744071Y-14444166D01*
X13763119Y-14434642D01*
X13829785Y-14387023D02*
X13905976Y-14387023D01*
X13858357Y-14320356D02*
X13858357Y-14491785D01*
X13867881Y-14510832D01*
X13886928Y-14520356D01*
X13905976Y-14520356D01*
X14048833Y-14510832D02*
X14029785Y-14520356D01*
X13991690Y-14520356D01*
X13972643Y-14510832D01*
X13963119Y-14491785D01*
X13963119Y-14415594D01*
X13972643Y-14396547D01*
X13991690Y-14387023D01*
X14029785Y-14387023D01*
X14048833Y-14396547D01*
X14058357Y-14415594D01*
X14058357Y-14434642D01*
X13963119Y-14453690D01*
X14229785Y-14520356D02*
X14229785Y-14320356D01*
X14229785Y-14510832D02*
X14210738Y-14520356D01*
X14172643Y-14520356D01*
X14153595Y-14510832D01*
X14144071Y-14501309D01*
X14134547Y-14482261D01*
X14134547Y-14425118D01*
X14144071Y-14406070D01*
X14153595Y-14396547D01*
X14172643Y-14387023D01*
X14210738Y-14387023D01*
X14229785Y-14396547D01*
X14305976Y-14596547D02*
X14315500Y-14587023D01*
X14334547Y-14558451D01*
X14344071Y-14539404D01*
X14353595Y-14510832D01*
X14363119Y-14463213D01*
X14363119Y-14425118D01*
X14353595Y-14377499D01*
X14344071Y-14348928D01*
X14334547Y-14329880D01*
X14315500Y-14301309D01*
X14305976Y-14291785D01*
M02*
