%TF.GenerationSoftware,KiCad,Pcbnew,(6.0.7)*%
%TF.CreationDate,2022-10-11T16:46:08-05:00*%
%TF.ProjectId,cut down control board,63757420-646f-4776-9e20-636f6e74726f,rev?*%
%TF.SameCoordinates,Original*%
%TF.FileFunction,Drillmap*%
%TF.FilePolarity,Positive*%
%FSLAX45Y45*%
G04 Gerber Fmt 4.5, Leading zero omitted, Abs format (unit mm)*
G04 Created by KiCad (PCBNEW (6.0.7)) date 2022-10-11 16:46:08*
%MOMM*%
%LPD*%
G01*
G04 APERTURE LIST*
%ADD10C,0.100000*%
%ADD11C,0.200000*%
%ADD12C,0.040000*%
%ADD13C,0.050000*%
%ADD14C,0.070000*%
%ADD15C,0.075000*%
%ADD16C,0.080000*%
%ADD17C,0.090000*%
%ADD18C,0.102000*%
%ADD19C,0.110000*%
G04 APERTURE END LIST*
D10*
X7558119Y-6779038D02*
X22800403Y-6779038D01*
X22800403Y-6779038D02*
X22800403Y-13144880D01*
X22800403Y-13144880D02*
X7558119Y-13144880D01*
X7558119Y-13144880D02*
X7558119Y-6779038D01*
D11*
D12*
X9288619Y-8821877D02*
X9328619Y-8861877D01*
X9328619Y-8821877D02*
X9288619Y-8861877D01*
D13*
X8011850Y-7965351D02*
G75*
G03*
X8011850Y-7965351I-25000J0D01*
G01*
X8011850Y-8090351D02*
G75*
G03*
X8011850Y-8090351I-25000J0D01*
G01*
X8011850Y-8215351D02*
G75*
G03*
X8011850Y-8215351I-25000J0D01*
G01*
X8011850Y-8340351D02*
G75*
G03*
X8011850Y-8340351I-25000J0D01*
G01*
X8011850Y-8465351D02*
G75*
G03*
X8011850Y-8465351I-25000J0D01*
G01*
X8011850Y-8590351D02*
G75*
G03*
X8011850Y-8590351I-25000J0D01*
G01*
X8011850Y-8715351D02*
G75*
G03*
X8011850Y-8715351I-25000J0D01*
G01*
X8011850Y-8840351D02*
G75*
G03*
X8011850Y-8840351I-25000J0D01*
G01*
X8011850Y-8965351D02*
G75*
G03*
X8011850Y-8965351I-25000J0D01*
G01*
X8011850Y-9090351D02*
G75*
G03*
X8011850Y-9090351I-25000J0D01*
G01*
D14*
X8930993Y-7885744D02*
X8930993Y-7955744D01*
X8895993Y-7920744D02*
X8965993Y-7920744D01*
X9692993Y-7885744D02*
X9692993Y-7955744D01*
X9657993Y-7920744D02*
X9727993Y-7920744D01*
X10090654Y-7845833D02*
X10090654Y-7915833D01*
X10055654Y-7880833D02*
X10125654Y-7880833D01*
X10090654Y-8607833D02*
X10090654Y-8677833D01*
X10055654Y-8642833D02*
X10125654Y-8642833D01*
X10458374Y-10565734D02*
X10458374Y-10635734D01*
X10423374Y-10600734D02*
X10493374Y-10600734D01*
X10458374Y-11327734D02*
X10458374Y-11397734D01*
X10423374Y-11362734D02*
X10493374Y-11362734D01*
X10475470Y-7732271D02*
X10475470Y-7802271D01*
X10440470Y-7767271D02*
X10510470Y-7767271D01*
X10475470Y-8494271D02*
X10475470Y-8564271D01*
X10440470Y-8529271D02*
X10510470Y-8529271D01*
X10866791Y-10145332D02*
X10866791Y-10215332D01*
X10831791Y-10180332D02*
X10901791Y-10180332D01*
X10866791Y-10907332D02*
X10866791Y-10977332D01*
X10831791Y-10942332D02*
X10901791Y-10942332D01*
X11158861Y-9499536D02*
X11158861Y-9569536D01*
X11123861Y-9534536D02*
X11193861Y-9534536D01*
X11160207Y-9790514D02*
X11160207Y-9860514D01*
X11125207Y-9825514D02*
X11195207Y-9825514D01*
X11920861Y-9499536D02*
X11920861Y-9569536D01*
X11885861Y-9534536D02*
X11955861Y-9534536D01*
X11922207Y-9790514D02*
X11922207Y-9860514D01*
X11887207Y-9825514D02*
X11957207Y-9825514D01*
X14416006Y-10229058D02*
X14416006Y-10299058D01*
X14381006Y-10264058D02*
X14451006Y-10264058D01*
X14416006Y-10991058D02*
X14416006Y-11061058D01*
X14381006Y-11026058D02*
X14451006Y-11026058D01*
X15748000Y-9998000D02*
X15748000Y-10068000D01*
X15713000Y-10033000D02*
X15783000Y-10033000D01*
X15748000Y-10760000D02*
X15748000Y-10830000D01*
X15713000Y-10795000D02*
X15783000Y-10795000D01*
D15*
X13243865Y-11549364D02*
X13243865Y-11496330D01*
X13190832Y-11496330D01*
X13190832Y-11549364D01*
X13243865Y-11549364D01*
X13370865Y-11549364D02*
X13370865Y-11496330D01*
X13317832Y-11496330D01*
X13317832Y-11549364D01*
X13370865Y-11549364D01*
X13497865Y-11549364D02*
X13497865Y-11496330D01*
X13444832Y-11496330D01*
X13444832Y-11549364D01*
X13497865Y-11549364D01*
D16*
X8109651Y-9896218D02*
X8149651Y-9856218D01*
X8109651Y-9816218D01*
X8069651Y-9856218D01*
X8109651Y-9896218D01*
X8109651Y-10384218D02*
X8149651Y-10344218D01*
X8109651Y-10304218D01*
X8069651Y-10344218D01*
X8109651Y-10384218D01*
X8571643Y-9513848D02*
X8611643Y-9473848D01*
X8571643Y-9433848D01*
X8531643Y-9473848D01*
X8571643Y-9513848D01*
X8571643Y-10013848D02*
X8611643Y-9973848D01*
X8571643Y-9933848D01*
X8531643Y-9973848D01*
X8571643Y-10013848D01*
X8572796Y-10261081D02*
X8612796Y-10221081D01*
X8572796Y-10181081D01*
X8532796Y-10221081D01*
X8572796Y-10261081D01*
X8572796Y-10761081D02*
X8612796Y-10721081D01*
X8572796Y-10681081D01*
X8532796Y-10721081D01*
X8572796Y-10761081D01*
X8926579Y-8428590D02*
X8966579Y-8388590D01*
X8926579Y-8348590D01*
X8886579Y-8388590D01*
X8926579Y-8428590D01*
X8926579Y-8682590D02*
X8966579Y-8642590D01*
X8926579Y-8602590D01*
X8886579Y-8642590D01*
X8926579Y-8682590D01*
X8926579Y-8936590D02*
X8966579Y-8896590D01*
X8926579Y-8856590D01*
X8886579Y-8896590D01*
X8926579Y-8936590D01*
X8926579Y-9190590D02*
X8966579Y-9150590D01*
X8926579Y-9110590D01*
X8886579Y-9150590D01*
X8926579Y-9190590D01*
X8926579Y-9444590D02*
X8966579Y-9404590D01*
X8926579Y-9364590D01*
X8886579Y-9404590D01*
X8926579Y-9444590D01*
X8926579Y-9698590D02*
X8966579Y-9658590D01*
X8926579Y-9618590D01*
X8886579Y-9658590D01*
X8926579Y-9698590D01*
X8926579Y-9952590D02*
X8966579Y-9912590D01*
X8926579Y-9872590D01*
X8886579Y-9912590D01*
X8926579Y-9952590D01*
X8926579Y-10206590D02*
X8966579Y-10166590D01*
X8926579Y-10126590D01*
X8886579Y-10166590D01*
X8926579Y-10206590D01*
X8926579Y-10460590D02*
X8966579Y-10420590D01*
X8926579Y-10380590D01*
X8886579Y-10420590D01*
X8926579Y-10460590D01*
X8926579Y-10714590D02*
X8966579Y-10674590D01*
X8926579Y-10634590D01*
X8886579Y-10674590D01*
X8926579Y-10714590D01*
X8926579Y-10968590D02*
X8966579Y-10928590D01*
X8926579Y-10888590D01*
X8886579Y-10928590D01*
X8926579Y-10968590D01*
X8926579Y-11222590D02*
X8966579Y-11182590D01*
X8926579Y-11142590D01*
X8886579Y-11182590D01*
X8926579Y-11222590D01*
X8926579Y-11476590D02*
X8966579Y-11436590D01*
X8926579Y-11396590D01*
X8886579Y-11436590D01*
X8926579Y-11476590D01*
X8926579Y-11730590D02*
X8966579Y-11690590D01*
X8926579Y-11650590D01*
X8886579Y-11690590D01*
X8926579Y-11730590D01*
X9688579Y-8428590D02*
X9728579Y-8388590D01*
X9688579Y-8348590D01*
X9648579Y-8388590D01*
X9688579Y-8428590D01*
X9688579Y-8682590D02*
X9728579Y-8642590D01*
X9688579Y-8602590D01*
X9648579Y-8642590D01*
X9688579Y-8682590D01*
X9688579Y-8936590D02*
X9728579Y-8896590D01*
X9688579Y-8856590D01*
X9648579Y-8896590D01*
X9688579Y-8936590D01*
X9688579Y-9190590D02*
X9728579Y-9150590D01*
X9688579Y-9110590D01*
X9648579Y-9150590D01*
X9688579Y-9190590D01*
X9688579Y-9444590D02*
X9728579Y-9404590D01*
X9688579Y-9364590D01*
X9648579Y-9404590D01*
X9688579Y-9444590D01*
X9688579Y-9698590D02*
X9728579Y-9658590D01*
X9688579Y-9618590D01*
X9648579Y-9658590D01*
X9688579Y-9698590D01*
X9688579Y-9952590D02*
X9728579Y-9912590D01*
X9688579Y-9872590D01*
X9648579Y-9912590D01*
X9688579Y-9952590D01*
X9688579Y-10206590D02*
X9728579Y-10166590D01*
X9688579Y-10126590D01*
X9648579Y-10166590D01*
X9688579Y-10206590D01*
X9688579Y-10460590D02*
X9728579Y-10420590D01*
X9688579Y-10380590D01*
X9648579Y-10420590D01*
X9688579Y-10460590D01*
X9688579Y-10714590D02*
X9728579Y-10674590D01*
X9688579Y-10634590D01*
X9648579Y-10674590D01*
X9688579Y-10714590D01*
X9688579Y-10968590D02*
X9728579Y-10928590D01*
X9688579Y-10888590D01*
X9648579Y-10928590D01*
X9688579Y-10968590D01*
X9688579Y-11222590D02*
X9728579Y-11182590D01*
X9688579Y-11142590D01*
X9648579Y-11182590D01*
X9688579Y-11222590D01*
X9688579Y-11476590D02*
X9728579Y-11436590D01*
X9688579Y-11396590D01*
X9648579Y-11436590D01*
X9688579Y-11476590D01*
X9688579Y-11730590D02*
X9728579Y-11690590D01*
X9688579Y-11650590D01*
X9648579Y-11690590D01*
X9688579Y-11730590D01*
X10064387Y-9707200D02*
X10104387Y-9667200D01*
X10064387Y-9627200D01*
X10024387Y-9667200D01*
X10064387Y-9707200D01*
X10064387Y-10457200D02*
X10104387Y-10417200D01*
X10064387Y-10377200D01*
X10024387Y-10417200D01*
X10064387Y-10457200D01*
X11421344Y-8992850D02*
X11461344Y-8952850D01*
X11421344Y-8912850D01*
X11381344Y-8952850D01*
X11421344Y-8992850D01*
X11466953Y-7829358D02*
X11506953Y-7789358D01*
X11466953Y-7749358D01*
X11426953Y-7789358D01*
X11466953Y-7829358D01*
X11466953Y-8579358D02*
X11506953Y-8539358D01*
X11466953Y-8499358D01*
X11426953Y-8539358D01*
X11466953Y-8579358D01*
X12139390Y-7825945D02*
X12179390Y-7785945D01*
X12139390Y-7745945D01*
X12099390Y-7785945D01*
X12139390Y-7825945D01*
X12139390Y-8575945D02*
X12179390Y-8535945D01*
X12139390Y-8495945D01*
X12099390Y-8535945D01*
X12139390Y-8575945D01*
X12171344Y-8992850D02*
X12211344Y-8952850D01*
X12171344Y-8912850D01*
X12131344Y-8952850D01*
X12171344Y-8992850D01*
X12589957Y-8214598D02*
X12629957Y-8174598D01*
X12589957Y-8134598D01*
X12549957Y-8174598D01*
X12589957Y-8214598D01*
X12705120Y-9861358D02*
X12745120Y-9821358D01*
X12705120Y-9781358D01*
X12665120Y-9821358D01*
X12705120Y-9861358D01*
X12705120Y-10611358D02*
X12745120Y-10571358D01*
X12705120Y-10531358D01*
X12665120Y-10571358D01*
X12705120Y-10611358D01*
X12705729Y-10900612D02*
X12745729Y-10860612D01*
X12705729Y-10820612D01*
X12665729Y-10860612D01*
X12705729Y-10900612D01*
X12705729Y-11650612D02*
X12745729Y-11610612D01*
X12705729Y-11570612D01*
X12665729Y-11610612D01*
X12705729Y-11650612D01*
X12707848Y-8825944D02*
X12747848Y-8785944D01*
X12707848Y-8745944D01*
X12667848Y-8785944D01*
X12707848Y-8825944D01*
X12707848Y-9575944D02*
X12747848Y-9535944D01*
X12707848Y-9495944D01*
X12667848Y-9535944D01*
X12707848Y-9575944D01*
X12789957Y-8214598D02*
X12829957Y-8174598D01*
X12789957Y-8134598D01*
X12749957Y-8174598D01*
X12789957Y-8214598D01*
X13818823Y-11564592D02*
X13858823Y-11524592D01*
X13818823Y-11484592D01*
X13778823Y-11524592D01*
X13818823Y-11564592D01*
X14568823Y-11564592D02*
X14608823Y-11524592D01*
X14568823Y-11484592D01*
X14528823Y-11524592D01*
X14568823Y-11564592D01*
D17*
X10525279Y-9788146D02*
X10615279Y-9878146D01*
X10615279Y-9788146D02*
X10525279Y-9878146D01*
X10615279Y-9833146D02*
G75*
G03*
X10615279Y-9833146I-45000J0D01*
G01*
X10701211Y-11315026D02*
X10791211Y-11405026D01*
X10791211Y-11315026D02*
X10701211Y-11405026D01*
X10791211Y-11360026D02*
G75*
G03*
X10791211Y-11360026I-45000J0D01*
G01*
X10779279Y-9788146D02*
X10869279Y-9878146D01*
X10869279Y-9788146D02*
X10779279Y-9878146D01*
X10869279Y-9833146D02*
G75*
G03*
X10869279Y-9833146I-45000J0D01*
G01*
X10955211Y-11315026D02*
X11045211Y-11405026D01*
X11045211Y-11315026D02*
X10955211Y-11405026D01*
X11045211Y-11360026D02*
G75*
G03*
X11045211Y-11360026I-45000J0D01*
G01*
D10*
X8443932Y-7821951D02*
X8543932Y-7921951D01*
X8543932Y-7821951D02*
X8443932Y-7921951D01*
X8493932Y-7821951D02*
X8493932Y-7921951D01*
X8443932Y-7871951D02*
X8543932Y-7871951D01*
X8443932Y-8075951D02*
X8543932Y-8175951D01*
X8543932Y-8075951D02*
X8443932Y-8175951D01*
X8493932Y-8075951D02*
X8493932Y-8175951D01*
X8443932Y-8125951D02*
X8543932Y-8125951D01*
X8443932Y-8329951D02*
X8543932Y-8429951D01*
X8543932Y-8329951D02*
X8443932Y-8429951D01*
X8493932Y-8329951D02*
X8493932Y-8429951D01*
X8443932Y-8379951D02*
X8543932Y-8379951D01*
X8443932Y-8583951D02*
X8543932Y-8683951D01*
X8543932Y-8583951D02*
X8443932Y-8683951D01*
X8493932Y-8583951D02*
X8493932Y-8683951D01*
X8443932Y-8633951D02*
X8543932Y-8633951D01*
X8443932Y-8837951D02*
X8543932Y-8937951D01*
X8543932Y-8837951D02*
X8443932Y-8937951D01*
X8493932Y-8837951D02*
X8493932Y-8937951D01*
X8443932Y-8887951D02*
X8543932Y-8887951D01*
X8443932Y-9091951D02*
X8543932Y-9191951D01*
X8543932Y-9091951D02*
X8443932Y-9191951D01*
X8493932Y-9091951D02*
X8493932Y-9191951D01*
X8443932Y-9141951D02*
X8543932Y-9141951D01*
X8522363Y-11024187D02*
X8622363Y-11124187D01*
X8622363Y-11024187D02*
X8522363Y-11124187D01*
X8572363Y-11024187D02*
X8572363Y-11124187D01*
X8522363Y-11074187D02*
X8622363Y-11074187D01*
X8522363Y-11278187D02*
X8622363Y-11378187D01*
X8622363Y-11278187D02*
X8522363Y-11378187D01*
X8572363Y-11278187D02*
X8572363Y-11378187D01*
X8522363Y-11328187D02*
X8622363Y-11328187D01*
X8522363Y-11532187D02*
X8622363Y-11632187D01*
X8622363Y-11532187D02*
X8522363Y-11632187D01*
X8572363Y-11532187D02*
X8572363Y-11632187D01*
X8522363Y-11582187D02*
X8622363Y-11582187D01*
X8522363Y-11786187D02*
X8622363Y-11886187D01*
X8622363Y-11786187D02*
X8522363Y-11886187D01*
X8572363Y-11786187D02*
X8572363Y-11886187D01*
X8522363Y-11836187D02*
X8622363Y-11836187D01*
X10015279Y-9013488D02*
X10115279Y-9113488D01*
X10115279Y-9013488D02*
X10015279Y-9113488D01*
X10065279Y-9013488D02*
X10065279Y-9113488D01*
X10015279Y-9063488D02*
X10115279Y-9063488D01*
X10015279Y-9267488D02*
X10115279Y-9367488D01*
X10115279Y-9267488D02*
X10015279Y-9367488D01*
X10065279Y-9267488D02*
X10065279Y-9367488D01*
X10015279Y-9317488D02*
X10115279Y-9317488D01*
X10036871Y-11759183D02*
X10136871Y-11859183D01*
X10136871Y-11759183D02*
X10036871Y-11859183D01*
X10086871Y-11759183D02*
X10086871Y-11859183D01*
X10036871Y-11809183D02*
X10136871Y-11809183D01*
X10269279Y-9013488D02*
X10369279Y-9113488D01*
X10369279Y-9013488D02*
X10269279Y-9113488D01*
X10319279Y-9013488D02*
X10319279Y-9113488D01*
X10269279Y-9063488D02*
X10369279Y-9063488D01*
X10269279Y-9267488D02*
X10369279Y-9367488D01*
X10369279Y-9267488D02*
X10269279Y-9367488D01*
X10319279Y-9267488D02*
X10319279Y-9367488D01*
X10269279Y-9317488D02*
X10369279Y-9317488D01*
X10290871Y-11759183D02*
X10390871Y-11859183D01*
X10390871Y-11759183D02*
X10290871Y-11859183D01*
X10340871Y-11759183D02*
X10340871Y-11859183D01*
X10290871Y-11809183D02*
X10390871Y-11809183D01*
X10523279Y-9013488D02*
X10623279Y-9113488D01*
X10623279Y-9013488D02*
X10523279Y-9113488D01*
X10573279Y-9013488D02*
X10573279Y-9113488D01*
X10523279Y-9063488D02*
X10623279Y-9063488D01*
X10523279Y-9267488D02*
X10623279Y-9367488D01*
X10623279Y-9267488D02*
X10523279Y-9367488D01*
X10573279Y-9267488D02*
X10573279Y-9367488D01*
X10523279Y-9317488D02*
X10623279Y-9317488D01*
X10544871Y-11759183D02*
X10644871Y-11859183D01*
X10644871Y-11759183D02*
X10544871Y-11859183D01*
X10594871Y-11759183D02*
X10594871Y-11859183D01*
X10544871Y-11809183D02*
X10644871Y-11809183D01*
X10798871Y-11759183D02*
X10898871Y-11859183D01*
X10898871Y-11759183D02*
X10798871Y-11859183D01*
X10848871Y-11759183D02*
X10848871Y-11859183D01*
X10798871Y-11809183D02*
X10898871Y-11809183D01*
X11052871Y-11759183D02*
X11152871Y-11859183D01*
X11152871Y-11759183D02*
X11052871Y-11859183D01*
X11102871Y-11759183D02*
X11102871Y-11859183D01*
X11052871Y-11809183D02*
X11152871Y-11809183D01*
X11269918Y-10637886D02*
X11369918Y-10737886D01*
X11369918Y-10637886D02*
X11269918Y-10737886D01*
X11319918Y-10637886D02*
X11319918Y-10737886D01*
X11269918Y-10687886D02*
X11369918Y-10687886D01*
X11269918Y-10891886D02*
X11369918Y-10991886D01*
X11369918Y-10891886D02*
X11269918Y-10991886D01*
X11319918Y-10891886D02*
X11319918Y-10991886D01*
X11269918Y-10941886D02*
X11369918Y-10941886D01*
X11269918Y-11145886D02*
X11369918Y-11245886D01*
X11369918Y-11145886D02*
X11269918Y-11245886D01*
X11319918Y-11145886D02*
X11319918Y-11245886D01*
X11269918Y-11195886D02*
X11369918Y-11195886D01*
X11306871Y-11759183D02*
X11406871Y-11859183D01*
X11406871Y-11759183D02*
X11306871Y-11859183D01*
X11356871Y-11759183D02*
X11356871Y-11859183D01*
X11306871Y-11809183D02*
X11406871Y-11809183D01*
X11523918Y-10637886D02*
X11623918Y-10737886D01*
X11623918Y-10637886D02*
X11523918Y-10737886D01*
X11573918Y-10637886D02*
X11573918Y-10737886D01*
X11523918Y-10687886D02*
X11623918Y-10687886D01*
X11523918Y-10891886D02*
X11623918Y-10991886D01*
X11623918Y-10891886D02*
X11523918Y-10991886D01*
X11573918Y-10891886D02*
X11573918Y-10991886D01*
X11523918Y-10941886D02*
X11623918Y-10941886D01*
X11523918Y-11145886D02*
X11623918Y-11245886D01*
X11623918Y-11145886D02*
X11523918Y-11245886D01*
X11573918Y-11145886D02*
X11573918Y-11245886D01*
X11523918Y-11195886D02*
X11623918Y-11195886D01*
X13458857Y-10409814D02*
X13558857Y-10509814D01*
X13558857Y-10409814D02*
X13458857Y-10509814D01*
X13508857Y-10409814D02*
X13508857Y-10509814D01*
X13458857Y-10459814D02*
X13558857Y-10459814D01*
X13458857Y-10659814D02*
X13558857Y-10759814D01*
X13558857Y-10659814D02*
X13458857Y-10759814D01*
X13508857Y-10659814D02*
X13508857Y-10759814D01*
X13458857Y-10709814D02*
X13558857Y-10709814D01*
X14909995Y-10413922D02*
X15009995Y-10513922D01*
X15009995Y-10413922D02*
X14909995Y-10513922D01*
X14959995Y-10413922D02*
X14959995Y-10513922D01*
X14909995Y-10463922D02*
X15009995Y-10463922D01*
X14909995Y-10663922D02*
X15009995Y-10763922D01*
X15009995Y-10663922D02*
X14909995Y-10763922D01*
X14959995Y-10663922D02*
X14959995Y-10763922D01*
X14909995Y-10713922D02*
X15009995Y-10713922D01*
X16280191Y-10426102D02*
X16380191Y-10526102D01*
X16380191Y-10426102D02*
X16280191Y-10526102D01*
X16330191Y-10426102D02*
X16330191Y-10526102D01*
X16280191Y-10476102D02*
X16380191Y-10476102D01*
X16280191Y-10676102D02*
X16380191Y-10776102D01*
X16380191Y-10676102D02*
X16280191Y-10776102D01*
X16330191Y-10676102D02*
X16330191Y-10776102D01*
X16280191Y-10726102D02*
X16380191Y-10726102D01*
D18*
X17723532Y-8113921D02*
X17825532Y-8215921D01*
X17825532Y-8113921D02*
X17723532Y-8215921D01*
X17810595Y-8200984D02*
X17810595Y-8128859D01*
X17738469Y-8128859D01*
X17738469Y-8200984D01*
X17810595Y-8200984D01*
X17723532Y-11893921D02*
X17825532Y-11995921D01*
X17825532Y-11893921D02*
X17723532Y-11995921D01*
X17810595Y-11980984D02*
X17810595Y-11908859D01*
X17738469Y-11908859D01*
X17738469Y-11980984D01*
X17810595Y-11980984D01*
X19681032Y-7999376D02*
X19783032Y-8101376D01*
X19783032Y-7999376D02*
X19681032Y-8101376D01*
X19768095Y-8086439D02*
X19768095Y-8014313D01*
X19695969Y-8014313D01*
X19695969Y-8086439D01*
X19768095Y-8086439D01*
X19681032Y-11779376D02*
X19783032Y-11881376D01*
X19783032Y-11779376D02*
X19681032Y-11881376D01*
X19768095Y-11866439D02*
X19768095Y-11794313D01*
X19695969Y-11794313D01*
X19695969Y-11866439D01*
X19768095Y-11866439D01*
X21619775Y-8113609D02*
X21721775Y-8215609D01*
X21721775Y-8113609D02*
X21619775Y-8215609D01*
X21706838Y-8200672D02*
X21706838Y-8128546D01*
X21634713Y-8128546D01*
X21634713Y-8200672D01*
X21706838Y-8200672D01*
X21619775Y-11893609D02*
X21721775Y-11995609D01*
X21721775Y-11893609D02*
X21619775Y-11995609D01*
X21706838Y-11980672D02*
X21706838Y-11908546D01*
X21634713Y-11908546D01*
X21634713Y-11980672D01*
X21706838Y-11980672D01*
D19*
X13317986Y-9753424D02*
X13427986Y-9863424D01*
X13427986Y-9753424D02*
X13317986Y-9863424D01*
X13372986Y-9863424D02*
X13427986Y-9808424D01*
X13372986Y-9753424D01*
X13317986Y-9808424D01*
X13372986Y-9863424D01*
X13571986Y-9753424D02*
X13681986Y-9863424D01*
X13681986Y-9753424D02*
X13571986Y-9863424D01*
X13626986Y-9863424D02*
X13681986Y-9808424D01*
X13626986Y-9753424D01*
X13571986Y-9808424D01*
X13626986Y-9863424D01*
X13825986Y-9753424D02*
X13935986Y-9863424D01*
X13935986Y-9753424D02*
X13825986Y-9863424D01*
X13880986Y-9863424D02*
X13935986Y-9808424D01*
X13880986Y-9753424D01*
X13825986Y-9808424D01*
X13880986Y-9863424D01*
X14620679Y-9753424D02*
X14730679Y-9863424D01*
X14730679Y-9753424D02*
X14620679Y-9863424D01*
X14675679Y-9863424D02*
X14730679Y-9808424D01*
X14675679Y-9753424D01*
X14620679Y-9808424D01*
X14675679Y-9863424D01*
X14874679Y-9753424D02*
X14984679Y-9863424D01*
X14984679Y-9753424D02*
X14874679Y-9863424D01*
X14929679Y-9863424D02*
X14984679Y-9808424D01*
X14929679Y-9753424D01*
X14874679Y-9808424D01*
X14929679Y-9863424D01*
X15128679Y-9753424D02*
X15238679Y-9863424D01*
X15238679Y-9753424D02*
X15128679Y-9863424D01*
X15183679Y-9863424D02*
X15238679Y-9808424D01*
X15183679Y-9753424D01*
X15128679Y-9808424D01*
X15183679Y-9863424D01*
X15920373Y-9753424D02*
X16030373Y-9863424D01*
X16030373Y-9753424D02*
X15920373Y-9863424D01*
X15975373Y-9863424D02*
X16030373Y-9808424D01*
X15975373Y-9753424D01*
X15920373Y-9808424D01*
X15975373Y-9863424D01*
X16174373Y-9753424D02*
X16284373Y-9863424D01*
X16284373Y-9753424D02*
X16174373Y-9863424D01*
X16229373Y-9863424D02*
X16284373Y-9808424D01*
X16229373Y-9753424D01*
X16174373Y-9808424D01*
X16229373Y-9863424D01*
X16428373Y-9753424D02*
X16538373Y-9863424D01*
X16538373Y-9753424D02*
X16428373Y-9863424D01*
X16483373Y-9863424D02*
X16538373Y-9808424D01*
X16483373Y-9753424D01*
X16428373Y-9808424D01*
X16483373Y-9863424D01*
D11*
X7810738Y-13460356D02*
X7810738Y-13260356D01*
X7858357Y-13260356D01*
X7886928Y-13269880D01*
X7905976Y-13288928D01*
X7915500Y-13307975D01*
X7925024Y-13346070D01*
X7925024Y-13374642D01*
X7915500Y-13412737D01*
X7905976Y-13431785D01*
X7886928Y-13450832D01*
X7858357Y-13460356D01*
X7810738Y-13460356D01*
X8010738Y-13460356D02*
X8010738Y-13327023D01*
X8010738Y-13365118D02*
X8020262Y-13346070D01*
X8029785Y-13336547D01*
X8048833Y-13327023D01*
X8067881Y-13327023D01*
X8134547Y-13460356D02*
X8134547Y-13327023D01*
X8134547Y-13260356D02*
X8125024Y-13269880D01*
X8134547Y-13279404D01*
X8144071Y-13269880D01*
X8134547Y-13260356D01*
X8134547Y-13279404D01*
X8258357Y-13460356D02*
X8239309Y-13450832D01*
X8229785Y-13431785D01*
X8229785Y-13260356D01*
X8363119Y-13460356D02*
X8344071Y-13450832D01*
X8334547Y-13431785D01*
X8334547Y-13260356D01*
X8591690Y-13460356D02*
X8591690Y-13260356D01*
X8658357Y-13403213D01*
X8725024Y-13260356D01*
X8725024Y-13460356D01*
X8905976Y-13460356D02*
X8905976Y-13355594D01*
X8896452Y-13336547D01*
X8877405Y-13327023D01*
X8839309Y-13327023D01*
X8820262Y-13336547D01*
X8905976Y-13450832D02*
X8886928Y-13460356D01*
X8839309Y-13460356D01*
X8820262Y-13450832D01*
X8810738Y-13431785D01*
X8810738Y-13412737D01*
X8820262Y-13393690D01*
X8839309Y-13384166D01*
X8886928Y-13384166D01*
X8905976Y-13374642D01*
X9001214Y-13327023D02*
X9001214Y-13527023D01*
X9001214Y-13336547D02*
X9020262Y-13327023D01*
X9058357Y-13327023D01*
X9077405Y-13336547D01*
X9086928Y-13346070D01*
X9096452Y-13365118D01*
X9096452Y-13422261D01*
X9086928Y-13441309D01*
X9077405Y-13450832D01*
X9058357Y-13460356D01*
X9020262Y-13460356D01*
X9001214Y-13450832D01*
X9182167Y-13441309D02*
X9191690Y-13450832D01*
X9182167Y-13460356D01*
X9172643Y-13450832D01*
X9182167Y-13441309D01*
X9182167Y-13460356D01*
X9182167Y-13336547D02*
X9191690Y-13346070D01*
X9182167Y-13355594D01*
X9172643Y-13346070D01*
X9182167Y-13336547D01*
X9182167Y-13355594D01*
D12*
X7513119Y-13769880D02*
X7553119Y-13809880D01*
X7553119Y-13769880D02*
X7513119Y-13809880D01*
D11*
X7848833Y-13680356D02*
X7867881Y-13680356D01*
X7886928Y-13689880D01*
X7896452Y-13699404D01*
X7905976Y-13718451D01*
X7915500Y-13756547D01*
X7915500Y-13804166D01*
X7905976Y-13842261D01*
X7896452Y-13861309D01*
X7886928Y-13870832D01*
X7867881Y-13880356D01*
X7848833Y-13880356D01*
X7829785Y-13870832D01*
X7820262Y-13861309D01*
X7810738Y-13842261D01*
X7801214Y-13804166D01*
X7801214Y-13756547D01*
X7810738Y-13718451D01*
X7820262Y-13699404D01*
X7829785Y-13689880D01*
X7848833Y-13680356D01*
X8001214Y-13861309D02*
X8010738Y-13870832D01*
X8001214Y-13880356D01*
X7991690Y-13870832D01*
X8001214Y-13861309D01*
X8001214Y-13880356D01*
X8182166Y-13747023D02*
X8182166Y-13880356D01*
X8134547Y-13670832D02*
X8086928Y-13813690D01*
X8210738Y-13813690D01*
X8325024Y-13680356D02*
X8344071Y-13680356D01*
X8363119Y-13689880D01*
X8372643Y-13699404D01*
X8382166Y-13718451D01*
X8391690Y-13756547D01*
X8391690Y-13804166D01*
X8382166Y-13842261D01*
X8372643Y-13861309D01*
X8363119Y-13870832D01*
X8344071Y-13880356D01*
X8325024Y-13880356D01*
X8305976Y-13870832D01*
X8296452Y-13861309D01*
X8286928Y-13842261D01*
X8277405Y-13804166D01*
X8277405Y-13756547D01*
X8286928Y-13718451D01*
X8296452Y-13699404D01*
X8305976Y-13689880D01*
X8325024Y-13680356D01*
X8515500Y-13680356D02*
X8534547Y-13680356D01*
X8553595Y-13689880D01*
X8563119Y-13699404D01*
X8572643Y-13718451D01*
X8582167Y-13756547D01*
X8582167Y-13804166D01*
X8572643Y-13842261D01*
X8563119Y-13861309D01*
X8553595Y-13870832D01*
X8534547Y-13880356D01*
X8515500Y-13880356D01*
X8496452Y-13870832D01*
X8486928Y-13861309D01*
X8477405Y-13842261D01*
X8467881Y-13804166D01*
X8467881Y-13756547D01*
X8477405Y-13718451D01*
X8486928Y-13699404D01*
X8496452Y-13689880D01*
X8515500Y-13680356D01*
X8667881Y-13880356D02*
X8667881Y-13747023D01*
X8667881Y-13766070D02*
X8677405Y-13756547D01*
X8696452Y-13747023D01*
X8725024Y-13747023D01*
X8744071Y-13756547D01*
X8753595Y-13775594D01*
X8753595Y-13880356D01*
X8753595Y-13775594D02*
X8763119Y-13756547D01*
X8782167Y-13747023D01*
X8810738Y-13747023D01*
X8829786Y-13756547D01*
X8839309Y-13775594D01*
X8839309Y-13880356D01*
X8934547Y-13880356D02*
X8934547Y-13747023D01*
X8934547Y-13766070D02*
X8944071Y-13756547D01*
X8963119Y-13747023D01*
X8991690Y-13747023D01*
X9010738Y-13756547D01*
X9020262Y-13775594D01*
X9020262Y-13880356D01*
X9020262Y-13775594D02*
X9029786Y-13756547D01*
X9048833Y-13747023D01*
X9077405Y-13747023D01*
X9096452Y-13756547D01*
X9105976Y-13775594D01*
X9105976Y-13880356D01*
X9496452Y-13670832D02*
X9325024Y-13927975D01*
X9753595Y-13680356D02*
X9772643Y-13680356D01*
X9791690Y-13689880D01*
X9801214Y-13699404D01*
X9810738Y-13718451D01*
X9820262Y-13756547D01*
X9820262Y-13804166D01*
X9810738Y-13842261D01*
X9801214Y-13861309D01*
X9791690Y-13870832D01*
X9772643Y-13880356D01*
X9753595Y-13880356D01*
X9734547Y-13870832D01*
X9725024Y-13861309D01*
X9715500Y-13842261D01*
X9705976Y-13804166D01*
X9705976Y-13756547D01*
X9715500Y-13718451D01*
X9725024Y-13699404D01*
X9734547Y-13689880D01*
X9753595Y-13680356D01*
X9905976Y-13861309D02*
X9915500Y-13870832D01*
X9905976Y-13880356D01*
X9896452Y-13870832D01*
X9905976Y-13861309D01*
X9905976Y-13880356D01*
X10039309Y-13680356D02*
X10058357Y-13680356D01*
X10077405Y-13689880D01*
X10086928Y-13699404D01*
X10096452Y-13718451D01*
X10105976Y-13756547D01*
X10105976Y-13804166D01*
X10096452Y-13842261D01*
X10086928Y-13861309D01*
X10077405Y-13870832D01*
X10058357Y-13880356D01*
X10039309Y-13880356D01*
X10020262Y-13870832D01*
X10010738Y-13861309D01*
X10001214Y-13842261D01*
X9991690Y-13804166D01*
X9991690Y-13756547D01*
X10001214Y-13718451D01*
X10010738Y-13699404D01*
X10020262Y-13689880D01*
X10039309Y-13680356D01*
X10296452Y-13880356D02*
X10182167Y-13880356D01*
X10239309Y-13880356D02*
X10239309Y-13680356D01*
X10220262Y-13708928D01*
X10201214Y-13727975D01*
X10182167Y-13737499D01*
X10477405Y-13680356D02*
X10382167Y-13680356D01*
X10372643Y-13775594D01*
X10382167Y-13766070D01*
X10401214Y-13756547D01*
X10448833Y-13756547D01*
X10467881Y-13766070D01*
X10477405Y-13775594D01*
X10486928Y-13794642D01*
X10486928Y-13842261D01*
X10477405Y-13861309D01*
X10467881Y-13870832D01*
X10448833Y-13880356D01*
X10401214Y-13880356D01*
X10382167Y-13870832D01*
X10372643Y-13861309D01*
X10553595Y-13680356D02*
X10686928Y-13680356D01*
X10601214Y-13880356D01*
X10753595Y-13680356D02*
X10753595Y-13718451D01*
X10829786Y-13680356D02*
X10829786Y-13718451D01*
X11125024Y-13956547D02*
X11115500Y-13947023D01*
X11096452Y-13918451D01*
X11086928Y-13899404D01*
X11077405Y-13870832D01*
X11067881Y-13823213D01*
X11067881Y-13785118D01*
X11077405Y-13737499D01*
X11086928Y-13708928D01*
X11096452Y-13689880D01*
X11115500Y-13661309D01*
X11125024Y-13651785D01*
X11305976Y-13880356D02*
X11191690Y-13880356D01*
X11248833Y-13880356D02*
X11248833Y-13680356D01*
X11229785Y-13708928D01*
X11210738Y-13727975D01*
X11191690Y-13737499D01*
X11544071Y-13880356D02*
X11544071Y-13680356D01*
X11629785Y-13880356D02*
X11629785Y-13775594D01*
X11620262Y-13756547D01*
X11601214Y-13747023D01*
X11572643Y-13747023D01*
X11553595Y-13756547D01*
X11544071Y-13766070D01*
X11753595Y-13880356D02*
X11734547Y-13870832D01*
X11725024Y-13861309D01*
X11715500Y-13842261D01*
X11715500Y-13785118D01*
X11725024Y-13766070D01*
X11734547Y-13756547D01*
X11753595Y-13747023D01*
X11782166Y-13747023D01*
X11801214Y-13756547D01*
X11810738Y-13766070D01*
X11820262Y-13785118D01*
X11820262Y-13842261D01*
X11810738Y-13861309D01*
X11801214Y-13870832D01*
X11782166Y-13880356D01*
X11753595Y-13880356D01*
X11934547Y-13880356D02*
X11915500Y-13870832D01*
X11905976Y-13851785D01*
X11905976Y-13680356D01*
X12086928Y-13870832D02*
X12067881Y-13880356D01*
X12029785Y-13880356D01*
X12010738Y-13870832D01*
X12001214Y-13851785D01*
X12001214Y-13775594D01*
X12010738Y-13756547D01*
X12029785Y-13747023D01*
X12067881Y-13747023D01*
X12086928Y-13756547D01*
X12096452Y-13775594D01*
X12096452Y-13794642D01*
X12001214Y-13813690D01*
X12163119Y-13956547D02*
X12172643Y-13947023D01*
X12191690Y-13918451D01*
X12201214Y-13899404D01*
X12210738Y-13870832D01*
X12220262Y-13823213D01*
X12220262Y-13785118D01*
X12210738Y-13737499D01*
X12201214Y-13708928D01*
X12191690Y-13689880D01*
X12172643Y-13661309D01*
X12163119Y-13651785D01*
D13*
X7553119Y-14053880D02*
G75*
G03*
X7553119Y-14053880I-25000J0D01*
G01*
D11*
X7848833Y-13944356D02*
X7867881Y-13944356D01*
X7886928Y-13953880D01*
X7896452Y-13963404D01*
X7905976Y-13982451D01*
X7915500Y-14020547D01*
X7915500Y-14068166D01*
X7905976Y-14106261D01*
X7896452Y-14125309D01*
X7886928Y-14134832D01*
X7867881Y-14144356D01*
X7848833Y-14144356D01*
X7829785Y-14134832D01*
X7820262Y-14125309D01*
X7810738Y-14106261D01*
X7801214Y-14068166D01*
X7801214Y-14020547D01*
X7810738Y-13982451D01*
X7820262Y-13963404D01*
X7829785Y-13953880D01*
X7848833Y-13944356D01*
X8001214Y-14125309D02*
X8010738Y-14134832D01*
X8001214Y-14144356D01*
X7991690Y-14134832D01*
X8001214Y-14125309D01*
X8001214Y-14144356D01*
X8191690Y-13944356D02*
X8096452Y-13944356D01*
X8086928Y-14039594D01*
X8096452Y-14030070D01*
X8115500Y-14020547D01*
X8163119Y-14020547D01*
X8182166Y-14030070D01*
X8191690Y-14039594D01*
X8201214Y-14058642D01*
X8201214Y-14106261D01*
X8191690Y-14125309D01*
X8182166Y-14134832D01*
X8163119Y-14144356D01*
X8115500Y-14144356D01*
X8096452Y-14134832D01*
X8086928Y-14125309D01*
X8325024Y-13944356D02*
X8344071Y-13944356D01*
X8363119Y-13953880D01*
X8372643Y-13963404D01*
X8382166Y-13982451D01*
X8391690Y-14020547D01*
X8391690Y-14068166D01*
X8382166Y-14106261D01*
X8372643Y-14125309D01*
X8363119Y-14134832D01*
X8344071Y-14144356D01*
X8325024Y-14144356D01*
X8305976Y-14134832D01*
X8296452Y-14125309D01*
X8286928Y-14106261D01*
X8277405Y-14068166D01*
X8277405Y-14020547D01*
X8286928Y-13982451D01*
X8296452Y-13963404D01*
X8305976Y-13953880D01*
X8325024Y-13944356D01*
X8515500Y-13944356D02*
X8534547Y-13944356D01*
X8553595Y-13953880D01*
X8563119Y-13963404D01*
X8572643Y-13982451D01*
X8582167Y-14020547D01*
X8582167Y-14068166D01*
X8572643Y-14106261D01*
X8563119Y-14125309D01*
X8553595Y-14134832D01*
X8534547Y-14144356D01*
X8515500Y-14144356D01*
X8496452Y-14134832D01*
X8486928Y-14125309D01*
X8477405Y-14106261D01*
X8467881Y-14068166D01*
X8467881Y-14020547D01*
X8477405Y-13982451D01*
X8486928Y-13963404D01*
X8496452Y-13953880D01*
X8515500Y-13944356D01*
X8667881Y-14144356D02*
X8667881Y-14011023D01*
X8667881Y-14030070D02*
X8677405Y-14020547D01*
X8696452Y-14011023D01*
X8725024Y-14011023D01*
X8744071Y-14020547D01*
X8753595Y-14039594D01*
X8753595Y-14144356D01*
X8753595Y-14039594D02*
X8763119Y-14020547D01*
X8782167Y-14011023D01*
X8810738Y-14011023D01*
X8829786Y-14020547D01*
X8839309Y-14039594D01*
X8839309Y-14144356D01*
X8934547Y-14144356D02*
X8934547Y-14011023D01*
X8934547Y-14030070D02*
X8944071Y-14020547D01*
X8963119Y-14011023D01*
X8991690Y-14011023D01*
X9010738Y-14020547D01*
X9020262Y-14039594D01*
X9020262Y-14144356D01*
X9020262Y-14039594D02*
X9029786Y-14020547D01*
X9048833Y-14011023D01*
X9077405Y-14011023D01*
X9096452Y-14020547D01*
X9105976Y-14039594D01*
X9105976Y-14144356D01*
X9496452Y-13934832D02*
X9325024Y-14191975D01*
X9753595Y-13944356D02*
X9772643Y-13944356D01*
X9791690Y-13953880D01*
X9801214Y-13963404D01*
X9810738Y-13982451D01*
X9820262Y-14020547D01*
X9820262Y-14068166D01*
X9810738Y-14106261D01*
X9801214Y-14125309D01*
X9791690Y-14134832D01*
X9772643Y-14144356D01*
X9753595Y-14144356D01*
X9734547Y-14134832D01*
X9725024Y-14125309D01*
X9715500Y-14106261D01*
X9705976Y-14068166D01*
X9705976Y-14020547D01*
X9715500Y-13982451D01*
X9725024Y-13963404D01*
X9734547Y-13953880D01*
X9753595Y-13944356D01*
X9905976Y-14125309D02*
X9915500Y-14134832D01*
X9905976Y-14144356D01*
X9896452Y-14134832D01*
X9905976Y-14125309D01*
X9905976Y-14144356D01*
X10039309Y-13944356D02*
X10058357Y-13944356D01*
X10077405Y-13953880D01*
X10086928Y-13963404D01*
X10096452Y-13982451D01*
X10105976Y-14020547D01*
X10105976Y-14068166D01*
X10096452Y-14106261D01*
X10086928Y-14125309D01*
X10077405Y-14134832D01*
X10058357Y-14144356D01*
X10039309Y-14144356D01*
X10020262Y-14134832D01*
X10010738Y-14125309D01*
X10001214Y-14106261D01*
X9991690Y-14068166D01*
X9991690Y-14020547D01*
X10001214Y-13982451D01*
X10010738Y-13963404D01*
X10020262Y-13953880D01*
X10039309Y-13944356D01*
X10296452Y-14144356D02*
X10182167Y-14144356D01*
X10239309Y-14144356D02*
X10239309Y-13944356D01*
X10220262Y-13972928D01*
X10201214Y-13991975D01*
X10182167Y-14001499D01*
X10391690Y-14144356D02*
X10429786Y-14144356D01*
X10448833Y-14134832D01*
X10458357Y-14125309D01*
X10477405Y-14096737D01*
X10486928Y-14058642D01*
X10486928Y-13982451D01*
X10477405Y-13963404D01*
X10467881Y-13953880D01*
X10448833Y-13944356D01*
X10410738Y-13944356D01*
X10391690Y-13953880D01*
X10382167Y-13963404D01*
X10372643Y-13982451D01*
X10372643Y-14030070D01*
X10382167Y-14049118D01*
X10391690Y-14058642D01*
X10410738Y-14068166D01*
X10448833Y-14068166D01*
X10467881Y-14058642D01*
X10477405Y-14049118D01*
X10486928Y-14030070D01*
X10553595Y-13944356D02*
X10686928Y-13944356D01*
X10601214Y-14144356D01*
X10753595Y-13944356D02*
X10753595Y-13982451D01*
X10829786Y-13944356D02*
X10829786Y-13982451D01*
X11125024Y-14220547D02*
X11115500Y-14211023D01*
X11096452Y-14182451D01*
X11086928Y-14163404D01*
X11077405Y-14134832D01*
X11067881Y-14087213D01*
X11067881Y-14049118D01*
X11077405Y-14001499D01*
X11086928Y-13972928D01*
X11096452Y-13953880D01*
X11115500Y-13925309D01*
X11125024Y-13915785D01*
X11305976Y-14144356D02*
X11191690Y-14144356D01*
X11248833Y-14144356D02*
X11248833Y-13944356D01*
X11229785Y-13972928D01*
X11210738Y-13991975D01*
X11191690Y-14001499D01*
X11429785Y-13944356D02*
X11448833Y-13944356D01*
X11467881Y-13953880D01*
X11477405Y-13963404D01*
X11486928Y-13982451D01*
X11496452Y-14020547D01*
X11496452Y-14068166D01*
X11486928Y-14106261D01*
X11477405Y-14125309D01*
X11467881Y-14134832D01*
X11448833Y-14144356D01*
X11429785Y-14144356D01*
X11410738Y-14134832D01*
X11401214Y-14125309D01*
X11391690Y-14106261D01*
X11382166Y-14068166D01*
X11382166Y-14020547D01*
X11391690Y-13982451D01*
X11401214Y-13963404D01*
X11410738Y-13953880D01*
X11429785Y-13944356D01*
X11734547Y-14144356D02*
X11734547Y-13944356D01*
X11820262Y-14144356D02*
X11820262Y-14039594D01*
X11810738Y-14020547D01*
X11791690Y-14011023D01*
X11763119Y-14011023D01*
X11744071Y-14020547D01*
X11734547Y-14030070D01*
X11944071Y-14144356D02*
X11925024Y-14134832D01*
X11915500Y-14125309D01*
X11905976Y-14106261D01*
X11905976Y-14049118D01*
X11915500Y-14030070D01*
X11925024Y-14020547D01*
X11944071Y-14011023D01*
X11972643Y-14011023D01*
X11991690Y-14020547D01*
X12001214Y-14030070D01*
X12010738Y-14049118D01*
X12010738Y-14106261D01*
X12001214Y-14125309D01*
X11991690Y-14134832D01*
X11972643Y-14144356D01*
X11944071Y-14144356D01*
X12125024Y-14144356D02*
X12105976Y-14134832D01*
X12096452Y-14115785D01*
X12096452Y-13944356D01*
X12277405Y-14134832D02*
X12258357Y-14144356D01*
X12220262Y-14144356D01*
X12201214Y-14134832D01*
X12191690Y-14115785D01*
X12191690Y-14039594D01*
X12201214Y-14020547D01*
X12220262Y-14011023D01*
X12258357Y-14011023D01*
X12277405Y-14020547D01*
X12286928Y-14039594D01*
X12286928Y-14058642D01*
X12191690Y-14077690D01*
X12363119Y-14134832D02*
X12382166Y-14144356D01*
X12420262Y-14144356D01*
X12439309Y-14134832D01*
X12448833Y-14115785D01*
X12448833Y-14106261D01*
X12439309Y-14087213D01*
X12420262Y-14077690D01*
X12391690Y-14077690D01*
X12372643Y-14068166D01*
X12363119Y-14049118D01*
X12363119Y-14039594D01*
X12372643Y-14020547D01*
X12391690Y-14011023D01*
X12420262Y-14011023D01*
X12439309Y-14020547D01*
X12515500Y-14220547D02*
X12525024Y-14211023D01*
X12544071Y-14182451D01*
X12553595Y-14163404D01*
X12563119Y-14134832D01*
X12572643Y-14087213D01*
X12572643Y-14049118D01*
X12563119Y-14001499D01*
X12553595Y-13972928D01*
X12544071Y-13953880D01*
X12525024Y-13925309D01*
X12515500Y-13915785D01*
D14*
X7518119Y-14282880D02*
X7518119Y-14352880D01*
X7483119Y-14317880D02*
X7553119Y-14317880D01*
D11*
X7848833Y-14208356D02*
X7867881Y-14208356D01*
X7886928Y-14217880D01*
X7896452Y-14227404D01*
X7905976Y-14246451D01*
X7915500Y-14284547D01*
X7915500Y-14332166D01*
X7905976Y-14370261D01*
X7896452Y-14389309D01*
X7886928Y-14398832D01*
X7867881Y-14408356D01*
X7848833Y-14408356D01*
X7829785Y-14398832D01*
X7820262Y-14389309D01*
X7810738Y-14370261D01*
X7801214Y-14332166D01*
X7801214Y-14284547D01*
X7810738Y-14246451D01*
X7820262Y-14227404D01*
X7829785Y-14217880D01*
X7848833Y-14208356D01*
X8001214Y-14389309D02*
X8010738Y-14398832D01*
X8001214Y-14408356D01*
X7991690Y-14398832D01*
X8001214Y-14389309D01*
X8001214Y-14408356D01*
X8077405Y-14208356D02*
X8210738Y-14208356D01*
X8125024Y-14408356D01*
X8325024Y-14208356D02*
X8344071Y-14208356D01*
X8363119Y-14217880D01*
X8372643Y-14227404D01*
X8382166Y-14246451D01*
X8391690Y-14284547D01*
X8391690Y-14332166D01*
X8382166Y-14370261D01*
X8372643Y-14389309D01*
X8363119Y-14398832D01*
X8344071Y-14408356D01*
X8325024Y-14408356D01*
X8305976Y-14398832D01*
X8296452Y-14389309D01*
X8286928Y-14370261D01*
X8277405Y-14332166D01*
X8277405Y-14284547D01*
X8286928Y-14246451D01*
X8296452Y-14227404D01*
X8305976Y-14217880D01*
X8325024Y-14208356D01*
X8515500Y-14208356D02*
X8534547Y-14208356D01*
X8553595Y-14217880D01*
X8563119Y-14227404D01*
X8572643Y-14246451D01*
X8582167Y-14284547D01*
X8582167Y-14332166D01*
X8572643Y-14370261D01*
X8563119Y-14389309D01*
X8553595Y-14398832D01*
X8534547Y-14408356D01*
X8515500Y-14408356D01*
X8496452Y-14398832D01*
X8486928Y-14389309D01*
X8477405Y-14370261D01*
X8467881Y-14332166D01*
X8467881Y-14284547D01*
X8477405Y-14246451D01*
X8486928Y-14227404D01*
X8496452Y-14217880D01*
X8515500Y-14208356D01*
X8667881Y-14408356D02*
X8667881Y-14275023D01*
X8667881Y-14294070D02*
X8677405Y-14284547D01*
X8696452Y-14275023D01*
X8725024Y-14275023D01*
X8744071Y-14284547D01*
X8753595Y-14303594D01*
X8753595Y-14408356D01*
X8753595Y-14303594D02*
X8763119Y-14284547D01*
X8782167Y-14275023D01*
X8810738Y-14275023D01*
X8829786Y-14284547D01*
X8839309Y-14303594D01*
X8839309Y-14408356D01*
X8934547Y-14408356D02*
X8934547Y-14275023D01*
X8934547Y-14294070D02*
X8944071Y-14284547D01*
X8963119Y-14275023D01*
X8991690Y-14275023D01*
X9010738Y-14284547D01*
X9020262Y-14303594D01*
X9020262Y-14408356D01*
X9020262Y-14303594D02*
X9029786Y-14284547D01*
X9048833Y-14275023D01*
X9077405Y-14275023D01*
X9096452Y-14284547D01*
X9105976Y-14303594D01*
X9105976Y-14408356D01*
X9496452Y-14198832D02*
X9325024Y-14455975D01*
X9753595Y-14208356D02*
X9772643Y-14208356D01*
X9791690Y-14217880D01*
X9801214Y-14227404D01*
X9810738Y-14246451D01*
X9820262Y-14284547D01*
X9820262Y-14332166D01*
X9810738Y-14370261D01*
X9801214Y-14389309D01*
X9791690Y-14398832D01*
X9772643Y-14408356D01*
X9753595Y-14408356D01*
X9734547Y-14398832D01*
X9725024Y-14389309D01*
X9715500Y-14370261D01*
X9705976Y-14332166D01*
X9705976Y-14284547D01*
X9715500Y-14246451D01*
X9725024Y-14227404D01*
X9734547Y-14217880D01*
X9753595Y-14208356D01*
X9905976Y-14389309D02*
X9915500Y-14398832D01*
X9905976Y-14408356D01*
X9896452Y-14398832D01*
X9905976Y-14389309D01*
X9905976Y-14408356D01*
X10039309Y-14208356D02*
X10058357Y-14208356D01*
X10077405Y-14217880D01*
X10086928Y-14227404D01*
X10096452Y-14246451D01*
X10105976Y-14284547D01*
X10105976Y-14332166D01*
X10096452Y-14370261D01*
X10086928Y-14389309D01*
X10077405Y-14398832D01*
X10058357Y-14408356D01*
X10039309Y-14408356D01*
X10020262Y-14398832D01*
X10010738Y-14389309D01*
X10001214Y-14370261D01*
X9991690Y-14332166D01*
X9991690Y-14284547D01*
X10001214Y-14246451D01*
X10010738Y-14227404D01*
X10020262Y-14217880D01*
X10039309Y-14208356D01*
X10182167Y-14227404D02*
X10191690Y-14217880D01*
X10210738Y-14208356D01*
X10258357Y-14208356D01*
X10277405Y-14217880D01*
X10286928Y-14227404D01*
X10296452Y-14246451D01*
X10296452Y-14265499D01*
X10286928Y-14294070D01*
X10172643Y-14408356D01*
X10296452Y-14408356D01*
X10363119Y-14208356D02*
X10496452Y-14208356D01*
X10410738Y-14408356D01*
X10658357Y-14208356D02*
X10620262Y-14208356D01*
X10601214Y-14217880D01*
X10591690Y-14227404D01*
X10572643Y-14255975D01*
X10563119Y-14294070D01*
X10563119Y-14370261D01*
X10572643Y-14389309D01*
X10582167Y-14398832D01*
X10601214Y-14408356D01*
X10639309Y-14408356D01*
X10658357Y-14398832D01*
X10667881Y-14389309D01*
X10677405Y-14370261D01*
X10677405Y-14322642D01*
X10667881Y-14303594D01*
X10658357Y-14294070D01*
X10639309Y-14284547D01*
X10601214Y-14284547D01*
X10582167Y-14294070D01*
X10572643Y-14303594D01*
X10563119Y-14322642D01*
X10753595Y-14208356D02*
X10753595Y-14246451D01*
X10829786Y-14208356D02*
X10829786Y-14246451D01*
X11125024Y-14484547D02*
X11115500Y-14475023D01*
X11096452Y-14446451D01*
X11086928Y-14427404D01*
X11077405Y-14398832D01*
X11067881Y-14351213D01*
X11067881Y-14313118D01*
X11077405Y-14265499D01*
X11086928Y-14236928D01*
X11096452Y-14217880D01*
X11115500Y-14189309D01*
X11125024Y-14179785D01*
X11305976Y-14408356D02*
X11191690Y-14408356D01*
X11248833Y-14408356D02*
X11248833Y-14208356D01*
X11229785Y-14236928D01*
X11210738Y-14255975D01*
X11191690Y-14265499D01*
X11420262Y-14294070D02*
X11401214Y-14284547D01*
X11391690Y-14275023D01*
X11382166Y-14255975D01*
X11382166Y-14246451D01*
X11391690Y-14227404D01*
X11401214Y-14217880D01*
X11420262Y-14208356D01*
X11458357Y-14208356D01*
X11477405Y-14217880D01*
X11486928Y-14227404D01*
X11496452Y-14246451D01*
X11496452Y-14255975D01*
X11486928Y-14275023D01*
X11477405Y-14284547D01*
X11458357Y-14294070D01*
X11420262Y-14294070D01*
X11401214Y-14303594D01*
X11391690Y-14313118D01*
X11382166Y-14332166D01*
X11382166Y-14370261D01*
X11391690Y-14389309D01*
X11401214Y-14398832D01*
X11420262Y-14408356D01*
X11458357Y-14408356D01*
X11477405Y-14398832D01*
X11486928Y-14389309D01*
X11496452Y-14370261D01*
X11496452Y-14332166D01*
X11486928Y-14313118D01*
X11477405Y-14303594D01*
X11458357Y-14294070D01*
X11734547Y-14408356D02*
X11734547Y-14208356D01*
X11820262Y-14408356D02*
X11820262Y-14303594D01*
X11810738Y-14284547D01*
X11791690Y-14275023D01*
X11763119Y-14275023D01*
X11744071Y-14284547D01*
X11734547Y-14294070D01*
X11944071Y-14408356D02*
X11925024Y-14398832D01*
X11915500Y-14389309D01*
X11905976Y-14370261D01*
X11905976Y-14313118D01*
X11915500Y-14294070D01*
X11925024Y-14284547D01*
X11944071Y-14275023D01*
X11972643Y-14275023D01*
X11991690Y-14284547D01*
X12001214Y-14294070D01*
X12010738Y-14313118D01*
X12010738Y-14370261D01*
X12001214Y-14389309D01*
X11991690Y-14398832D01*
X11972643Y-14408356D01*
X11944071Y-14408356D01*
X12125024Y-14408356D02*
X12105976Y-14398832D01*
X12096452Y-14379785D01*
X12096452Y-14208356D01*
X12277405Y-14398832D02*
X12258357Y-14408356D01*
X12220262Y-14408356D01*
X12201214Y-14398832D01*
X12191690Y-14379785D01*
X12191690Y-14303594D01*
X12201214Y-14284547D01*
X12220262Y-14275023D01*
X12258357Y-14275023D01*
X12277405Y-14284547D01*
X12286928Y-14303594D01*
X12286928Y-14322642D01*
X12191690Y-14341690D01*
X12363119Y-14398832D02*
X12382166Y-14408356D01*
X12420262Y-14408356D01*
X12439309Y-14398832D01*
X12448833Y-14379785D01*
X12448833Y-14370261D01*
X12439309Y-14351213D01*
X12420262Y-14341690D01*
X12391690Y-14341690D01*
X12372643Y-14332166D01*
X12363119Y-14313118D01*
X12363119Y-14303594D01*
X12372643Y-14284547D01*
X12391690Y-14275023D01*
X12420262Y-14275023D01*
X12439309Y-14284547D01*
X12515500Y-14484547D02*
X12525024Y-14475023D01*
X12544071Y-14446451D01*
X12553595Y-14427404D01*
X12563119Y-14398832D01*
X12572643Y-14351213D01*
X12572643Y-14313118D01*
X12563119Y-14265499D01*
X12553595Y-14236928D01*
X12544071Y-14217880D01*
X12525024Y-14189309D01*
X12515500Y-14179785D01*
D15*
X7542136Y-14608397D02*
X7542136Y-14555363D01*
X7489102Y-14555363D01*
X7489102Y-14608397D01*
X7542136Y-14608397D01*
D11*
X7848833Y-14472356D02*
X7867881Y-14472356D01*
X7886928Y-14481880D01*
X7896452Y-14491404D01*
X7905976Y-14510451D01*
X7915500Y-14548547D01*
X7915500Y-14596166D01*
X7905976Y-14634261D01*
X7896452Y-14653309D01*
X7886928Y-14662832D01*
X7867881Y-14672356D01*
X7848833Y-14672356D01*
X7829785Y-14662832D01*
X7820262Y-14653309D01*
X7810738Y-14634261D01*
X7801214Y-14596166D01*
X7801214Y-14548547D01*
X7810738Y-14510451D01*
X7820262Y-14491404D01*
X7829785Y-14481880D01*
X7848833Y-14472356D01*
X8001214Y-14653309D02*
X8010738Y-14662832D01*
X8001214Y-14672356D01*
X7991690Y-14662832D01*
X8001214Y-14653309D01*
X8001214Y-14672356D01*
X8077405Y-14472356D02*
X8210738Y-14472356D01*
X8125024Y-14672356D01*
X8382166Y-14472356D02*
X8286928Y-14472356D01*
X8277405Y-14567594D01*
X8286928Y-14558070D01*
X8305976Y-14548547D01*
X8353595Y-14548547D01*
X8372643Y-14558070D01*
X8382166Y-14567594D01*
X8391690Y-14586642D01*
X8391690Y-14634261D01*
X8382166Y-14653309D01*
X8372643Y-14662832D01*
X8353595Y-14672356D01*
X8305976Y-14672356D01*
X8286928Y-14662832D01*
X8277405Y-14653309D01*
X8515500Y-14472356D02*
X8534547Y-14472356D01*
X8553595Y-14481880D01*
X8563119Y-14491404D01*
X8572643Y-14510451D01*
X8582167Y-14548547D01*
X8582167Y-14596166D01*
X8572643Y-14634261D01*
X8563119Y-14653309D01*
X8553595Y-14662832D01*
X8534547Y-14672356D01*
X8515500Y-14672356D01*
X8496452Y-14662832D01*
X8486928Y-14653309D01*
X8477405Y-14634261D01*
X8467881Y-14596166D01*
X8467881Y-14548547D01*
X8477405Y-14510451D01*
X8486928Y-14491404D01*
X8496452Y-14481880D01*
X8515500Y-14472356D01*
X8667881Y-14672356D02*
X8667881Y-14539023D01*
X8667881Y-14558070D02*
X8677405Y-14548547D01*
X8696452Y-14539023D01*
X8725024Y-14539023D01*
X8744071Y-14548547D01*
X8753595Y-14567594D01*
X8753595Y-14672356D01*
X8753595Y-14567594D02*
X8763119Y-14548547D01*
X8782167Y-14539023D01*
X8810738Y-14539023D01*
X8829786Y-14548547D01*
X8839309Y-14567594D01*
X8839309Y-14672356D01*
X8934547Y-14672356D02*
X8934547Y-14539023D01*
X8934547Y-14558070D02*
X8944071Y-14548547D01*
X8963119Y-14539023D01*
X8991690Y-14539023D01*
X9010738Y-14548547D01*
X9020262Y-14567594D01*
X9020262Y-14672356D01*
X9020262Y-14567594D02*
X9029786Y-14548547D01*
X9048833Y-14539023D01*
X9077405Y-14539023D01*
X9096452Y-14548547D01*
X9105976Y-14567594D01*
X9105976Y-14672356D01*
X9496452Y-14462832D02*
X9325024Y-14719975D01*
X9753595Y-14472356D02*
X9772643Y-14472356D01*
X9791690Y-14481880D01*
X9801214Y-14491404D01*
X9810738Y-14510451D01*
X9820262Y-14548547D01*
X9820262Y-14596166D01*
X9810738Y-14634261D01*
X9801214Y-14653309D01*
X9791690Y-14662832D01*
X9772643Y-14672356D01*
X9753595Y-14672356D01*
X9734547Y-14662832D01*
X9725024Y-14653309D01*
X9715500Y-14634261D01*
X9705976Y-14596166D01*
X9705976Y-14548547D01*
X9715500Y-14510451D01*
X9725024Y-14491404D01*
X9734547Y-14481880D01*
X9753595Y-14472356D01*
X9905976Y-14653309D02*
X9915500Y-14662832D01*
X9905976Y-14672356D01*
X9896452Y-14662832D01*
X9905976Y-14653309D01*
X9905976Y-14672356D01*
X10039309Y-14472356D02*
X10058357Y-14472356D01*
X10077405Y-14481880D01*
X10086928Y-14491404D01*
X10096452Y-14510451D01*
X10105976Y-14548547D01*
X10105976Y-14596166D01*
X10096452Y-14634261D01*
X10086928Y-14653309D01*
X10077405Y-14662832D01*
X10058357Y-14672356D01*
X10039309Y-14672356D01*
X10020262Y-14662832D01*
X10010738Y-14653309D01*
X10001214Y-14634261D01*
X9991690Y-14596166D01*
X9991690Y-14548547D01*
X10001214Y-14510451D01*
X10010738Y-14491404D01*
X10020262Y-14481880D01*
X10039309Y-14472356D01*
X10182167Y-14491404D02*
X10191690Y-14481880D01*
X10210738Y-14472356D01*
X10258357Y-14472356D01*
X10277405Y-14481880D01*
X10286928Y-14491404D01*
X10296452Y-14510451D01*
X10296452Y-14529499D01*
X10286928Y-14558070D01*
X10172643Y-14672356D01*
X10296452Y-14672356D01*
X10391690Y-14672356D02*
X10429786Y-14672356D01*
X10448833Y-14662832D01*
X10458357Y-14653309D01*
X10477405Y-14624737D01*
X10486928Y-14586642D01*
X10486928Y-14510451D01*
X10477405Y-14491404D01*
X10467881Y-14481880D01*
X10448833Y-14472356D01*
X10410738Y-14472356D01*
X10391690Y-14481880D01*
X10382167Y-14491404D01*
X10372643Y-14510451D01*
X10372643Y-14558070D01*
X10382167Y-14577118D01*
X10391690Y-14586642D01*
X10410738Y-14596166D01*
X10448833Y-14596166D01*
X10467881Y-14586642D01*
X10477405Y-14577118D01*
X10486928Y-14558070D01*
X10667881Y-14472356D02*
X10572643Y-14472356D01*
X10563119Y-14567594D01*
X10572643Y-14558070D01*
X10591690Y-14548547D01*
X10639309Y-14548547D01*
X10658357Y-14558070D01*
X10667881Y-14567594D01*
X10677405Y-14586642D01*
X10677405Y-14634261D01*
X10667881Y-14653309D01*
X10658357Y-14662832D01*
X10639309Y-14672356D01*
X10591690Y-14672356D01*
X10572643Y-14662832D01*
X10563119Y-14653309D01*
X10753595Y-14472356D02*
X10753595Y-14510451D01*
X10829786Y-14472356D02*
X10829786Y-14510451D01*
X11125024Y-14748547D02*
X11115500Y-14739023D01*
X11096452Y-14710451D01*
X11086928Y-14691404D01*
X11077405Y-14662832D01*
X11067881Y-14615213D01*
X11067881Y-14577118D01*
X11077405Y-14529499D01*
X11086928Y-14500928D01*
X11096452Y-14481880D01*
X11115500Y-14453309D01*
X11125024Y-14443785D01*
X11182167Y-14472356D02*
X11305976Y-14472356D01*
X11239309Y-14548547D01*
X11267881Y-14548547D01*
X11286928Y-14558070D01*
X11296452Y-14567594D01*
X11305976Y-14586642D01*
X11305976Y-14634261D01*
X11296452Y-14653309D01*
X11286928Y-14662832D01*
X11267881Y-14672356D01*
X11210738Y-14672356D01*
X11191690Y-14662832D01*
X11182167Y-14653309D01*
X11544071Y-14672356D02*
X11544071Y-14472356D01*
X11629785Y-14672356D02*
X11629785Y-14567594D01*
X11620262Y-14548547D01*
X11601214Y-14539023D01*
X11572643Y-14539023D01*
X11553595Y-14548547D01*
X11544071Y-14558070D01*
X11753595Y-14672356D02*
X11734547Y-14662832D01*
X11725024Y-14653309D01*
X11715500Y-14634261D01*
X11715500Y-14577118D01*
X11725024Y-14558070D01*
X11734547Y-14548547D01*
X11753595Y-14539023D01*
X11782166Y-14539023D01*
X11801214Y-14548547D01*
X11810738Y-14558070D01*
X11820262Y-14577118D01*
X11820262Y-14634261D01*
X11810738Y-14653309D01*
X11801214Y-14662832D01*
X11782166Y-14672356D01*
X11753595Y-14672356D01*
X11934547Y-14672356D02*
X11915500Y-14662832D01*
X11905976Y-14643785D01*
X11905976Y-14472356D01*
X12086928Y-14662832D02*
X12067881Y-14672356D01*
X12029785Y-14672356D01*
X12010738Y-14662832D01*
X12001214Y-14643785D01*
X12001214Y-14567594D01*
X12010738Y-14548547D01*
X12029785Y-14539023D01*
X12067881Y-14539023D01*
X12086928Y-14548547D01*
X12096452Y-14567594D01*
X12096452Y-14586642D01*
X12001214Y-14605690D01*
X12172643Y-14662832D02*
X12191690Y-14672356D01*
X12229785Y-14672356D01*
X12248833Y-14662832D01*
X12258357Y-14643785D01*
X12258357Y-14634261D01*
X12248833Y-14615213D01*
X12229785Y-14605690D01*
X12201214Y-14605690D01*
X12182166Y-14596166D01*
X12172643Y-14577118D01*
X12172643Y-14567594D01*
X12182166Y-14548547D01*
X12201214Y-14539023D01*
X12229785Y-14539023D01*
X12248833Y-14548547D01*
X12325024Y-14748547D02*
X12334547Y-14739023D01*
X12353595Y-14710451D01*
X12363119Y-14691404D01*
X12372643Y-14662832D01*
X12382166Y-14615213D01*
X12382166Y-14577118D01*
X12372643Y-14529499D01*
X12363119Y-14500928D01*
X12353595Y-14481880D01*
X12334547Y-14453309D01*
X12325024Y-14443785D01*
D16*
X7513119Y-14885880D02*
X7553119Y-14845880D01*
X7513119Y-14805880D01*
X7473119Y-14845880D01*
X7513119Y-14885880D01*
D11*
X7848833Y-14736356D02*
X7867881Y-14736356D01*
X7886928Y-14745880D01*
X7896452Y-14755404D01*
X7905976Y-14774451D01*
X7915500Y-14812547D01*
X7915500Y-14860166D01*
X7905976Y-14898261D01*
X7896452Y-14917309D01*
X7886928Y-14926832D01*
X7867881Y-14936356D01*
X7848833Y-14936356D01*
X7829785Y-14926832D01*
X7820262Y-14917309D01*
X7810738Y-14898261D01*
X7801214Y-14860166D01*
X7801214Y-14812547D01*
X7810738Y-14774451D01*
X7820262Y-14755404D01*
X7829785Y-14745880D01*
X7848833Y-14736356D01*
X8001214Y-14917309D02*
X8010738Y-14926832D01*
X8001214Y-14936356D01*
X7991690Y-14926832D01*
X8001214Y-14917309D01*
X8001214Y-14936356D01*
X8125024Y-14822070D02*
X8105976Y-14812547D01*
X8096452Y-14803023D01*
X8086928Y-14783975D01*
X8086928Y-14774451D01*
X8096452Y-14755404D01*
X8105976Y-14745880D01*
X8125024Y-14736356D01*
X8163119Y-14736356D01*
X8182166Y-14745880D01*
X8191690Y-14755404D01*
X8201214Y-14774451D01*
X8201214Y-14783975D01*
X8191690Y-14803023D01*
X8182166Y-14812547D01*
X8163119Y-14822070D01*
X8125024Y-14822070D01*
X8105976Y-14831594D01*
X8096452Y-14841118D01*
X8086928Y-14860166D01*
X8086928Y-14898261D01*
X8096452Y-14917309D01*
X8105976Y-14926832D01*
X8125024Y-14936356D01*
X8163119Y-14936356D01*
X8182166Y-14926832D01*
X8191690Y-14917309D01*
X8201214Y-14898261D01*
X8201214Y-14860166D01*
X8191690Y-14841118D01*
X8182166Y-14831594D01*
X8163119Y-14822070D01*
X8325024Y-14736356D02*
X8344071Y-14736356D01*
X8363119Y-14745880D01*
X8372643Y-14755404D01*
X8382166Y-14774451D01*
X8391690Y-14812547D01*
X8391690Y-14860166D01*
X8382166Y-14898261D01*
X8372643Y-14917309D01*
X8363119Y-14926832D01*
X8344071Y-14936356D01*
X8325024Y-14936356D01*
X8305976Y-14926832D01*
X8296452Y-14917309D01*
X8286928Y-14898261D01*
X8277405Y-14860166D01*
X8277405Y-14812547D01*
X8286928Y-14774451D01*
X8296452Y-14755404D01*
X8305976Y-14745880D01*
X8325024Y-14736356D01*
X8515500Y-14736356D02*
X8534547Y-14736356D01*
X8553595Y-14745880D01*
X8563119Y-14755404D01*
X8572643Y-14774451D01*
X8582167Y-14812547D01*
X8582167Y-14860166D01*
X8572643Y-14898261D01*
X8563119Y-14917309D01*
X8553595Y-14926832D01*
X8534547Y-14936356D01*
X8515500Y-14936356D01*
X8496452Y-14926832D01*
X8486928Y-14917309D01*
X8477405Y-14898261D01*
X8467881Y-14860166D01*
X8467881Y-14812547D01*
X8477405Y-14774451D01*
X8486928Y-14755404D01*
X8496452Y-14745880D01*
X8515500Y-14736356D01*
X8667881Y-14936356D02*
X8667881Y-14803023D01*
X8667881Y-14822070D02*
X8677405Y-14812547D01*
X8696452Y-14803023D01*
X8725024Y-14803023D01*
X8744071Y-14812547D01*
X8753595Y-14831594D01*
X8753595Y-14936356D01*
X8753595Y-14831594D02*
X8763119Y-14812547D01*
X8782167Y-14803023D01*
X8810738Y-14803023D01*
X8829786Y-14812547D01*
X8839309Y-14831594D01*
X8839309Y-14936356D01*
X8934547Y-14936356D02*
X8934547Y-14803023D01*
X8934547Y-14822070D02*
X8944071Y-14812547D01*
X8963119Y-14803023D01*
X8991690Y-14803023D01*
X9010738Y-14812547D01*
X9020262Y-14831594D01*
X9020262Y-14936356D01*
X9020262Y-14831594D02*
X9029786Y-14812547D01*
X9048833Y-14803023D01*
X9077405Y-14803023D01*
X9096452Y-14812547D01*
X9105976Y-14831594D01*
X9105976Y-14936356D01*
X9496452Y-14726832D02*
X9325024Y-14983975D01*
X9753595Y-14736356D02*
X9772643Y-14736356D01*
X9791690Y-14745880D01*
X9801214Y-14755404D01*
X9810738Y-14774451D01*
X9820262Y-14812547D01*
X9820262Y-14860166D01*
X9810738Y-14898261D01*
X9801214Y-14917309D01*
X9791690Y-14926832D01*
X9772643Y-14936356D01*
X9753595Y-14936356D01*
X9734547Y-14926832D01*
X9725024Y-14917309D01*
X9715500Y-14898261D01*
X9705976Y-14860166D01*
X9705976Y-14812547D01*
X9715500Y-14774451D01*
X9725024Y-14755404D01*
X9734547Y-14745880D01*
X9753595Y-14736356D01*
X9905976Y-14917309D02*
X9915500Y-14926832D01*
X9905976Y-14936356D01*
X9896452Y-14926832D01*
X9905976Y-14917309D01*
X9905976Y-14936356D01*
X10039309Y-14736356D02*
X10058357Y-14736356D01*
X10077405Y-14745880D01*
X10086928Y-14755404D01*
X10096452Y-14774451D01*
X10105976Y-14812547D01*
X10105976Y-14860166D01*
X10096452Y-14898261D01*
X10086928Y-14917309D01*
X10077405Y-14926832D01*
X10058357Y-14936356D01*
X10039309Y-14936356D01*
X10020262Y-14926832D01*
X10010738Y-14917309D01*
X10001214Y-14898261D01*
X9991690Y-14860166D01*
X9991690Y-14812547D01*
X10001214Y-14774451D01*
X10010738Y-14755404D01*
X10020262Y-14745880D01*
X10039309Y-14736356D01*
X10172643Y-14736356D02*
X10296452Y-14736356D01*
X10229786Y-14812547D01*
X10258357Y-14812547D01*
X10277405Y-14822070D01*
X10286928Y-14831594D01*
X10296452Y-14850642D01*
X10296452Y-14898261D01*
X10286928Y-14917309D01*
X10277405Y-14926832D01*
X10258357Y-14936356D01*
X10201214Y-14936356D01*
X10182167Y-14926832D01*
X10172643Y-14917309D01*
X10486928Y-14936356D02*
X10372643Y-14936356D01*
X10429786Y-14936356D02*
X10429786Y-14736356D01*
X10410738Y-14764928D01*
X10391690Y-14783975D01*
X10372643Y-14793499D01*
X10667881Y-14736356D02*
X10572643Y-14736356D01*
X10563119Y-14831594D01*
X10572643Y-14822070D01*
X10591690Y-14812547D01*
X10639309Y-14812547D01*
X10658357Y-14822070D01*
X10667881Y-14831594D01*
X10677405Y-14850642D01*
X10677405Y-14898261D01*
X10667881Y-14917309D01*
X10658357Y-14926832D01*
X10639309Y-14936356D01*
X10591690Y-14936356D01*
X10572643Y-14926832D01*
X10563119Y-14917309D01*
X10753595Y-14736356D02*
X10753595Y-14774451D01*
X10829786Y-14736356D02*
X10829786Y-14774451D01*
X11125024Y-15012547D02*
X11115500Y-15003023D01*
X11096452Y-14974451D01*
X11086928Y-14955404D01*
X11077405Y-14926832D01*
X11067881Y-14879213D01*
X11067881Y-14841118D01*
X11077405Y-14793499D01*
X11086928Y-14764928D01*
X11096452Y-14745880D01*
X11115500Y-14717309D01*
X11125024Y-14707785D01*
X11296452Y-14736356D02*
X11201214Y-14736356D01*
X11191690Y-14831594D01*
X11201214Y-14822070D01*
X11220262Y-14812547D01*
X11267881Y-14812547D01*
X11286928Y-14822070D01*
X11296452Y-14831594D01*
X11305976Y-14850642D01*
X11305976Y-14898261D01*
X11296452Y-14917309D01*
X11286928Y-14926832D01*
X11267881Y-14936356D01*
X11220262Y-14936356D01*
X11201214Y-14926832D01*
X11191690Y-14917309D01*
X11382166Y-14755404D02*
X11391690Y-14745880D01*
X11410738Y-14736356D01*
X11458357Y-14736356D01*
X11477405Y-14745880D01*
X11486928Y-14755404D01*
X11496452Y-14774451D01*
X11496452Y-14793499D01*
X11486928Y-14822070D01*
X11372643Y-14936356D01*
X11496452Y-14936356D01*
X11734547Y-14936356D02*
X11734547Y-14736356D01*
X11820262Y-14936356D02*
X11820262Y-14831594D01*
X11810738Y-14812547D01*
X11791690Y-14803023D01*
X11763119Y-14803023D01*
X11744071Y-14812547D01*
X11734547Y-14822070D01*
X11944071Y-14936356D02*
X11925024Y-14926832D01*
X11915500Y-14917309D01*
X11905976Y-14898261D01*
X11905976Y-14841118D01*
X11915500Y-14822070D01*
X11925024Y-14812547D01*
X11944071Y-14803023D01*
X11972643Y-14803023D01*
X11991690Y-14812547D01*
X12001214Y-14822070D01*
X12010738Y-14841118D01*
X12010738Y-14898261D01*
X12001214Y-14917309D01*
X11991690Y-14926832D01*
X11972643Y-14936356D01*
X11944071Y-14936356D01*
X12125024Y-14936356D02*
X12105976Y-14926832D01*
X12096452Y-14907785D01*
X12096452Y-14736356D01*
X12277405Y-14926832D02*
X12258357Y-14936356D01*
X12220262Y-14936356D01*
X12201214Y-14926832D01*
X12191690Y-14907785D01*
X12191690Y-14831594D01*
X12201214Y-14812547D01*
X12220262Y-14803023D01*
X12258357Y-14803023D01*
X12277405Y-14812547D01*
X12286928Y-14831594D01*
X12286928Y-14850642D01*
X12191690Y-14869690D01*
X12363119Y-14926832D02*
X12382166Y-14936356D01*
X12420262Y-14936356D01*
X12439309Y-14926832D01*
X12448833Y-14907785D01*
X12448833Y-14898261D01*
X12439309Y-14879213D01*
X12420262Y-14869690D01*
X12391690Y-14869690D01*
X12372643Y-14860166D01*
X12363119Y-14841118D01*
X12363119Y-14831594D01*
X12372643Y-14812547D01*
X12391690Y-14803023D01*
X12420262Y-14803023D01*
X12439309Y-14812547D01*
X12515500Y-15012547D02*
X12525024Y-15003023D01*
X12544071Y-14974451D01*
X12553595Y-14955404D01*
X12563119Y-14926832D01*
X12572643Y-14879213D01*
X12572643Y-14841118D01*
X12563119Y-14793499D01*
X12553595Y-14764928D01*
X12544071Y-14745880D01*
X12525024Y-14717309D01*
X12515500Y-14707785D01*
D17*
X7463119Y-15064880D02*
X7553119Y-15154880D01*
X7553119Y-15064880D02*
X7463119Y-15154880D01*
X7553119Y-15109880D02*
G75*
G03*
X7553119Y-15109880I-45000J0D01*
G01*
D11*
X7848833Y-15000356D02*
X7867881Y-15000356D01*
X7886928Y-15009880D01*
X7896452Y-15019404D01*
X7905976Y-15038451D01*
X7915500Y-15076547D01*
X7915500Y-15124166D01*
X7905976Y-15162261D01*
X7896452Y-15181309D01*
X7886928Y-15190832D01*
X7867881Y-15200356D01*
X7848833Y-15200356D01*
X7829785Y-15190832D01*
X7820262Y-15181309D01*
X7810738Y-15162261D01*
X7801214Y-15124166D01*
X7801214Y-15076547D01*
X7810738Y-15038451D01*
X7820262Y-15019404D01*
X7829785Y-15009880D01*
X7848833Y-15000356D01*
X8001214Y-15181309D02*
X8010738Y-15190832D01*
X8001214Y-15200356D01*
X7991690Y-15190832D01*
X8001214Y-15181309D01*
X8001214Y-15200356D01*
X8105976Y-15200356D02*
X8144071Y-15200356D01*
X8163119Y-15190832D01*
X8172643Y-15181309D01*
X8191690Y-15152737D01*
X8201214Y-15114642D01*
X8201214Y-15038451D01*
X8191690Y-15019404D01*
X8182166Y-15009880D01*
X8163119Y-15000356D01*
X8125024Y-15000356D01*
X8105976Y-15009880D01*
X8096452Y-15019404D01*
X8086928Y-15038451D01*
X8086928Y-15086070D01*
X8096452Y-15105118D01*
X8105976Y-15114642D01*
X8125024Y-15124166D01*
X8163119Y-15124166D01*
X8182166Y-15114642D01*
X8191690Y-15105118D01*
X8201214Y-15086070D01*
X8325024Y-15000356D02*
X8344071Y-15000356D01*
X8363119Y-15009880D01*
X8372643Y-15019404D01*
X8382166Y-15038451D01*
X8391690Y-15076547D01*
X8391690Y-15124166D01*
X8382166Y-15162261D01*
X8372643Y-15181309D01*
X8363119Y-15190832D01*
X8344071Y-15200356D01*
X8325024Y-15200356D01*
X8305976Y-15190832D01*
X8296452Y-15181309D01*
X8286928Y-15162261D01*
X8277405Y-15124166D01*
X8277405Y-15076547D01*
X8286928Y-15038451D01*
X8296452Y-15019404D01*
X8305976Y-15009880D01*
X8325024Y-15000356D01*
X8515500Y-15000356D02*
X8534547Y-15000356D01*
X8553595Y-15009880D01*
X8563119Y-15019404D01*
X8572643Y-15038451D01*
X8582167Y-15076547D01*
X8582167Y-15124166D01*
X8572643Y-15162261D01*
X8563119Y-15181309D01*
X8553595Y-15190832D01*
X8534547Y-15200356D01*
X8515500Y-15200356D01*
X8496452Y-15190832D01*
X8486928Y-15181309D01*
X8477405Y-15162261D01*
X8467881Y-15124166D01*
X8467881Y-15076547D01*
X8477405Y-15038451D01*
X8486928Y-15019404D01*
X8496452Y-15009880D01*
X8515500Y-15000356D01*
X8667881Y-15200356D02*
X8667881Y-15067023D01*
X8667881Y-15086070D02*
X8677405Y-15076547D01*
X8696452Y-15067023D01*
X8725024Y-15067023D01*
X8744071Y-15076547D01*
X8753595Y-15095594D01*
X8753595Y-15200356D01*
X8753595Y-15095594D02*
X8763119Y-15076547D01*
X8782167Y-15067023D01*
X8810738Y-15067023D01*
X8829786Y-15076547D01*
X8839309Y-15095594D01*
X8839309Y-15200356D01*
X8934547Y-15200356D02*
X8934547Y-15067023D01*
X8934547Y-15086070D02*
X8944071Y-15076547D01*
X8963119Y-15067023D01*
X8991690Y-15067023D01*
X9010738Y-15076547D01*
X9020262Y-15095594D01*
X9020262Y-15200356D01*
X9020262Y-15095594D02*
X9029786Y-15076547D01*
X9048833Y-15067023D01*
X9077405Y-15067023D01*
X9096452Y-15076547D01*
X9105976Y-15095594D01*
X9105976Y-15200356D01*
X9496452Y-14990832D02*
X9325024Y-15247975D01*
X9753595Y-15000356D02*
X9772643Y-15000356D01*
X9791690Y-15009880D01*
X9801214Y-15019404D01*
X9810738Y-15038451D01*
X9820262Y-15076547D01*
X9820262Y-15124166D01*
X9810738Y-15162261D01*
X9801214Y-15181309D01*
X9791690Y-15190832D01*
X9772643Y-15200356D01*
X9753595Y-15200356D01*
X9734547Y-15190832D01*
X9725024Y-15181309D01*
X9715500Y-15162261D01*
X9705976Y-15124166D01*
X9705976Y-15076547D01*
X9715500Y-15038451D01*
X9725024Y-15019404D01*
X9734547Y-15009880D01*
X9753595Y-15000356D01*
X9905976Y-15181309D02*
X9915500Y-15190832D01*
X9905976Y-15200356D01*
X9896452Y-15190832D01*
X9905976Y-15181309D01*
X9905976Y-15200356D01*
X10039309Y-15000356D02*
X10058357Y-15000356D01*
X10077405Y-15009880D01*
X10086928Y-15019404D01*
X10096452Y-15038451D01*
X10105976Y-15076547D01*
X10105976Y-15124166D01*
X10096452Y-15162261D01*
X10086928Y-15181309D01*
X10077405Y-15190832D01*
X10058357Y-15200356D01*
X10039309Y-15200356D01*
X10020262Y-15190832D01*
X10010738Y-15181309D01*
X10001214Y-15162261D01*
X9991690Y-15124166D01*
X9991690Y-15076547D01*
X10001214Y-15038451D01*
X10010738Y-15019404D01*
X10020262Y-15009880D01*
X10039309Y-15000356D01*
X10172643Y-15000356D02*
X10296452Y-15000356D01*
X10229786Y-15076547D01*
X10258357Y-15076547D01*
X10277405Y-15086070D01*
X10286928Y-15095594D01*
X10296452Y-15114642D01*
X10296452Y-15162261D01*
X10286928Y-15181309D01*
X10277405Y-15190832D01*
X10258357Y-15200356D01*
X10201214Y-15200356D01*
X10182167Y-15190832D01*
X10172643Y-15181309D01*
X10477405Y-15000356D02*
X10382167Y-15000356D01*
X10372643Y-15095594D01*
X10382167Y-15086070D01*
X10401214Y-15076547D01*
X10448833Y-15076547D01*
X10467881Y-15086070D01*
X10477405Y-15095594D01*
X10486928Y-15114642D01*
X10486928Y-15162261D01*
X10477405Y-15181309D01*
X10467881Y-15190832D01*
X10448833Y-15200356D01*
X10401214Y-15200356D01*
X10382167Y-15190832D01*
X10372643Y-15181309D01*
X10658357Y-15067023D02*
X10658357Y-15200356D01*
X10610738Y-14990832D02*
X10563119Y-15133690D01*
X10686928Y-15133690D01*
X10753595Y-15000356D02*
X10753595Y-15038451D01*
X10829786Y-15000356D02*
X10829786Y-15038451D01*
X11125024Y-15276547D02*
X11115500Y-15267023D01*
X11096452Y-15238451D01*
X11086928Y-15219404D01*
X11077405Y-15190832D01*
X11067881Y-15143213D01*
X11067881Y-15105118D01*
X11077405Y-15057499D01*
X11086928Y-15028928D01*
X11096452Y-15009880D01*
X11115500Y-14981309D01*
X11125024Y-14971785D01*
X11286928Y-15067023D02*
X11286928Y-15200356D01*
X11239309Y-14990832D02*
X11191690Y-15133690D01*
X11315500Y-15133690D01*
X11544071Y-15200356D02*
X11544071Y-15000356D01*
X11629785Y-15200356D02*
X11629785Y-15095594D01*
X11620262Y-15076547D01*
X11601214Y-15067023D01*
X11572643Y-15067023D01*
X11553595Y-15076547D01*
X11544071Y-15086070D01*
X11753595Y-15200356D02*
X11734547Y-15190832D01*
X11725024Y-15181309D01*
X11715500Y-15162261D01*
X11715500Y-15105118D01*
X11725024Y-15086070D01*
X11734547Y-15076547D01*
X11753595Y-15067023D01*
X11782166Y-15067023D01*
X11801214Y-15076547D01*
X11810738Y-15086070D01*
X11820262Y-15105118D01*
X11820262Y-15162261D01*
X11810738Y-15181309D01*
X11801214Y-15190832D01*
X11782166Y-15200356D01*
X11753595Y-15200356D01*
X11934547Y-15200356D02*
X11915500Y-15190832D01*
X11905976Y-15171785D01*
X11905976Y-15000356D01*
X12086928Y-15190832D02*
X12067881Y-15200356D01*
X12029785Y-15200356D01*
X12010738Y-15190832D01*
X12001214Y-15171785D01*
X12001214Y-15095594D01*
X12010738Y-15076547D01*
X12029785Y-15067023D01*
X12067881Y-15067023D01*
X12086928Y-15076547D01*
X12096452Y-15095594D01*
X12096452Y-15114642D01*
X12001214Y-15133690D01*
X12172643Y-15190832D02*
X12191690Y-15200356D01*
X12229785Y-15200356D01*
X12248833Y-15190832D01*
X12258357Y-15171785D01*
X12258357Y-15162261D01*
X12248833Y-15143213D01*
X12229785Y-15133690D01*
X12201214Y-15133690D01*
X12182166Y-15124166D01*
X12172643Y-15105118D01*
X12172643Y-15095594D01*
X12182166Y-15076547D01*
X12201214Y-15067023D01*
X12229785Y-15067023D01*
X12248833Y-15076547D01*
X12325024Y-15276547D02*
X12334547Y-15267023D01*
X12353595Y-15238451D01*
X12363119Y-15219404D01*
X12372643Y-15190832D01*
X12382166Y-15143213D01*
X12382166Y-15105118D01*
X12372643Y-15057499D01*
X12363119Y-15028928D01*
X12353595Y-15009880D01*
X12334547Y-14981309D01*
X12325024Y-14971785D01*
D10*
X7453119Y-15323880D02*
X7553119Y-15423880D01*
X7553119Y-15323880D02*
X7453119Y-15423880D01*
X7503119Y-15323880D02*
X7503119Y-15423880D01*
X7453119Y-15373880D02*
X7553119Y-15373880D01*
D11*
X7915500Y-15464356D02*
X7801214Y-15464356D01*
X7858357Y-15464356D02*
X7858357Y-15264356D01*
X7839309Y-15292928D01*
X7820262Y-15311975D01*
X7801214Y-15321499D01*
X8001214Y-15445309D02*
X8010738Y-15454832D01*
X8001214Y-15464356D01*
X7991690Y-15454832D01*
X8001214Y-15445309D01*
X8001214Y-15464356D01*
X8134547Y-15264356D02*
X8153595Y-15264356D01*
X8172643Y-15273880D01*
X8182166Y-15283404D01*
X8191690Y-15302451D01*
X8201214Y-15340547D01*
X8201214Y-15388166D01*
X8191690Y-15426261D01*
X8182166Y-15445309D01*
X8172643Y-15454832D01*
X8153595Y-15464356D01*
X8134547Y-15464356D01*
X8115500Y-15454832D01*
X8105976Y-15445309D01*
X8096452Y-15426261D01*
X8086928Y-15388166D01*
X8086928Y-15340547D01*
X8096452Y-15302451D01*
X8105976Y-15283404D01*
X8115500Y-15273880D01*
X8134547Y-15264356D01*
X8325024Y-15264356D02*
X8344071Y-15264356D01*
X8363119Y-15273880D01*
X8372643Y-15283404D01*
X8382166Y-15302451D01*
X8391690Y-15340547D01*
X8391690Y-15388166D01*
X8382166Y-15426261D01*
X8372643Y-15445309D01*
X8363119Y-15454832D01*
X8344071Y-15464356D01*
X8325024Y-15464356D01*
X8305976Y-15454832D01*
X8296452Y-15445309D01*
X8286928Y-15426261D01*
X8277405Y-15388166D01*
X8277405Y-15340547D01*
X8286928Y-15302451D01*
X8296452Y-15283404D01*
X8305976Y-15273880D01*
X8325024Y-15264356D01*
X8515500Y-15264356D02*
X8534547Y-15264356D01*
X8553595Y-15273880D01*
X8563119Y-15283404D01*
X8572643Y-15302451D01*
X8582167Y-15340547D01*
X8582167Y-15388166D01*
X8572643Y-15426261D01*
X8563119Y-15445309D01*
X8553595Y-15454832D01*
X8534547Y-15464356D01*
X8515500Y-15464356D01*
X8496452Y-15454832D01*
X8486928Y-15445309D01*
X8477405Y-15426261D01*
X8467881Y-15388166D01*
X8467881Y-15340547D01*
X8477405Y-15302451D01*
X8486928Y-15283404D01*
X8496452Y-15273880D01*
X8515500Y-15264356D01*
X8667881Y-15464356D02*
X8667881Y-15331023D01*
X8667881Y-15350070D02*
X8677405Y-15340547D01*
X8696452Y-15331023D01*
X8725024Y-15331023D01*
X8744071Y-15340547D01*
X8753595Y-15359594D01*
X8753595Y-15464356D01*
X8753595Y-15359594D02*
X8763119Y-15340547D01*
X8782167Y-15331023D01*
X8810738Y-15331023D01*
X8829786Y-15340547D01*
X8839309Y-15359594D01*
X8839309Y-15464356D01*
X8934547Y-15464356D02*
X8934547Y-15331023D01*
X8934547Y-15350070D02*
X8944071Y-15340547D01*
X8963119Y-15331023D01*
X8991690Y-15331023D01*
X9010738Y-15340547D01*
X9020262Y-15359594D01*
X9020262Y-15464356D01*
X9020262Y-15359594D02*
X9029786Y-15340547D01*
X9048833Y-15331023D01*
X9077405Y-15331023D01*
X9096452Y-15340547D01*
X9105976Y-15359594D01*
X9105976Y-15464356D01*
X9496452Y-15254832D02*
X9325024Y-15511975D01*
X9753595Y-15264356D02*
X9772643Y-15264356D01*
X9791690Y-15273880D01*
X9801214Y-15283404D01*
X9810738Y-15302451D01*
X9820262Y-15340547D01*
X9820262Y-15388166D01*
X9810738Y-15426261D01*
X9801214Y-15445309D01*
X9791690Y-15454832D01*
X9772643Y-15464356D01*
X9753595Y-15464356D01*
X9734547Y-15454832D01*
X9725024Y-15445309D01*
X9715500Y-15426261D01*
X9705976Y-15388166D01*
X9705976Y-15340547D01*
X9715500Y-15302451D01*
X9725024Y-15283404D01*
X9734547Y-15273880D01*
X9753595Y-15264356D01*
X9905976Y-15445309D02*
X9915500Y-15454832D01*
X9905976Y-15464356D01*
X9896452Y-15454832D01*
X9905976Y-15445309D01*
X9905976Y-15464356D01*
X10039309Y-15264356D02*
X10058357Y-15264356D01*
X10077405Y-15273880D01*
X10086928Y-15283404D01*
X10096452Y-15302451D01*
X10105976Y-15340547D01*
X10105976Y-15388166D01*
X10096452Y-15426261D01*
X10086928Y-15445309D01*
X10077405Y-15454832D01*
X10058357Y-15464356D01*
X10039309Y-15464356D01*
X10020262Y-15454832D01*
X10010738Y-15445309D01*
X10001214Y-15426261D01*
X9991690Y-15388166D01*
X9991690Y-15340547D01*
X10001214Y-15302451D01*
X10010738Y-15283404D01*
X10020262Y-15273880D01*
X10039309Y-15264356D01*
X10172643Y-15264356D02*
X10296452Y-15264356D01*
X10229786Y-15340547D01*
X10258357Y-15340547D01*
X10277405Y-15350070D01*
X10286928Y-15359594D01*
X10296452Y-15378642D01*
X10296452Y-15426261D01*
X10286928Y-15445309D01*
X10277405Y-15454832D01*
X10258357Y-15464356D01*
X10201214Y-15464356D01*
X10182167Y-15454832D01*
X10172643Y-15445309D01*
X10391690Y-15464356D02*
X10429786Y-15464356D01*
X10448833Y-15454832D01*
X10458357Y-15445309D01*
X10477405Y-15416737D01*
X10486928Y-15378642D01*
X10486928Y-15302451D01*
X10477405Y-15283404D01*
X10467881Y-15273880D01*
X10448833Y-15264356D01*
X10410738Y-15264356D01*
X10391690Y-15273880D01*
X10382167Y-15283404D01*
X10372643Y-15302451D01*
X10372643Y-15350070D01*
X10382167Y-15369118D01*
X10391690Y-15378642D01*
X10410738Y-15388166D01*
X10448833Y-15388166D01*
X10467881Y-15378642D01*
X10477405Y-15369118D01*
X10486928Y-15350070D01*
X10658357Y-15331023D02*
X10658357Y-15464356D01*
X10610738Y-15254832D02*
X10563119Y-15397690D01*
X10686928Y-15397690D01*
X10753595Y-15264356D02*
X10753595Y-15302451D01*
X10829786Y-15264356D02*
X10829786Y-15302451D01*
X11125024Y-15540547D02*
X11115500Y-15531023D01*
X11096452Y-15502451D01*
X11086928Y-15483404D01*
X11077405Y-15454832D01*
X11067881Y-15407213D01*
X11067881Y-15369118D01*
X11077405Y-15321499D01*
X11086928Y-15292928D01*
X11096452Y-15273880D01*
X11115500Y-15245309D01*
X11125024Y-15235785D01*
X11182167Y-15264356D02*
X11305976Y-15264356D01*
X11239309Y-15340547D01*
X11267881Y-15340547D01*
X11286928Y-15350070D01*
X11296452Y-15359594D01*
X11305976Y-15378642D01*
X11305976Y-15426261D01*
X11296452Y-15445309D01*
X11286928Y-15454832D01*
X11267881Y-15464356D01*
X11210738Y-15464356D01*
X11191690Y-15454832D01*
X11182167Y-15445309D01*
X11477405Y-15331023D02*
X11477405Y-15464356D01*
X11429785Y-15254832D02*
X11382166Y-15397690D01*
X11505976Y-15397690D01*
X11734547Y-15464356D02*
X11734547Y-15264356D01*
X11820262Y-15464356D02*
X11820262Y-15359594D01*
X11810738Y-15340547D01*
X11791690Y-15331023D01*
X11763119Y-15331023D01*
X11744071Y-15340547D01*
X11734547Y-15350070D01*
X11944071Y-15464356D02*
X11925024Y-15454832D01*
X11915500Y-15445309D01*
X11905976Y-15426261D01*
X11905976Y-15369118D01*
X11915500Y-15350070D01*
X11925024Y-15340547D01*
X11944071Y-15331023D01*
X11972643Y-15331023D01*
X11991690Y-15340547D01*
X12001214Y-15350070D01*
X12010738Y-15369118D01*
X12010738Y-15426261D01*
X12001214Y-15445309D01*
X11991690Y-15454832D01*
X11972643Y-15464356D01*
X11944071Y-15464356D01*
X12125024Y-15464356D02*
X12105976Y-15454832D01*
X12096452Y-15435785D01*
X12096452Y-15264356D01*
X12277405Y-15454832D02*
X12258357Y-15464356D01*
X12220262Y-15464356D01*
X12201214Y-15454832D01*
X12191690Y-15435785D01*
X12191690Y-15359594D01*
X12201214Y-15340547D01*
X12220262Y-15331023D01*
X12258357Y-15331023D01*
X12277405Y-15340547D01*
X12286928Y-15359594D01*
X12286928Y-15378642D01*
X12191690Y-15397690D01*
X12363119Y-15454832D02*
X12382166Y-15464356D01*
X12420262Y-15464356D01*
X12439309Y-15454832D01*
X12448833Y-15435785D01*
X12448833Y-15426261D01*
X12439309Y-15407213D01*
X12420262Y-15397690D01*
X12391690Y-15397690D01*
X12372643Y-15388166D01*
X12363119Y-15369118D01*
X12363119Y-15359594D01*
X12372643Y-15340547D01*
X12391690Y-15331023D01*
X12420262Y-15331023D01*
X12439309Y-15340547D01*
X12515500Y-15540547D02*
X12525024Y-15531023D01*
X12544071Y-15502451D01*
X12553595Y-15483404D01*
X12563119Y-15454832D01*
X12572643Y-15407213D01*
X12572643Y-15369118D01*
X12563119Y-15321499D01*
X12553595Y-15292928D01*
X12544071Y-15273880D01*
X12525024Y-15245309D01*
X12515500Y-15235785D01*
D18*
X7451119Y-15586880D02*
X7553119Y-15688880D01*
X7553119Y-15586880D02*
X7451119Y-15688880D01*
X7538182Y-15673943D02*
X7538182Y-15601817D01*
X7466056Y-15601817D01*
X7466056Y-15673943D01*
X7538182Y-15673943D01*
D11*
X7915500Y-15728356D02*
X7801214Y-15728356D01*
X7858357Y-15728356D02*
X7858357Y-15528356D01*
X7839309Y-15556928D01*
X7820262Y-15575975D01*
X7801214Y-15585499D01*
X8001214Y-15709309D02*
X8010738Y-15718832D01*
X8001214Y-15728356D01*
X7991690Y-15718832D01*
X8001214Y-15709309D01*
X8001214Y-15728356D01*
X8134547Y-15528356D02*
X8153595Y-15528356D01*
X8172643Y-15537880D01*
X8182166Y-15547404D01*
X8191690Y-15566451D01*
X8201214Y-15604547D01*
X8201214Y-15652166D01*
X8191690Y-15690261D01*
X8182166Y-15709309D01*
X8172643Y-15718832D01*
X8153595Y-15728356D01*
X8134547Y-15728356D01*
X8115500Y-15718832D01*
X8105976Y-15709309D01*
X8096452Y-15690261D01*
X8086928Y-15652166D01*
X8086928Y-15604547D01*
X8096452Y-15566451D01*
X8105976Y-15547404D01*
X8115500Y-15537880D01*
X8134547Y-15528356D01*
X8277405Y-15547404D02*
X8286928Y-15537880D01*
X8305976Y-15528356D01*
X8353595Y-15528356D01*
X8372643Y-15537880D01*
X8382166Y-15547404D01*
X8391690Y-15566451D01*
X8391690Y-15585499D01*
X8382166Y-15614070D01*
X8267881Y-15728356D01*
X8391690Y-15728356D01*
X8515500Y-15528356D02*
X8534547Y-15528356D01*
X8553595Y-15537880D01*
X8563119Y-15547404D01*
X8572643Y-15566451D01*
X8582167Y-15604547D01*
X8582167Y-15652166D01*
X8572643Y-15690261D01*
X8563119Y-15709309D01*
X8553595Y-15718832D01*
X8534547Y-15728356D01*
X8515500Y-15728356D01*
X8496452Y-15718832D01*
X8486928Y-15709309D01*
X8477405Y-15690261D01*
X8467881Y-15652166D01*
X8467881Y-15604547D01*
X8477405Y-15566451D01*
X8486928Y-15547404D01*
X8496452Y-15537880D01*
X8515500Y-15528356D01*
X8667881Y-15728356D02*
X8667881Y-15595023D01*
X8667881Y-15614070D02*
X8677405Y-15604547D01*
X8696452Y-15595023D01*
X8725024Y-15595023D01*
X8744071Y-15604547D01*
X8753595Y-15623594D01*
X8753595Y-15728356D01*
X8753595Y-15623594D02*
X8763119Y-15604547D01*
X8782167Y-15595023D01*
X8810738Y-15595023D01*
X8829786Y-15604547D01*
X8839309Y-15623594D01*
X8839309Y-15728356D01*
X8934547Y-15728356D02*
X8934547Y-15595023D01*
X8934547Y-15614070D02*
X8944071Y-15604547D01*
X8963119Y-15595023D01*
X8991690Y-15595023D01*
X9010738Y-15604547D01*
X9020262Y-15623594D01*
X9020262Y-15728356D01*
X9020262Y-15623594D02*
X9029786Y-15604547D01*
X9048833Y-15595023D01*
X9077405Y-15595023D01*
X9096452Y-15604547D01*
X9105976Y-15623594D01*
X9105976Y-15728356D01*
X9496452Y-15518832D02*
X9325024Y-15775975D01*
X9753595Y-15528356D02*
X9772643Y-15528356D01*
X9791690Y-15537880D01*
X9801214Y-15547404D01*
X9810738Y-15566451D01*
X9820262Y-15604547D01*
X9820262Y-15652166D01*
X9810738Y-15690261D01*
X9801214Y-15709309D01*
X9791690Y-15718832D01*
X9772643Y-15728356D01*
X9753595Y-15728356D01*
X9734547Y-15718832D01*
X9725024Y-15709309D01*
X9715500Y-15690261D01*
X9705976Y-15652166D01*
X9705976Y-15604547D01*
X9715500Y-15566451D01*
X9725024Y-15547404D01*
X9734547Y-15537880D01*
X9753595Y-15528356D01*
X9905976Y-15709309D02*
X9915500Y-15718832D01*
X9905976Y-15728356D01*
X9896452Y-15718832D01*
X9905976Y-15709309D01*
X9905976Y-15728356D01*
X10039309Y-15528356D02*
X10058357Y-15528356D01*
X10077405Y-15537880D01*
X10086928Y-15547404D01*
X10096452Y-15566451D01*
X10105976Y-15604547D01*
X10105976Y-15652166D01*
X10096452Y-15690261D01*
X10086928Y-15709309D01*
X10077405Y-15718832D01*
X10058357Y-15728356D01*
X10039309Y-15728356D01*
X10020262Y-15718832D01*
X10010738Y-15709309D01*
X10001214Y-15690261D01*
X9991690Y-15652166D01*
X9991690Y-15604547D01*
X10001214Y-15566451D01*
X10010738Y-15547404D01*
X10020262Y-15537880D01*
X10039309Y-15528356D01*
X10277405Y-15595023D02*
X10277405Y-15728356D01*
X10229786Y-15518832D02*
X10182167Y-15661690D01*
X10305976Y-15661690D01*
X10420262Y-15528356D02*
X10439309Y-15528356D01*
X10458357Y-15537880D01*
X10467881Y-15547404D01*
X10477405Y-15566451D01*
X10486928Y-15604547D01*
X10486928Y-15652166D01*
X10477405Y-15690261D01*
X10467881Y-15709309D01*
X10458357Y-15718832D01*
X10439309Y-15728356D01*
X10420262Y-15728356D01*
X10401214Y-15718832D01*
X10391690Y-15709309D01*
X10382167Y-15690261D01*
X10372643Y-15652166D01*
X10372643Y-15604547D01*
X10382167Y-15566451D01*
X10391690Y-15547404D01*
X10401214Y-15537880D01*
X10420262Y-15528356D01*
X10563119Y-15547404D02*
X10572643Y-15537880D01*
X10591690Y-15528356D01*
X10639309Y-15528356D01*
X10658357Y-15537880D01*
X10667881Y-15547404D01*
X10677405Y-15566451D01*
X10677405Y-15585499D01*
X10667881Y-15614070D01*
X10553595Y-15728356D01*
X10677405Y-15728356D01*
X10753595Y-15528356D02*
X10753595Y-15566451D01*
X10829786Y-15528356D02*
X10829786Y-15566451D01*
X11125024Y-15804547D02*
X11115500Y-15795023D01*
X11096452Y-15766451D01*
X11086928Y-15747404D01*
X11077405Y-15718832D01*
X11067881Y-15671213D01*
X11067881Y-15633118D01*
X11077405Y-15585499D01*
X11086928Y-15556928D01*
X11096452Y-15537880D01*
X11115500Y-15509309D01*
X11125024Y-15499785D01*
X11286928Y-15528356D02*
X11248833Y-15528356D01*
X11229785Y-15537880D01*
X11220262Y-15547404D01*
X11201214Y-15575975D01*
X11191690Y-15614070D01*
X11191690Y-15690261D01*
X11201214Y-15709309D01*
X11210738Y-15718832D01*
X11229785Y-15728356D01*
X11267881Y-15728356D01*
X11286928Y-15718832D01*
X11296452Y-15709309D01*
X11305976Y-15690261D01*
X11305976Y-15642642D01*
X11296452Y-15623594D01*
X11286928Y-15614070D01*
X11267881Y-15604547D01*
X11229785Y-15604547D01*
X11210738Y-15614070D01*
X11201214Y-15623594D01*
X11191690Y-15642642D01*
X11544071Y-15728356D02*
X11544071Y-15528356D01*
X11629785Y-15728356D02*
X11629785Y-15623594D01*
X11620262Y-15604547D01*
X11601214Y-15595023D01*
X11572643Y-15595023D01*
X11553595Y-15604547D01*
X11544071Y-15614070D01*
X11753595Y-15728356D02*
X11734547Y-15718832D01*
X11725024Y-15709309D01*
X11715500Y-15690261D01*
X11715500Y-15633118D01*
X11725024Y-15614070D01*
X11734547Y-15604547D01*
X11753595Y-15595023D01*
X11782166Y-15595023D01*
X11801214Y-15604547D01*
X11810738Y-15614070D01*
X11820262Y-15633118D01*
X11820262Y-15690261D01*
X11810738Y-15709309D01*
X11801214Y-15718832D01*
X11782166Y-15728356D01*
X11753595Y-15728356D01*
X11934547Y-15728356D02*
X11915500Y-15718832D01*
X11905976Y-15699785D01*
X11905976Y-15528356D01*
X12086928Y-15718832D02*
X12067881Y-15728356D01*
X12029785Y-15728356D01*
X12010738Y-15718832D01*
X12001214Y-15699785D01*
X12001214Y-15623594D01*
X12010738Y-15604547D01*
X12029785Y-15595023D01*
X12067881Y-15595023D01*
X12086928Y-15604547D01*
X12096452Y-15623594D01*
X12096452Y-15642642D01*
X12001214Y-15661690D01*
X12172643Y-15718832D02*
X12191690Y-15728356D01*
X12229785Y-15728356D01*
X12248833Y-15718832D01*
X12258357Y-15699785D01*
X12258357Y-15690261D01*
X12248833Y-15671213D01*
X12229785Y-15661690D01*
X12201214Y-15661690D01*
X12182166Y-15652166D01*
X12172643Y-15633118D01*
X12172643Y-15623594D01*
X12182166Y-15604547D01*
X12201214Y-15595023D01*
X12229785Y-15595023D01*
X12248833Y-15604547D01*
X12325024Y-15804547D02*
X12334547Y-15795023D01*
X12353595Y-15766451D01*
X12363119Y-15747404D01*
X12372643Y-15718832D01*
X12382166Y-15671213D01*
X12382166Y-15633118D01*
X12372643Y-15585499D01*
X12363119Y-15556928D01*
X12353595Y-15537880D01*
X12334547Y-15509309D01*
X12325024Y-15499785D01*
D19*
X7443119Y-15846880D02*
X7553119Y-15956880D01*
X7553119Y-15846880D02*
X7443119Y-15956880D01*
X7498119Y-15956880D02*
X7553119Y-15901880D01*
X7498119Y-15846880D01*
X7443119Y-15901880D01*
X7498119Y-15956880D01*
D11*
X7915500Y-15992356D02*
X7801214Y-15992356D01*
X7858357Y-15992356D02*
X7858357Y-15792356D01*
X7839309Y-15820928D01*
X7820262Y-15839975D01*
X7801214Y-15849499D01*
X8001214Y-15973309D02*
X8010738Y-15982832D01*
X8001214Y-15992356D01*
X7991690Y-15982832D01*
X8001214Y-15973309D01*
X8001214Y-15992356D01*
X8201214Y-15992356D02*
X8086928Y-15992356D01*
X8144071Y-15992356D02*
X8144071Y-15792356D01*
X8125024Y-15820928D01*
X8105976Y-15839975D01*
X8086928Y-15849499D01*
X8325024Y-15792356D02*
X8344071Y-15792356D01*
X8363119Y-15801880D01*
X8372643Y-15811404D01*
X8382166Y-15830451D01*
X8391690Y-15868547D01*
X8391690Y-15916166D01*
X8382166Y-15954261D01*
X8372643Y-15973309D01*
X8363119Y-15982832D01*
X8344071Y-15992356D01*
X8325024Y-15992356D01*
X8305976Y-15982832D01*
X8296452Y-15973309D01*
X8286928Y-15954261D01*
X8277405Y-15916166D01*
X8277405Y-15868547D01*
X8286928Y-15830451D01*
X8296452Y-15811404D01*
X8305976Y-15801880D01*
X8325024Y-15792356D01*
X8515500Y-15792356D02*
X8534547Y-15792356D01*
X8553595Y-15801880D01*
X8563119Y-15811404D01*
X8572643Y-15830451D01*
X8582167Y-15868547D01*
X8582167Y-15916166D01*
X8572643Y-15954261D01*
X8563119Y-15973309D01*
X8553595Y-15982832D01*
X8534547Y-15992356D01*
X8515500Y-15992356D01*
X8496452Y-15982832D01*
X8486928Y-15973309D01*
X8477405Y-15954261D01*
X8467881Y-15916166D01*
X8467881Y-15868547D01*
X8477405Y-15830451D01*
X8486928Y-15811404D01*
X8496452Y-15801880D01*
X8515500Y-15792356D01*
X8667881Y-15992356D02*
X8667881Y-15859023D01*
X8667881Y-15878070D02*
X8677405Y-15868547D01*
X8696452Y-15859023D01*
X8725024Y-15859023D01*
X8744071Y-15868547D01*
X8753595Y-15887594D01*
X8753595Y-15992356D01*
X8753595Y-15887594D02*
X8763119Y-15868547D01*
X8782167Y-15859023D01*
X8810738Y-15859023D01*
X8829786Y-15868547D01*
X8839309Y-15887594D01*
X8839309Y-15992356D01*
X8934547Y-15992356D02*
X8934547Y-15859023D01*
X8934547Y-15878070D02*
X8944071Y-15868547D01*
X8963119Y-15859023D01*
X8991690Y-15859023D01*
X9010738Y-15868547D01*
X9020262Y-15887594D01*
X9020262Y-15992356D01*
X9020262Y-15887594D02*
X9029786Y-15868547D01*
X9048833Y-15859023D01*
X9077405Y-15859023D01*
X9096452Y-15868547D01*
X9105976Y-15887594D01*
X9105976Y-15992356D01*
X9496452Y-15782832D02*
X9325024Y-16039975D01*
X9753595Y-15792356D02*
X9772643Y-15792356D01*
X9791690Y-15801880D01*
X9801214Y-15811404D01*
X9810738Y-15830451D01*
X9820262Y-15868547D01*
X9820262Y-15916166D01*
X9810738Y-15954261D01*
X9801214Y-15973309D01*
X9791690Y-15982832D01*
X9772643Y-15992356D01*
X9753595Y-15992356D01*
X9734547Y-15982832D01*
X9725024Y-15973309D01*
X9715500Y-15954261D01*
X9705976Y-15916166D01*
X9705976Y-15868547D01*
X9715500Y-15830451D01*
X9725024Y-15811404D01*
X9734547Y-15801880D01*
X9753595Y-15792356D01*
X9905976Y-15973309D02*
X9915500Y-15982832D01*
X9905976Y-15992356D01*
X9896452Y-15982832D01*
X9905976Y-15973309D01*
X9905976Y-15992356D01*
X10039309Y-15792356D02*
X10058357Y-15792356D01*
X10077405Y-15801880D01*
X10086928Y-15811404D01*
X10096452Y-15830451D01*
X10105976Y-15868547D01*
X10105976Y-15916166D01*
X10096452Y-15954261D01*
X10086928Y-15973309D01*
X10077405Y-15982832D01*
X10058357Y-15992356D01*
X10039309Y-15992356D01*
X10020262Y-15982832D01*
X10010738Y-15973309D01*
X10001214Y-15954261D01*
X9991690Y-15916166D01*
X9991690Y-15868547D01*
X10001214Y-15830451D01*
X10010738Y-15811404D01*
X10020262Y-15801880D01*
X10039309Y-15792356D01*
X10277405Y-15859023D02*
X10277405Y-15992356D01*
X10229786Y-15782832D02*
X10182167Y-15925690D01*
X10305976Y-15925690D01*
X10363119Y-15792356D02*
X10486928Y-15792356D01*
X10420262Y-15868547D01*
X10448833Y-15868547D01*
X10467881Y-15878070D01*
X10477405Y-15887594D01*
X10486928Y-15906642D01*
X10486928Y-15954261D01*
X10477405Y-15973309D01*
X10467881Y-15982832D01*
X10448833Y-15992356D01*
X10391690Y-15992356D01*
X10372643Y-15982832D01*
X10363119Y-15973309D01*
X10553595Y-15792356D02*
X10677405Y-15792356D01*
X10610738Y-15868547D01*
X10639309Y-15868547D01*
X10658357Y-15878070D01*
X10667881Y-15887594D01*
X10677405Y-15906642D01*
X10677405Y-15954261D01*
X10667881Y-15973309D01*
X10658357Y-15982832D01*
X10639309Y-15992356D01*
X10582167Y-15992356D01*
X10563119Y-15982832D01*
X10553595Y-15973309D01*
X10753595Y-15792356D02*
X10753595Y-15830451D01*
X10829786Y-15792356D02*
X10829786Y-15830451D01*
X11125024Y-16068547D02*
X11115500Y-16059023D01*
X11096452Y-16030451D01*
X11086928Y-16011404D01*
X11077405Y-15982832D01*
X11067881Y-15935213D01*
X11067881Y-15897118D01*
X11077405Y-15849499D01*
X11086928Y-15820928D01*
X11096452Y-15801880D01*
X11115500Y-15773309D01*
X11125024Y-15763785D01*
X11210738Y-15992356D02*
X11248833Y-15992356D01*
X11267881Y-15982832D01*
X11277405Y-15973309D01*
X11296452Y-15944737D01*
X11305976Y-15906642D01*
X11305976Y-15830451D01*
X11296452Y-15811404D01*
X11286928Y-15801880D01*
X11267881Y-15792356D01*
X11229785Y-15792356D01*
X11210738Y-15801880D01*
X11201214Y-15811404D01*
X11191690Y-15830451D01*
X11191690Y-15878070D01*
X11201214Y-15897118D01*
X11210738Y-15906642D01*
X11229785Y-15916166D01*
X11267881Y-15916166D01*
X11286928Y-15906642D01*
X11296452Y-15897118D01*
X11305976Y-15878070D01*
X11544071Y-15992356D02*
X11544071Y-15792356D01*
X11629785Y-15992356D02*
X11629785Y-15887594D01*
X11620262Y-15868547D01*
X11601214Y-15859023D01*
X11572643Y-15859023D01*
X11553595Y-15868547D01*
X11544071Y-15878070D01*
X11753595Y-15992356D02*
X11734547Y-15982832D01*
X11725024Y-15973309D01*
X11715500Y-15954261D01*
X11715500Y-15897118D01*
X11725024Y-15878070D01*
X11734547Y-15868547D01*
X11753595Y-15859023D01*
X11782166Y-15859023D01*
X11801214Y-15868547D01*
X11810738Y-15878070D01*
X11820262Y-15897118D01*
X11820262Y-15954261D01*
X11810738Y-15973309D01*
X11801214Y-15982832D01*
X11782166Y-15992356D01*
X11753595Y-15992356D01*
X11934547Y-15992356D02*
X11915500Y-15982832D01*
X11905976Y-15963785D01*
X11905976Y-15792356D01*
X12086928Y-15982832D02*
X12067881Y-15992356D01*
X12029785Y-15992356D01*
X12010738Y-15982832D01*
X12001214Y-15963785D01*
X12001214Y-15887594D01*
X12010738Y-15868547D01*
X12029785Y-15859023D01*
X12067881Y-15859023D01*
X12086928Y-15868547D01*
X12096452Y-15887594D01*
X12096452Y-15906642D01*
X12001214Y-15925690D01*
X12172643Y-15982832D02*
X12191690Y-15992356D01*
X12229785Y-15992356D01*
X12248833Y-15982832D01*
X12258357Y-15963785D01*
X12258357Y-15954261D01*
X12248833Y-15935213D01*
X12229785Y-15925690D01*
X12201214Y-15925690D01*
X12182166Y-15916166D01*
X12172643Y-15897118D01*
X12172643Y-15887594D01*
X12182166Y-15868547D01*
X12201214Y-15859023D01*
X12229785Y-15859023D01*
X12248833Y-15868547D01*
X12325024Y-16068547D02*
X12334547Y-16059023D01*
X12353595Y-16030451D01*
X12363119Y-16011404D01*
X12372643Y-15982832D01*
X12382166Y-15935213D01*
X12382166Y-15897118D01*
X12372643Y-15849499D01*
X12363119Y-15820928D01*
X12353595Y-15801880D01*
X12334547Y-15773309D01*
X12325024Y-15763785D01*
M02*
